<?xml version="1.0" encoding="UTF-8"?>
<svg width="158px" height="158px" viewBox="0 0 158 158" version="1.1" xmlns="http://www.w3.org/2000/svg" xmlns:xlink="http://www.w3.org/1999/xlink">
    <title>Group 5</title>
    <g id="Page-1" stroke="none" stroke-width="1" fill="none" fill-rule="evenodd">
        <g id="vectorstock_20069581" transform="translate(-698.000000, -689.000000)">
            <g id="Group-5" transform="translate(698.356785, 689.310000)">
                <path d="M105.063215,74.963 C105.001215,76.037 104.914215,76.679 104.914215,76.679 C104.914215,76.679 102.718215,98.565 78.5802149,98.565 C54.4292149,98.565 52.5282149,76.679 52.5282149,76.679 C52.5282149,76.679 52.4172149,76.037 52.3172149,74.963 L0.116214887,74.963 C0.355214887,80.349 1.00921489,86.671 2.47321489,93.333 C8.20221489,119.42 26.2832149,150.669 80.0852149,150.669 C131.929215,150.669 149.546215,121.662 155.015215,96.199 C156.676215,88.493 157.222215,81.118 157.270215,74.963 L105.063215,74.963" id="Fill-329" fill="#9B602E"></path>
                <path d="M78.1492149,52.093 C109.262215,52.093 104.914215,83.127 104.914215,83.127 C104.914215,83.127 102.718215,105.012 78.5802149,105.012 C54.4292149,105.012 52.5282149,83.127 52.5282149,83.127 C52.5282149,83.127 47.0472149,52.093 78.1492149,52.093 M156.169215,65 C156.169215,65 152.445215,22.294 112.863215,6.115 C103.613215,2.333 92.4042149,0 78.8282149,0 C7.13721489,0 0.616214887,65 0.616214887,65 C0.616214887,65 -1.63678511,81.067 2.47321489,99.782 C4.48821489,108.987 8.05421489,118.826 14.1682149,127.713 C25.4002149,144.029 45.2582149,157.117 80.0852149,157.117 C131.929215,157.117 149.546215,128.11 155.015215,102.646 C159.306215,82.743 156.169215,65 156.169215,65" id="Fill-330" fill="#ED9C3A"></path>
                <path d="M104.914215,83.127 C104.914215,83.127 102.718215,105.012 78.5802149,105.012 C54.4292149,105.012 52.5282149,83.127 52.5282149,83.127 C52.5282149,83.127 47.0472149,52.093 78.1492149,52.093 C109.262215,52.093 104.914215,83.127 104.914215,83.127 M156.169215,65 C156.169215,65 152.445215,22.294 112.863215,6.115 C103.613215,2.333 92.4042149,0 78.8282149,0 C7.13721489,0 0.616214887,65 0.616214887,65 C0.616214887,65 -1.63678511,81.067 2.47321489,99.782 C9.87321489,100.213 11.0592149,95.37 11.2382149,90.528 C11.4102149,85.857 10.6452149,81.186 13.6142149,81.247 C19.6482149,81.383 10.6022149,119.154 23.8152149,120.287 C37.0282149,121.418 30.5632149,93.08 35.8622149,92.321 C39.6832149,91.782 40.9442149,100.852 45.7412149,106.589 C47.4552149,109.323 53.7512149,119.606 53.4252149,122.706 C53.0482149,126.29 63.6162149,132.517 64.9372149,122.706 C66.2572149,112.893 77.2022149,115.346 77.2022149,115.346 C77.2022149,115.346 77.1382149,115.292 77.0212149,115.196 C90.3812149,116.723 103.962215,115.659 105.503215,103.643 C108.617215,83.546 119.169215,90.362 119.475215,95.343 C119.509215,95.921 119.542215,96.645 119.599215,97.484 C119.985215,103.858 121.264215,116.482 130.605215,116.482 C144.304215,116.765 138.904215,82.255 143.059215,81.247 C147.214215,80.251 142.821215,101.65 155.015215,102.646 C159.306215,82.743 156.169215,65 156.169215,65" id="Fill-331" fill="#E05870"></path>
                <path d="M50.7612149,133.974 C36.0542149,133.974 24.0182149,131.642 14.1682149,127.713 C8.05421489,118.826 4.48821489,108.987 2.47321489,99.782 C2.78221489,99.8 3.08121489,99.809 3.36921489,99.809 C9.97121489,99.809 11.0672149,95.168 11.2382149,90.528 C11.4092149,85.887 10.6562149,81.247 13.5562149,81.247 C13.5752149,81.247 13.5942149,81.247 13.6142149,81.247 C19.6482149,81.383 10.6022149,119.154 23.8152149,120.287 C24.0732149,120.309 24.3252149,120.32 24.5682149,120.32 C36.7812149,120.32 30.6662149,93.065 35.8622149,92.321 C35.9712149,92.305 36.0782149,92.298 36.1842149,92.298 C39.7582149,92.298 41.0812149,101.016 45.7412149,106.589 C47.4552149,109.323 53.7512149,119.606 53.4252149,122.706 C53.1982149,124.863 56.9352149,127.977 60.2342149,127.977 C62.4182149,127.977 64.4112149,126.613 64.9372149,122.706 C65.8172149,116.164 70.9752149,115.073 74.3152149,115.073 C75.9862149,115.073 77.2022149,115.346 77.2022149,115.346 C77.2022149,115.346 77.1382149,115.292 77.0212149,115.196 C79.9332149,115.529 82.8572149,115.738 85.6632149,115.738 C95.7312149,115.738 104.298215,113.04 105.503215,103.643 C107.107215,93.293 110.684215,90.081 113.818215,90.081 C116.769215,90.081 119.327215,92.927 119.475215,95.343 C119.509215,95.921 119.542215,96.645 119.599215,97.484 C110.146215,116.923 90.5132149,133.974 50.7612149,133.974" id="Fill-332" fill="#F0AF58"></path>
                <path d="M60.2342149,127.977 C56.9352149,127.977 53.1982149,124.863 53.4252149,122.706 C53.7512149,119.606 47.4552149,109.323 45.7412149,106.589 C41.0812149,101.016 39.7582149,92.298 36.1842149,92.298 C36.0782149,92.298 35.9712149,92.305 35.8622149,92.321 C30.6662149,93.065 36.7812149,120.32 24.5682149,120.32 C24.3252149,120.32 24.0732149,120.309 23.8152149,120.287 C10.6022149,119.154 19.6482149,81.383 13.6142149,81.247 C13.5942149,81.247 13.5752149,81.247 13.5562149,81.247 C10.6562149,81.247 11.4092149,85.887 11.2382149,90.528 C11.0672149,95.168 9.97121489,99.809 3.36921489,99.809 C3.08121489,99.809 2.78221489,99.8 2.47321489,99.782 C0.510214887,90.845 -0.0017851133,82.512 0.000209057003,76.244 C0.000209057003,69.386 0.616214887,65 0.616214887,65 C0.616214887,65 7.13721489,0 78.8282149,0 C92.4042149,0 103.613215,2.333 112.863215,6.115 C125.238215,23.369 126.845215,41.858 126.845215,41.858 C126.845215,41.858 129.982215,59.6 125.691215,79.504 C124.411215,85.448 122.475215,91.574 119.599215,97.484 C119.542215,96.645 119.509215,95.921 119.475215,95.343 C119.327215,92.927 116.769215,90.081 113.818215,90.081 C110.684215,90.081 107.107215,93.293 105.503215,103.643 C104.298215,113.04 95.7312149,115.738 85.6632149,115.738 C82.8572149,115.738 79.9332149,115.529 77.0212149,115.196 C77.1382149,115.292 77.2022149,115.346 77.2022149,115.346 C77.2022149,115.346 75.9862149,115.073 74.3152149,115.073 C70.9752149,115.073 65.8172149,116.164 64.9372149,122.706 C64.4112149,126.613 62.4182149,127.977 60.2342149,127.977 M52.1562129,77.898 C52.1552149,81.017 52.5282149,83.127 52.5282149,83.127 C52.5282149,83.127 54.4292149,105.012 78.5802149,105.012 C102.718215,105.012 104.914215,83.127 104.914215,83.127 C104.914215,83.127 105.122215,81.642 105.122215,79.322 C105.120215,71.035 102.456215,52.093 78.1492149,52.093 C55.1572149,52.093 52.1572149,69.053 52.1562129,77.898 M11.6062149,61.299 C8.40921489,61.299 5.04521489,68.607 8.75121489,70.934 C9.42021489,71.354 10.0462149,71.532 10.6242149,71.532 C13.5042149,71.532 15.2062149,67.112 15.1832149,66.071 C15.1832149,66.071 15.7332149,62.776 12.3602149,61.443 C12.1122149,61.345 11.8602149,61.299 11.6062149,61.299 M60.3312149,12.557 C52.5792149,12.557 30.4332149,21.367 21.0482149,36.12 C11.3452149,51.376 11.9032149,54.975 14.5082149,56.882 C14.7282149,57.043 14.9532149,57.115 15.1792149,57.115 C17.1142149,57.115 19.1762149,51.867 19.1762149,51.867 C19.1762149,51.867 28.5742149,33.633 55.0722149,20.794 C55.0722149,20.794 64.5842149,17.615 63.0032149,13.524 C62.7522149,12.873 61.7992149,12.557 60.3312149,12.557" id="Fill-333" fill="#E6758A"></path>
                <path d="M111.568215,130.474 C111.568215,130.474 110.632215,127.235 115.123215,127.235 C119.616215,127.235 118.510215,130.474 118.510215,130.474 C118.510215,130.474 118.516215,133.883 115.123215,133.883 C111.732215,133.883 111.568215,130.474 111.568215,130.474" id="Fill-359" fill="#FFFFFE"></path>
                <path d="M73.1722149,23.214 C73.1722149,23.214 72.4222149,20.62 76.0202149,20.62 C79.6172149,20.62 78.7322149,23.214 78.7322149,23.214 C78.7322149,23.214 78.7372149,25.945 76.0202149,25.945 C73.3032149,25.945 73.1722149,23.214 73.1722149,23.214" id="Fill-360" fill="#FFFFFE"></path>
                <path d="M141.506215,112.748 C141.506215,112.748 140.756215,110.154 144.354215,110.154 C147.951215,110.154 147.066215,112.748 147.066215,112.748 C147.066215,112.748 147.071215,115.479 144.354215,115.479 C141.637215,115.479 141.506215,112.748 141.506215,112.748" id="Fill-361" fill="#FFFFFE"></path>
                <path d="M37.3982149,81.181 C37.3982149,81.181 36.6482149,78.587 40.2462149,78.587 C43.8432149,78.587 42.9572149,81.181 42.9572149,81.181 C42.9572149,81.181 42.9622149,83.912 40.2462149,83.912 C37.5292149,83.912 37.3982149,81.181 37.3982149,81.181" id="Fill-362" fill="#FFFFFE"></path>
                <path d="M128.423215,41.493 C128.423215,41.493 127.674215,38.898 131.271215,38.898 C134.869215,38.898 133.983215,41.493 133.983215,41.493 C133.983215,41.493 133.988215,44.222 131.271215,44.222 C128.554215,44.222 128.423215,41.493 128.423215,41.493" id="Fill-363" fill="#FFFFFE"></path>
                <path d="M15.1792149,57.115 C14.9532149,57.115 14.7282149,57.043 14.5082149,56.882 C11.9032149,54.975 11.3452149,51.376 21.0482149,36.12 C30.4332149,21.367 52.5792149,12.557 60.3312149,12.557 C61.7992149,12.557 62.7522149,12.873 63.0032149,13.524 C64.5842149,17.615 55.0722149,20.794 55.0722149,20.794 C28.5742149,33.633 19.1762149,51.867 19.1762149,51.867 C19.1762149,51.867 17.1142149,57.115 15.1792149,57.115" id="Fill-364" fill="#ED9DA8"></path>
                <path d="M10.6242149,71.532 C10.0462149,71.532 9.42021489,71.354 8.75121489,70.934 C5.04521489,68.607 8.40921489,61.299 11.6062149,61.299 C11.8602149,61.299 12.1122149,61.345 12.3602149,61.443 C15.7332149,62.776 15.1832149,66.071 15.1832149,66.071 C15.2062149,67.112 13.5042149,71.532 10.6242149,71.532" id="Fill-365" fill="#ED9DA8"></path>
                <path d="M100.983215,24.894 C100.339215,26.026 98.9012149,26.421 97.7692149,25.779 L86.5402149,19.399 C85.4092149,18.756 85.0132149,17.318 85.6562149,16.186 C86.2982149,15.054 87.7382149,14.658 88.8692149,15.301 L100.098215,21.681 C101.229215,22.324 101.625215,23.762 100.983215,24.894" id="Fill-366" fill="#FFFFFE"></path>
                <path d="M48.1852149,119.571 C49.3172149,120.214 49.7132149,121.653 49.0702149,122.785 L42.6902149,134.013 C42.0472149,135.145 40.6092149,135.54 39.4772149,134.898 C38.3452149,134.255 37.9492149,132.816 38.5922149,131.685 L44.9722149,120.456 C45.6152149,119.324 47.0532149,118.928 48.1852149,119.571" id="Fill-367" fill="#FFFFFE"></path>
                <path d="M119.413215,44.203 C120.544215,44.846 120.941215,46.285 120.297215,47.416 L113.918215,58.645 C113.275215,59.777 111.836215,60.172 110.705215,59.53 C109.573215,58.887 109.177215,57.448 109.820215,56.317 L116.200215,45.087 C116.842215,43.956 118.281215,43.56 119.413215,44.203" id="Fill-368" fill="#FFFFFE"></path>
                <path d="M55.5172149,30.482 C56.1602149,29.35 57.5992149,28.954 58.7302149,29.597 L69.9592149,35.977 C71.0912149,36.62 71.4872149,38.058 70.8442149,39.19 C70.2012149,40.322 68.7622149,40.718 67.6302149,40.075 L56.4022149,33.695 C55.2702149,33.052 54.8742149,31.614 55.5172149,30.482" id="Fill-369" fill="#FAD725"></path>
                <path d="M131.527215,60.038 C132.170215,58.906 133.609215,58.509 134.741215,59.153 L145.969215,65.533 C147.101215,66.175 147.497215,67.614 146.854215,68.746 C146.211215,69.877 144.772215,70.274 143.641215,69.63 L132.412215,63.25 C131.280215,62.608 130.884215,61.169 131.527215,60.038" id="Fill-370" fill="#FAD725"></path>
                <path d="M85.6562149,126.205 C86.2982149,125.073 87.7382149,124.677 88.8692149,125.32 L100.098215,131.7 C101.229215,132.342 101.625215,133.782 100.983215,134.913 C100.339215,136.044 98.9012149,136.441 97.7692149,135.797 L86.5402149,129.417 C85.4092149,128.775 85.0132149,127.336 85.6562149,126.205" id="Fill-371" fill="#FAD725"></path>
                <path d="M52.9752149,51.844 C52.3322149,52.975 50.8932149,53.372 49.7622149,52.729 L38.5332149,46.349 C37.4012149,45.706 37.0052149,44.267 37.6482149,43.135 C38.2912149,42.004 39.7302149,41.608 40.8622149,42.25 L52.0902149,48.63 C53.2222149,49.274 53.6182149,50.712 52.9752149,51.844" id="Fill-372" fill="#79A841"></path>
                <path d="M130.694215,82.542 C130.050215,83.674 128.612215,84.071 127.480215,83.427 L116.251215,77.048 C115.120215,76.405 114.724215,74.966 115.367215,73.834 C116.010215,72.703 117.449215,72.307 118.581215,72.95 L129.809215,79.33 C130.941215,79.972 131.336215,81.412 130.694215,82.542" id="Fill-373" fill="#79A841"></path>
                <path d="M80.3222149,128.443 C81.4542149,129.085 81.8492149,130.524 81.2062149,131.656 L74.8272149,142.884 C74.1842149,144.016 72.7452149,144.413 71.6142149,143.769 C70.4822149,143.126 70.0852149,141.688 70.7292149,140.556 L77.1082149,129.328 C77.7512149,128.196 79.1902149,127.799 80.3222149,128.443" id="Fill-374" fill="#79A841"></path>
                <path d="M115.841215,24.556 C116.973215,25.199 117.369215,26.637 116.726215,27.769 L110.346215,38.998 C109.704215,40.129 108.264215,40.526 107.133215,39.882 C106.001215,39.24 105.605215,37.801 106.248215,36.669 L112.628215,25.441 C113.271215,24.309 114.709215,23.913 115.841215,24.556" id="Fill-375" fill="#79A841"></path>
                <path d="M32.3522149,62.554 C33.4842149,63.197 33.8802149,64.635 33.2372149,65.767 L26.8582149,76.996 C26.2142149,78.127 24.7762149,78.524 23.6442149,77.88 C22.5122149,77.238 22.1172149,75.799 22.7592149,74.667 L29.1392149,63.439 C29.7822149,62.307 31.2202149,61.911 32.3522149,62.554" id="Fill-376" fill="#FFFFFE"></path>
            </g>
        </g>
    </g>
</svg>