<?xml version="1.0" encoding="UTF-8"?>
<svg width="65px" height="65px" viewBox="0 0 65 65" version="1.1" xmlns="http://www.w3.org/2000/svg" xmlns:xlink="http://www.w3.org/1999/xlink">
    <title>Group 2</title>
    <g id="Page-1" stroke="none" stroke-width="1" fill="none" fill-rule="evenodd">
        <g id="web1" transform="translate(-432.000000, -1158.000000)">
            <g id="Group-2" transform="translate(432.408000, 1158.560000)">
                <path d="M64,31.9941456 C64,34.0626906 61.6182461,35.8580315 61.2328333,37.809489 C60.8347359,39.8194902 62.3383339,42.3954141 61.5714111,44.2492987 C60.7908281,46.1226979 57.9007196,46.8837663 56.780583,48.5522625 C55.6526406,50.2402732 56.0556165,53.1967313 54.6271497,54.6212953 C53.1986828,56.0556165 50.2402732,55.6458105 48.5561654,56.7776558 C46.8837663,57.8997439 46.129528,60.787901 44.2492987,61.568484 C43.2423466,61.9880473 42.0207342,61.7343578 40.7922917,61.4709111 C39.7648494,61.2562508 38.7315526,61.0513477 37.8163191,61.2269789 C35.8658373,61.6172704 34.0626906,63.9980485 32,63.9980485 C29.9363337,63.9980485 28.1341627,61.6172704 26.1836809,61.2269789 C25.2674716,61.0415904 24.2331992,61.2562508 23.2047811,61.4709111 C21.9773143,61.7246006 20.7566776,61.9880473 19.7507013,61.568484 C17.8694963,60.787901 17.1162337,57.8997439 15.4438346,56.7776558 C13.7587511,55.6458105 10.8013172,56.0556165 9.37285035,54.6212953 C7.94340773,53.1967313 8.34638371,50.2402732 7.219417,48.5522625 C6.0992804,46.8837663 3.20819612,46.1226979 2.42761312,44.2492987 C1.66166606,42.3954141 3.16526406,39.8194902 2.76814246,37.809489 C2.38175387,35.8580315 0,34.0626906 0,31.9941456 C0,29.935358 2.38175387,28.1302598 2.76814246,26.1788023 C3.16526406,24.1688011 1.66166606,21.5928772 2.42761312,19.7487498 C3.20917185,17.8655934 6.0992804,17.1142822 7.219417,15.4360288 C8.34638371,13.7577753 7.94340773,10.8013172 9.37285035,9.36699598 C10.8013172,7.942432 13.7587511,8.34248079 15.4438346,7.21063544 C17.1162337,6.09830467 17.8694963,3.20039029 19.7507013,2.41980729 C20.7566776,2.01000122 21.97829,2.26369069 23.2067325,2.51738017 C24.2351506,2.73204049 25.2674716,2.94670082 26.1836809,2.76131236 C28.1341627,2.38077814 29.9363337,0 32,0 C34.0626906,0 35.8658373,2.38077814 37.8172948,2.76131236 C38.7325284,2.94670082 39.7658251,2.73204049 40.7932675,2.51738017 C42.02171,2.26369069 43.2423466,2.01000122 44.2492987,2.41980729 C46.1305037,3.20039029 46.8837663,6.09830467 48.5561654,7.21063544 C50.2402732,8.34248079 53.1986828,7.942432 54.6271497,9.36699598 C56.0556165,10.8013172 55.6526406,13.7577753 56.7815587,15.4360288 C57.9007196,17.1142822 60.7908281,17.8655934 61.5714111,19.7487498 C62.3383339,21.5928772 60.8347359,24.1688011 61.2328333,26.1788023 C61.6182461,28.1302598 64,29.935358 64,31.9941456" id="Fill-528" fill="#F8C823"></path>
                <path d="M61.0454934,31.9941456 L60.0697646,31.9941456 C60.0697646,32.277107 59.9878034,32.5893402 59.8180266,32.9503598 C59.5672643,33.4870106 59.1203805,34.111477 58.6705696,34.7749726 C58.226613,35.4482254 57.7611904,36.180022 57.5758019,37.0874497 C57.5172582,37.3801683 57.4948164,37.6728869 57.4948164,37.9558483 C57.4967679,38.7461886 57.6597146,39.4877424 57.8011953,40.1805098 C57.9456031,40.8635199 58.0685449,41.4977436 58.0665935,41.985608 C58.0656178,42.2978412 58.0226857,42.5417734 57.9397487,42.7369191 C57.8372972,42.9906086 57.6450787,43.2442981 57.3504086,43.5077448 C56.9113307,43.9077936 56.2605196,44.3078424 55.586291,44.7566776 C54.9159654,45.2152702 54.2036834,45.7128918 53.6816685,46.4837175 C53.3372362,47.0008538 53.140139,47.5472619 52.9947555,48.09367 C52.7791194,48.9132821 52.672765,49.723137 52.5068911,50.3963898 C52.3468716,51.0696426 52.1283083,51.5770216 51.8482742,51.8404683 C51.66191,52.0258568 51.3896817,52.1917307 51.0159776,52.3283327 C50.4588364,52.5234785 49.7036224,52.6503232 48.9084035,52.8064398 C48.1141603,52.9723137 47.2613733,53.1674594 46.4837175,53.6748384 C45.9714599,54.0261007 45.579217,54.4651787 45.2396634,54.9042566 C44.7322844,55.5775095 44.3263813,56.2800342 43.9155995,56.8459568 C43.5067691,57.4118795 43.1125747,57.7924137 42.7427735,57.938773 C42.5437248,58.0168313 42.2978412,58.0656178 41.9895109,58.0656178 C41.4967679,58.0656178 40.8654714,57.938773 40.1795341,57.7924137 C39.4906696,57.6558117 38.74814,57.4899378 37.9577997,57.4899378 C37.6738627,57.4899378 37.3830955,57.5094524 37.0884254,57.5679961 C36.4864008,57.6948408 35.9614587,57.9485303 35.4794487,58.2217344 C34.7583852,58.651055 34.1144042,59.1486767 33.5201854,59.499939 C32.9240151,59.8707159 32.4107818,60.0658617 32,60.0658617 C31.7219173,60.0658617 31.4106598,59.9878034 31.0476887,59.8121722 C30.5042078,59.5584827 29.8865715,59.1194048 29.2172216,58.6705696 C28.5439688,58.2217344 27.8141237,57.7533846 26.9096231,57.5679961 C26.6159288,57.5094524 26.3251616,57.4899378 26.0412245,57.4899378 C25.2508843,57.4899378 24.5083547,57.6558117 23.8194902,57.7924137 C23.1345286,57.938773 22.5022564,58.0656178 22.0095134,58.0656178 C21.7011831,58.0656178 21.4552994,58.0168313 21.255275,57.938773 C21.0064642,57.8314429 20.7537505,57.6362971 20.4864008,57.3435785 C20.0844005,56.9045005 19.6843518,56.2605196 19.237468,55.5775095 C18.7837541,54.9140139 18.2832053,54.2017319 17.5153067,53.6748384 C16.9991462,53.3333333 16.4439566,53.1381876 15.9004757,52.9918283 C15.0847664,52.7771679 14.2749116,52.6698378 13.6016587,52.5039639 C12.9215758,52.33809 12.4239541,52.1234297 12.1517258,51.8404683 C11.9643859,51.6550799 11.8053421,51.3818758 11.6716673,51.0110989 C11.4687157,50.4549335 11.3477253,49.7036224 11.1896573,48.9035248 C11.0257348,48.1131845 10.8315648,47.2545432 10.3183315,46.4837175 C9.97292353,45.9665813 9.53579705,45.5762898 9.08988901,45.2347847 C8.41956336,44.7274058 7.71216002,44.3175997 7.15209172,43.9077936 C6.58519332,43.5077448 6.20758629,43.1076961 6.06025125,42.7369191 C5.97731431,42.5417734 5.93438224,42.2978412 5.93438224,41.985608 C5.93145506,41.4879863 6.05439688,40.8635199 6.19880473,40.1707525 C6.33930967,39.4877424 6.50225637,38.7461886 6.50420783,37.9558483 C6.50420783,37.6728869 6.48176607,37.3801683 6.42419807,37.0874497 C6.30320771,36.4824979 6.04951823,35.9556043 5.76850835,35.4774973 C5.34601781,34.755458 4.84937187,34.111477 4.4903037,33.5162825 C4.12440542,32.9210879 3.92438102,32.4039517 3.93023539,31.9941456 C3.92925967,31.7209416 4.01122088,31.4087084 4.18099768,31.0476887 C4.4327357,30.5012806 4.87961947,29.8768142 5.32943042,29.2133187 C5.773387,28.5400659 6.23880961,27.8082693 6.42419807,26.9008416 C6.48176607,26.6081229 6.50420783,26.3154043 6.50420783,26.032443 C6.50225637,25.2421027 6.33930967,24.5005488 6.19880473,23.8175387 C6.05439688,23.1247713 5.93145506,22.5003049 5.93340651,22.0026833 C5.93340651,21.7002073 5.97731431,21.4465179 6.06025125,21.2513721 C6.16270277,20.9976826 6.35492133,20.7439932 6.64959141,20.4805464 C7.08866935,20.0804976 7.74045615,19.6804488 8.41370899,19.2316136 C9.08403464,18.7827784 9.79631662,18.2753994 10.3183315,17.514331 C10.661788,16.9971948 10.8588852,16.4410294 11.0052445,15.8946213 C11.2199049,15.0847664 11.3262593,14.2749116 11.4911575,13.6016587 C11.6521527,12.9186486 11.8707159,12.421027 12.1517258,12.1478229 C12.33809,11.9624344 12.6103183,11.7965606 12.9840224,11.6697158 C13.5421393,11.4648128 14.2963776,11.3477253 15.0915965,11.1818514 C15.8858397,11.0257348 16.7386267,10.8305891 17.5162825,10.3134529 C18.0295158,9.9719478 18.420783,9.53286986 18.7613124,9.08403464 C19.2677156,8.4107818 19.6736187,7.7082571 20.0834248,7.15209172 C20.4922552,6.57641176 20.8854738,6.20563483 21.255275,6.05927552 C21.4562752,5.97145993 21.7011831,5.93243078 22.0095134,5.93243078 C22.5032321,5.9226735 23.1345286,6.04951823 23.8204659,6.19587755 C24.5093304,6.33247957 25.2528357,6.49835346 26.0422003,6.49835346 C26.3261373,6.49835346 26.6159288,6.47883888 26.9086474,6.42029516 L26.9105989,6.42029516 C27.5135992,6.30320771 28.039517,6.04951823 28.521527,5.7665569 C29.2425906,5.33723625 29.8865715,4.84937187 30.4807903,4.48835224 C31.0759849,4.11757531 31.5892182,3.92242956 32,3.92242956 C32.277107,3.92242956 32.5893402,4.01024515 32.9523113,4.17611904 C33.4957922,4.42980851 34.1144042,4.87864374 34.7827784,5.32747896 C35.4560312,5.7665569 36.1858763,6.2349067 37.0894011,6.42029516 C37.3840712,6.47883888 37.6738627,6.49835346 37.9577997,6.49835346 C38.74814,6.49835346 39.4906696,6.33247957 40.1795341,6.19587755 C40.8654714,6.04951823 41.4967679,5.9226735 41.9904866,5.93243078 C42.2978412,5.93243078 42.5437248,5.97145993 42.7427735,6.05927552 C42.9935358,6.1568484 43.2452738,6.35199415 43.5135992,6.64471277 C43.9155995,7.08379071 44.3146725,7.73752897 44.762532,8.4107818 C45.2152702,9.08403464 45.715819,9.79631662 46.4837175,10.3134529 C47.0008538,10.6549579 47.5560434,10.8501037 48.0995243,10.996463 C48.9152336,11.2208806 49.7250884,11.3184535 50.3983413,11.4843274 C51.0784242,11.6502012 51.5760459,11.8648616 51.8482742,12.1478229 C52.0346384,12.3332114 52.1936822,12.6064154 52.327357,12.9771923 C52.5303086,13.5333577 52.6512989,14.2944261 52.809367,15.0847664 C52.9742652,15.884864 53.1694109,16.733748 53.6826442,17.514331 C54.0270765,18.02171 54.4651787,18.4120015 54.9110867,18.7535065 C55.5814124,19.2608855 56.28784,19.6706915 56.8479083,20.0804976 C57.4148067,20.4903037 57.7924137,20.8805952 57.9397487,21.2513721 C58.0226857,21.4465179 58.0665935,21.7002073 58.0665935,22.0026833 C58.0685449,22.5003049 57.9456031,23.1247713 57.8011953,23.8175387 C57.6597146,24.5005488 57.4967679,25.2421027 57.4948164,26.032443 C57.4948164,26.3251616 57.5172582,26.6081229 57.5748262,26.9008416 C57.6958166,27.5057934 57.9504818,28.0326869 58.2305159,28.5205513 C58.6539822,29.2328333 59.1496524,29.8768142 59.5087206,30.4720088 C59.8746189,31.0672033 60.0746432,31.5843396 60.0697646,31.9941456 L62.0212221,31.9941456 C62.0202464,31.3404074 61.8319307,30.7452128 61.5850714,30.2183193 C61.212343,29.427979 60.7059397,28.7547262 60.2932065,28.1302598 C59.8746189,27.5057934 59.5672643,26.949628 59.4901817,26.5300646 C59.4609099,26.3837053 59.4462739,26.2178314 59.4462739,26.032443 C59.4443225,25.5348213 59.5672643,24.9005976 59.7116722,24.2078302 C59.8521771,23.5248201 60.0151238,22.7832663 60.0170753,22.0026833 C60.0170753,21.5148189 59.94975,21.0074399 59.7428955,20.500061 C59.4911575,19.8951092 59.0891572,19.4267594 58.661788,19.0364679 C58.0158556,18.4510306 57.2918649,18.0314673 56.6703256,17.6119039 C56.0458593,17.2020978 55.5443347,16.7922917 55.3043054,16.4215148 C55.1355043,16.1775826 54.9940237,15.8263203 54.8798634,15.3969996 C54.7061837,14.7432614 54.5988535,13.9529211 54.4037078,13.1333089 C54.2056348,12.3332114 53.9197463,11.4648128 53.2279546,10.7720454 C52.7664349,10.3036956 52.2161239,10.0207342 51.6745945,9.83534577 C50.8579095,9.54262715 50.0275643,9.4255397 49.2938163,9.2694231 C48.5590926,9.13282108 47.9395048,8.94743261 47.5687279,8.69374314 C47.32382,8.52786925 47.0613489,8.2546652 46.7930235,7.90340285 C46.3880961,7.37650933 45.9841444,6.67398463 45.4933528,6.0007318 C45.0015856,5.32747896 44.4024881,4.63471155 43.4911575,4.25417734 C42.9906086,4.0492743 42.4763996,3.98097329 41.9904866,3.98097329 C41.2069765,3.98097329 40.4693255,4.14684718 39.7824125,4.2834492 C39.0964752,4.42980851 38.4612758,4.54689596 37.9577997,4.54689596 C37.7763142,4.54689596 37.6133675,4.53713868 37.4679839,4.50786681 C37.186974,4.44932309 36.8444932,4.30296378 36.4629833,4.07854616 C35.8892548,3.74679839 35.2501525,3.25893402 34.5339676,2.81985608 C33.8187584,2.39053543 32.9932919,1.98072936 32,1.97097207 C31.3404074,1.97097207 30.7461886,2.16611782 30.2202708,2.41005001 C29.4299305,2.78082693 28.7557019,3.28820588 28.133187,3.70776924 C27.5145749,4.11757531 26.9545066,4.42980851 26.5310404,4.50786681 L26.5339676,4.50786681 C26.3876082,4.53713868 26.2236858,4.54689596 26.0422003,4.54689596 C25.5387242,4.54689596 24.9035248,4.42980851 24.2175875,4.2834492 C23.5296987,4.14684718 22.7920478,3.98097329 22.0095134,3.98097329 C21.5226247,3.98097329 21.0093914,4.0492743 20.5078668,4.25417734 C19.902915,4.50786681 19.4306623,4.9079156 19.0413465,5.33723625 C18.4598122,5.98121722 18.032443,6.70325649 17.6148311,7.32772289 C17.2030735,7.95218929 16.8010733,8.44981095 16.4302964,8.69374314 C16.1824613,8.85961703 15.8282717,9.00597634 15.3979754,9.1133065 C14.7520429,9.28893768 13.9538968,9.39626784 13.1430662,9.59141359 C12.3371143,9.78655934 11.4726186,10.079278 10.7720454,10.7720454 C10.3105257,11.2306379 10.0285401,11.777046 9.83437005,12.3234541 C9.54457861,13.1333089 9.42651543,13.9724357 9.27722893,14.7042322 C9.1337968,15.4360288 8.95133553,16.0507379 8.69667033,16.4215148 C8.53372362,16.6752043 8.26247103,16.9288938 7.9082815,17.2020978 C7.37846079,17.6119039 6.68081473,18.0119527 6.00365898,18.4998171 C5.33333333,18.9974387 4.64154165,19.5926332 4.25808025,20.500061 C4.0492743,21.0074399 3.98194902,21.5148189 3.98194902,22.0026833 C3.9848762,22.7832663 4.14684718,23.5248201 4.28832784,24.2078302 C4.4327357,24.9005976 4.55470179,25.5348213 4.55275034,26.032443 C4.55275034,26.2178314 4.5381144,26.3837053 4.50981827,26.5300646 C4.45517746,26.813026 4.30784242,27.154531 4.08342481,27.5350653 C3.75167703,28.1107452 3.26088547,28.7449689 2.82278327,29.4572509 C2.39248689,30.1792902 1.98365654,30.9989023 1.97780217,31.9941456 C1.9787779,32.6576412 2.16709355,33.2528357 2.41395292,33.7797292 C2.7866813,34.5603122 3.29406025,35.2433224 3.70679351,35.8580315 C4.12538114,36.4824979 4.4327357,37.0386633 4.50981827,37.4679839 C4.5381144,37.6045859 4.55275034,37.7704598 4.55275034,37.9558483 C4.55470179,38.4632272 4.4327357,39.0974509 4.28832784,39.780461 C4.14684718,40.4634712 3.9848762,41.205025 3.98194902,41.985608 C3.98194902,42.4734724 4.05025003,42.9906086 4.25808025,43.4882303 C4.50981827,44.0931821 4.91084279,44.5712892 5.33918771,44.9518234 C5.98414441,45.5372606 6.70911087,45.9665813 7.32967435,46.3763874 C7.95414075,46.7959507 8.45566533,47.1959995 8.69667033,47.5667764 C8.86449567,47.8107086 9.00597634,48.1717283 9.11916087,48.6010489 C9.29381632,49.2450299 9.40017075,50.0451275 9.5953165,50.8549823 C9.79338944,51.6550799 10.079278,52.5234785 10.7720454,53.2260032 C11.2335651,53.6845957 11.7838761,53.967557 12.3254055,54.1627028 C13.1420905,54.4456641 13.9724357,54.5725088 14.7061837,54.7188682 C15.4409074,54.8652275 16.0604952,55.0408586 16.4293206,55.2945481 C16.6752043,55.460422 16.9386511,55.7336261 17.2069765,56.0848884 C17.6119039,56.6215392 18.0148799,57.3143066 18.5056714,57.9875595 C18.9984144,58.6608123 19.5975119,59.3535797 20.5088425,59.7341139 C21.0103671,59.9487742 21.5226247,60.0170753 22.0095134,60.0170753 C22.7920478,60.007318 23.5296987,59.8512014 24.2166118,59.7048421 C24.9025491,59.5584827 25.5367728,59.4413953 26.0412245,59.4413953 C26.2217344,59.4413953 26.3846811,59.4609099 26.5300646,59.4804244 C26.813026,59.5389682 27.1564825,59.6853275 27.5370167,59.9097451 C28.1107452,60.2414929 28.7498475,60.7293572 29.4660324,61.1684352 C30.1812416,61.5977558 31.0057324,62.0075619 32,62.0173192 C32.6586169,62.0173192 33.2538114,61.8319307 33.7797292,61.5782412 C34.5700695,61.2074643 35.2442981,60.7000854 35.866813,60.2902793 C36.4854251,59.8707159 37.0464691,59.5584827 37.4689596,59.4804244 C37.6143432,59.4511526 37.7772899,59.4413953 37.9577997,59.4413953 C38.4612758,59.4413953 39.0964752,59.5584827 39.7824125,59.7048421 C40.4693255,59.8512014 41.2069765,60.007318 41.9895109,60.0170753 C42.4763996,60.0170753 42.9896329,59.9487742 43.4911575,59.7341139 C44.0961093,59.4901817 44.568362,59.0803757 44.9576778,58.6608123 C45.5392121,58.0168313 45.9665813,57.2850348 46.3841932,56.6703256 C46.7959507,56.0458593 47.1999024,55.5384803 47.5697036,55.2945481 C47.8185145,55.1286742 48.1717283,54.9920722 48.6030004,54.8749848 C49.2489328,54.6993536 50.0461032,54.5920234 50.8579095,54.3968777 C51.6628857,54.2017319 52.5283571,53.9187706 53.2279546,53.2260032 C53.6894743,52.7576534 53.9704842,52.2112453 54.1646542,51.6648372 C54.4534699,50.8549823 54.5715331,50.0256129 54.7217953,49.2938163 C54.8662032,48.5522625 55.0486645,47.9375534 55.3033297,47.5667764 C55.4662764,47.3228442 55.737529,47.0593975 56.0917185,46.7861934 C56.6215392,46.3861447 57.3182095,45.9763386 57.996341,45.4884742 C58.6666667,45.0006098 59.3584583,44.395658 59.7428955,43.4882303 C59.94975,42.9906086 60.0170753,42.4734724 60.0170753,41.985608 C60.0151238,41.205025 59.8521771,40.4634712 59.7116722,39.780461 C59.5672643,39.0974509 59.4443225,38.4534699 59.4462739,37.9558483 C59.4462739,37.7704598 59.4609099,37.6045859 59.4901817,37.4679839 C59.5438468,37.1850226 59.6921576,36.8435175 59.9155995,36.453226 C60.248323,35.8873033 60.7381388,35.2433224 61.176241,34.5310404 C61.6075131,33.8187584 62.0153677,32.9893889 62.0212221,31.9941456 L61.0454934,31.9941456" id="Fill-529" fill="#FFFFFE"></path>
                <path d="M42.9584096,26.1105013 C39.8243688,24.0517136 36.4932309,23.827296 35.2062447,23.827296 C35.0364679,23.827296 34.9164532,23.827296 34.8510794,23.827296 L28.4434687,23.827296 C28.2902793,23.827296 28.1575802,23.827296 28.0482986,23.827296 C27.9116965,23.827296 27.8053421,23.827296 27.7350896,23.827296 C27.6658129,23.827296 27.5584827,23.827296 27.4218807,23.827296 C26.1339188,23.827296 22.8018051,24.0419563 19.6687401,26.1105013 C16.8762044,27.9546286 13.5460422,31.7989999 13.5382364,39.6536163 C13.5196975,40.1609952 13.4757897,43.7614343 15.7931455,46.2007562 C17.183559,47.6741066 19.0852543,48.4156604 21.4416392,48.4156604 L41.1855104,48.4156604 C43.5428711,48.4156604 45.442615,47.6741066 46.8349799,46.2007562 C49.1523357,43.7614343 49.1084279,40.1609952 49.089889,39.6536163 C49.0801317,31.7989999 45.7509452,27.9546286 42.9584096,26.1105013" id="Fill-530" fill="#FFFFFE"></path>
                <path d="M47.4799366,39.6828882 C47.4799366,24.6566654 34.89206,25.4372484 34.89206,25.4372484 L27.7350896,25.4372484 C27.7350896,25.4372484 15.1462373,24.6566654 15.1462373,39.6828882 C15.1462373,39.6828882 14.7559458,46.8154653 21.4406635,46.8154653 L41.1855104,46.8154653 C47.8702281,46.8154653 47.4799366,39.6828882 47.4799366,39.6828882" id="Fill-531" fill="#EC923C"></path>
                <path d="M40.3229662,39.6828882 C40.3229662,24.6566654 27.7350896,25.4372484 27.7350896,25.4372484 C27.7350896,25.4372484 15.1472131,24.6566654 15.1472131,39.6828882 C15.1472131,39.6828882 14.7559458,46.8154653 21.4406635,46.8154653 L24.241005,46.8154653 L23.0847664,45.7324064 L22.6739846,44.1126967 C22.6739846,44.1126967 24.4907916,46.8154653 27.3301622,46.8154653 L34.0285401,46.8154653 C40.7132577,46.8154653 40.3229662,39.6828882 40.3229662,39.6828882" id="Fill-532" fill="#763C2D"></path>
                <path d="M40.3229662,39.6828882 C40.3229662,24.6566654 27.7350896,25.4372484 27.7350896,25.4372484 C27.7350896,25.4372484 15.1472131,24.6566654 15.1472131,39.6828882 C15.1472131,39.6828882 14.7559458,46.8154653 21.4406635,46.8154653 L24.241005,46.8154653 L23.0847664,45.7324064 L22.6739846,44.1126967 C22.6739846,44.1126967 24.4907916,46.8154653 27.3301622,46.8154653 L34.0285401,46.8154653 C40.7132577,46.8154653 40.3229662,39.6828882 40.3229662,39.6828882" id="Fill-533" fill="#FFEFCE"></path>
                <path d="M40.3229662,39.6828882 L40.8108306,39.6828882 C40.8235151,32.7649713 38.1451397,28.9889011 35.1847786,27.0472009 C32.230272,25.1055007 29.0737895,24.9493841 28.0492743,24.9493841 C27.8355897,24.9493841 27.7136236,24.9493841 27.7038663,24.9493841 L27.7350896,25.4372484 L27.766313,24.9493841 C27.7575314,24.9493841 27.6345896,24.9493841 27.4218807,24.9493841 C26.3973655,24.9493841 23.240883,25.1055007 20.2863764,27.0472009 C17.3250396,28.9889011 14.6466642,32.7649713 14.658373,39.6828882 L15.1472131,39.6828882 L14.6603244,39.6633736 C14.6593487,39.6633736 14.6544701,39.7511892 14.6544701,39.9073058 C14.6573972,40.5415295 14.7296012,42.3368704 15.6145871,44.0346384 C16.0585437,44.8835224 16.7152092,45.7031345 17.6694719,46.3080864 C18.6247103,46.9227955 19.8677888,47.3033297 21.4406635,47.2937556 L25.4811562,47.2937556 L23.5228686,45.4787169 L23.1472131,43.9956092 L22.6749604,44.1126967 L22.2690572,44.3859007 C22.2866203,44.4054153 22.7627759,45.1176973 23.6253202,45.8397366 C24.4849372,46.5520185 25.7504574,47.2937556 27.3301622,47.2937556 L34.0285401,47.2937556 C35.6023905,47.3033297 36.845469,46.9227955 37.7997317,46.3080864 C39.2350287,45.4006586 39.9873155,44.0053665 40.3785828,42.7564337 C40.7708257,41.5075009 40.8147335,40.3854129 40.8157092,39.9073058 C40.8157092,39.7511892 40.8108306,39.6633736 40.8098549,39.6633736 L40.3229662,39.6828882 L40.8108306,39.6828882 L40.3229662,39.6828882 L39.8360776,39.71216 L39.838029,39.7609465 L39.8399805,39.9073058 C39.8419319,40.4634712 39.7580193,42.12221 38.9910965,43.5760459 C38.6076351,44.3078424 38.0631784,44.9908525 37.2767411,45.4884742 C36.4883522,45.9860959 35.4482254,46.3178436 34.0285401,46.3276009 L27.3301622,46.3276009 C26.0714721,46.3276009 25.0089035,45.7226491 24.2497866,45.0884254 C23.8721795,44.7664349 23.5745823,44.4542017 23.3745579,44.2200268 C23.2740578,44.1029394 23.1989267,44.0053665 23.1491645,43.9370655 L23.093548,43.8590072 L23.0789121,43.8394926 L21.5148189,41.5172582 L22.64764,45.9958532 L23.0018295,46.3276009 L21.4406635,46.3276009 C20.0209782,46.3178436 18.9808513,45.9860959 18.1934382,45.4884742 C17.0157336,44.7371631 16.3727284,43.5760459 16.0224418,42.4734724 C15.6731309,41.3611416 15.6292231,40.3171118 15.6301988,39.9073058 L15.6321503,39.7609465 L15.6341017,39.71216 L15.6350774,39.7024027 L15.6350774,39.6828882 C15.6467862,32.9991462 18.1339188,29.6523966 20.8230272,27.866813 C23.5189657,26.0812294 26.4998171,25.9153555 27.4218807,25.9251128 C27.5175021,25.9251128 27.5906818,25.9251128 27.6384925,25.9251128 L27.8326625,25.9251128 C27.881449,25.9251128 27.9536529,25.9251128 28.0492743,25.9251128 C28.971338,25.9153555 31.9512136,26.0812294 34.6481278,27.866813 C37.3372362,29.6523966 39.8233931,32.9991462 39.8351018,39.6828882 L39.8351018,39.7024027 L39.8360776,39.71216 L40.3229662,39.6828882" id="Fill-534" fill="#FFEFCE"></path>
                <path d="M36.5127455,38.1022076 C36.8142456,34.2578363 34.2851567,29.6523966 29.6758141,28.9303574 C26.8403464,28.4815221 24.0243932,29.3694353 21.9470667,31.3696792 C19.7477741,33.4772533 18.6452006,36.5312843 18.9974387,39.5267716 C19.3730943,42.7174046 20.6386145,45.1176973 21.9343822,46.8154653 L24.7386267,46.8154653 C23.3608977,45.4299305 21.5265276,42.9613367 21.0933041,39.2828394 C20.8171728,36.9410904 21.68362,34.5505549 23.4096841,32.8820588 C25.0293938,31.3306501 27.1389194,30.6671545 29.3479693,31.0086596 C32.7669228,31.5453104 34.6373948,35.028662 34.4090743,37.9363337 C34.3261373,38.999878 33.8031467,41.4684718 30.7452128,41.4684718 C28.8971826,41.4684718 27.6414197,40.8732772 27.1155019,39.7609465 C26.6139773,38.7071594 26.8696182,37.3996829 27.4052933,36.7459446 C27.5428711,36.5800707 27.7497256,36.384925 27.960483,36.4434687 C28.5244542,36.5800707 29.0981827,36.2385657 29.2396634,35.672643 C29.381144,35.1067203 29.0376875,34.5407977 28.4727406,34.3944383 C27.4872545,34.1505062 26.50372,34.5212831 25.7738749,35.4091962 C24.8108306,36.5800707 24.3073546,38.7657031 25.2079522,40.6683742 C25.7221612,41.7514331 27.1242834,43.5760459 30.7452128,43.5760459 C33.9895109,43.5760459 36.2522259,41.4294426 36.5127455,38.1022076" id="Fill-535" fill="#EC923C"></path>
                <path d="M40.8254665,31.6623979 L40.7600927,31.6623979 C40.2253933,31.6526406 39.71216,31.3599219 39.4360288,30.8623003 C39.0223198,30.1109891 39.2955238,29.1742895 40.0439078,28.7547262 C40.2810099,28.6278814 40.5376265,28.5595804 40.7903403,28.5595804 C41.3367484,28.5595804 41.8655934,28.8522991 42.1485547,29.3694353 C42.2714965,29.5840956 42.3339432,29.8280278 42.3407733,30.07196 L42.3407733,30.1500183 C42.3261373,30.6866691 42.0382974,31.1940481 41.5397,31.4672521 C41.3123552,31.5940968 41.0674472,31.6526406 40.8254665,31.6623979" id="Fill-536" fill="#F9C94A"></path>
                <path d="M43.5457983,32.5405537 C43.3243078,32.5405537 43.1096475,32.4234663 42.9954873,32.2185632 C42.9437736,32.1209904 42.9184047,32.0234175 42.917429,31.9160873 L42.917429,31.90633 C42.9193804,31.6916697 43.0364679,31.4770094 43.2423466,31.3599219 C43.3340651,31.3111355 43.4335895,31.2818636 43.5311623,31.2818636 L43.5584827,31.2818636 C43.7750945,31.2916209 43.9839005,31.4087084 44.0961093,31.6038541 C44.2619832,31.9160873 44.1527015,32.2966215 43.8492499,32.4624954 C43.7526528,32.5112819 43.6482498,32.5405537 43.5457983,32.5405537" id="Fill-538" fill="#F9C94A"></path>
                <path d="M16.6156848,21.485547 C16.7074033,21.5343335 16.7776558,21.6123918 16.8225393,21.7099646 C16.8557141,21.7880229 16.874253,21.8660812 16.8791316,21.9636541 C16.8820588,22.0514697 16.8840102,22.1587999 16.8820588,22.26613 C16.8635199,22.7930235 16.7376509,23.2613733 16.4995731,23.690694 C16.2644225,24.1200146 15.8994999,24.4420051 15.402854,24.6664227 L15.2945481,24.7152092 L15.2077083,24.744481 L15.2135626,24.7347237 C14.9706062,24.812782 14.7432614,24.8615685 14.5295768,24.8908403 C14.3168679,24.9103549 14.1217222,24.9201122 13.9480424,24.9298695 L13.9548725,24.9298695 C13.8699841,24.9396268 13.7714355,24.9396268 13.6660568,24.9201122 C13.5597024,24.9103549 13.4504208,24.8713258 13.3421149,24.8322966 C13.2328333,24.7835102 13.1264788,24.7347237 13.0269545,24.6664227 C12.9254787,24.5981217 12.8396146,24.5298207 12.7683864,24.4517624 L12.7742408,24.4615197 C12.6464203,24.3444322 12.5273814,24.1980729 12.4161483,24.0224418 C12.3068667,23.8565679 12.2063666,23.6711794 12.118551,23.4662764 C11.9780461,23.1540432 11.8609587,22.7930235 11.7702159,22.3734602 C11.6775216,21.9636541 11.6180022,21.5343335 11.5906818,21.0757409 C11.5614099,20.6269057 11.5692158,20.1780705 11.6092206,19.7292353 C11.6492255,19.2804 11.7292353,18.8608367 11.8472985,18.4705452 C11.9673131,18.0704964 12.1312355,17.7289913 12.3400415,17.4362727 C12.5478717,17.1435541 12.8054641,16.9191365 13.1157458,16.7825345 L13.1928284,16.7532626 L13.2816197,16.7239907 L13.2718624,16.7239907 C13.4074887,16.6849616 13.5528723,16.6459324 13.7070374,16.6166606 C13.8582754,16.5776314 14.0114648,16.5581168 14.1597756,16.5483596 C14.3090621,16.5386023 14.4563971,16.5386023 14.5988535,16.5483596 C14.7413099,16.5483596 14.8681547,16.5678741 14.9793877,16.597146 C15.266252,16.6752043 15.4779851,16.7825345 15.6184901,16.9288938 C15.7580193,17.0752531 15.8751067,17.2606415 15.9687767,17.4655446 C16.0204903,17.582632 16.068301,17.7094768 16.1161117,17.8460788 C16.1658739,17.9826808 16.208806,18.1192828 16.2449079,18.2558849 C16.2819856,18.3924869 16.3122332,18.5290889 16.3385779,18.6656909 C16.3649226,18.7925357 16.3785828,18.9193804 16.3854129,19.0267106 L16.3746798,19.0657397 C16.3834614,19.1730699 16.3766313,19.2511282 16.3541895,19.3194292 C16.3327235,19.3877302 16.2536895,19.4560312 16.1219661,19.5145749 L16.0351262,19.5536041 L15.9277961,19.582876 C15.737529,19.6219051 15.5687279,19.6414197 15.4233443,19.6316624 C15.2779607,19.6316624 15.1491645,19.6023905 15.0330528,19.5536041 C14.9179168,19.4950604 14.8135138,19.4267594 14.7237468,19.3291865 C14.6300768,19.2316136 14.5442127,19.1145262 14.464203,18.9779241 C14.4212709,18.8803513 14.3802903,18.7827784 14.3432126,18.6754482 C14.3071106,18.5778754 14.2719844,18.4803025 14.2368582,18.4022442 L14.150994,18.2558849 L14.050494,18.1778266 C13.9743871,18.2168557 13.9090133,18.3339432 13.8504696,18.5388462 C13.7909501,18.7437492 13.7460666,18.9779241 13.7099646,19.2511282 C13.6748384,19.5243322 13.6523966,19.8268081 13.6436151,20.1292841 C13.6319063,20.4415173 13.636785,20.7244786 13.6553238,20.9976826 C13.6845957,21.3294304 13.7353336,21.6611782 13.8124161,21.992926 C13.8904744,22.3149165 13.9773143,22.5881205 14.0787901,22.8125381 C14.1461154,22.9686547 14.2153921,23.0857422 14.2846689,23.1735578 C14.3558971,23.2613733 14.4271253,23.3101598 14.5012806,23.3004025 L14.5315282,23.2906452 C14.6915477,23.2223442 14.8642517,22.910111 15.0476887,22.3637029 C15.1852665,21.9831687 15.4204171,21.7197219 15.7580193,21.5636053 L15.9863398,21.485547 C16.0673253,21.4660324 16.1531894,21.4562752 16.2488108,21.4367606 C16.4000488,21.4270033 16.5220149,21.4367606 16.6156848,21.485547" id="Fill-540" fill="#FFFFFE"></path>
                <path d="M21.2933285,13.5040859 C21.212343,13.543115 21.1489206,13.6504452 21.1001342,13.8260764 C21.0513477,14.0017075 21.0162215,14.2163678 20.9947555,14.4700573 C20.9723137,14.7139895 20.9664593,14.9871936 20.9742652,15.2701549 C20.9830467,15.5628735 21.0025613,15.8360776 21.0308574,16.089767 C21.0698866,16.4117575 21.1342847,16.733748 21.2260032,17.0557385 C21.3147945,17.3874863 21.4211489,17.6704476 21.5450665,17.9143798 C21.636785,18.090011 21.7285035,18.226613 21.8241249,18.3241859 C21.920722,18.4217588 22.0095134,18.4510306 22.0953775,18.4120015 C22.1753872,18.363215 22.2407611,18.2656422 22.2895475,18.1095256 C22.3383339,17.953409 22.3724844,17.7485059 22.3910233,17.514331 C22.4105379,17.2801561 22.4115136,17.0167094 22.3929748,16.7239907 C22.3754116,16.4312721 22.3383339,16.1190389 22.2836931,15.8068057 C22.2271009,15.4945725 22.1480668,15.1823393 22.0495182,14.8603488 C21.9499939,14.5481156 21.8299793,14.2456397 21.6884986,13.9724357 C21.6123918,13.8260764 21.5392121,13.7089889 21.4738383,13.6211733 L21.3011343,13.4943286 L21.2933285,13.5040859 Z M22.5617758,12.0990365 C22.6974021,12.1770948 22.8203439,12.2746676 22.9296256,12.3819978 C23.0398829,12.4990853 23.1413587,12.62593 23.2330772,12.7722893 C23.3257714,12.9186486 23.4145628,13.0747652 23.5033541,13.2406391 C23.6477619,13.5236004 23.7833882,13.8553482 23.9141359,14.2358824 C24.0439078,14.6066593 24.1492865,15.0067081 24.2322234,15.4165142 C24.3141847,15.8360776 24.3649226,16.2556409 24.3834614,16.6752043 C24.4020002,17.1045249 24.3717527,17.5045737 24.2956458,17.8753507 C24.2185632,18.2558849 24.0848884,18.5973899 23.8975485,18.8998658 C23.7102086,19.2023417 23.449689,19.4365166 23.1198927,19.6023905 C23.0076839,19.6609343 22.8944993,19.7097207 22.7754604,19.7487498 L22.7832663,19.7487498 C22.082693,20.0219539 21.4679839,20.0707403 20.9430418,19.8755946 C20.417124,19.6902061 19.9663374,19.2218563 19.5897061,18.4900598 C19.3974875,18.1192828 19.2403952,17.6997195 19.122332,17.2508843 C19.0052445,16.7922917 18.9330406,16.3239419 18.9047445,15.8458349 C18.8774241,15.3677278 18.8998658,14.8896207 18.9740212,14.4115136 C19.0472009,13.9334065 19.1779485,13.4943286 19.3662642,13.0845225 C19.4609099,12.8893768 19.5877546,12.7137456 19.7507013,12.5478717 C19.9126723,12.3819978 20.0844005,12.2551531 20.2658861,12.1673375 C20.4005367,12.0892792 20.5507989,12.0307355 20.7147213,11.9917063 C20.8796195,11.9429199 21.0435419,11.913648 21.2084401,11.8941334 C21.3733382,11.8746189 21.5333577,11.8648616 21.6865471,11.8746189 C21.8407123,11.8746189 21.9743871,11.8941334 22.0885474,11.913648 C22.2680815,11.9526772 22.4271253,12.0209782 22.5617758,12.0990365 L22.5617758,12.0990365 Z" id="Fill-541" fill="#FFFFFE"></path>
                <path d="M31.6877668,17.5240883 C31.4067569,17.9143798 31.0584218,18.158312 30.6456885,18.2558849 C30.2319795,18.363215 29.7538724,18.3437005 29.2103915,18.2070984 C29.0025613,18.158312 28.8142456,18.090011 28.6464203,18.0021954 C28.4795707,17.9143798 28.3195512,17.7972924 28.1673375,17.6704476 C27.9175509,17.4070009 27.7145993,17.0557385 27.5604342,16.6166606 C27.4062691,16.1775826 27.2891816,15.6702037 27.2091719,15.0847664 C27.1281864,14.4993292 27.0764727,13.8455909 27.0530553,13.1235517 C27.028662,12.4015124 27.017929,11.6306867 27.0237834,10.8013172 L27.0237834,10.6647152 L27.0442737,10.5378705 C27.0667155,10.4500549 27.1086718,10.3719966 27.169167,10.3134529 C27.2296622,10.2549091 27.3301622,10.2061227 27.4706672,10.1573363 C27.5692158,10.1280644 27.6765459,10.0987925 27.7916819,10.0695207 C27.9058422,10.0402488 28.0200024,10.0109769 28.1312355,9.99146237 C28.2444201,9.9719478 28.3517502,9.96219051 28.4551775,9.95243322 C28.5586047,9.95243322 28.6512989,9.95243322 28.7332602,9.98170509 C28.8542505,10.0109769 28.9488962,10.0597634 29.0201244,10.147579 C29.0894011,10.2256373 29.1196487,10.3427247 29.1098915,10.5085986 L29.1059885,10.489084 C29.1030613,10.8013172 29.1040371,11.1818514 29.1069643,11.6014148 C29.1098915,12.0307355 29.1206245,12.4698134 29.1372119,12.9284059 C29.1518478,13.3869984 29.1772167,13.8358336 29.2094158,14.2846689 C29.2425906,14.7335041 29.2855226,15.1335529 29.3401634,15.4945725 C29.3928528,15.8555921 29.4631053,16.1580681 29.5479937,16.3824857 C29.6328821,16.6166606 29.7363093,16.7532626 29.8572997,16.7825345 L30.0007318,16.6947189 C30.0407367,16.6264179 30.0768386,16.528845 30.1070862,16.4020002 C30.1666057,16.1580681 30.1997805,15.8458349 30.2066106,15.4750579 C30.2134407,15.104281 30.2036834,14.7042322 30.176363,14.2846689 C30.1490426,13.8651055 30.1139163,13.4357849 30.0680571,13.0162215 C30.0221978,12.5966581 29.9753628,12.2161239 29.9256007,11.8746189 L29.9314551,11.8843761 C29.9119405,11.7477741 29.9148677,11.6306867 29.9402366,11.5331138 C29.9753628,11.3867545 30.0582998,11.2599097 30.1890474,11.1525796 C30.3197951,11.0452494 30.4690816,10.9574338 30.6369069,10.8891328 C30.8047323,10.8208318 30.9764605,10.7818027 31.1520917,10.7622881 C31.3286986,10.7427735 31.4828638,10.7427735 31.6145871,10.7818027 C31.7248445,10.8013172 31.8068057,10.859861 31.8614465,10.928162 C31.9151116,11.0062203 31.953165,11.1135504 31.9756068,11.2599097 C32.0400049,11.6892304 32.0956214,12.1380656 32.1463593,12.6161727 C32.1951457,13.0845225 32.2312477,13.5626296 32.2527137,14.0309794 C32.2741798,14.4993292 32.273204,14.9579217 32.2497866,15.3872423 C32.2273448,15.8360776 32.1717283,16.2263691 32.0858641,16.5776314 C31.9921942,16.9581656 31.8604708,17.2801561 31.6877668,17.5240883" id="Fill-542" fill="#FFFFFE"></path>
                <path d="M37.9685327,13.0747652 C37.9392609,13.338212 37.909989,13.6309306 37.8797414,13.9334065 C38.1461154,13.7480181 38.3754116,13.5626296 38.5676302,13.3577266 C38.7608245,13.1625808 38.9159654,12.9771923 39.0350043,12.7918039 C39.1530674,12.6161727 39.2369801,12.4502988 39.2857666,12.2941822 C39.3355287,12.1478229 39.3482132,12.0112209 39.3247957,11.913648 L39.3247957,11.8746189 L39.3033297,11.8355897 L39.2047811,11.8160751 C39.1559946,11.8258324 39.0818392,11.8355897 38.9832906,11.8551043 C38.8564459,11.8843761 38.7110623,11.9331626 38.5481156,12.0112209 C38.3851689,12.0795219 38.2212465,12.1770948 38.0563483,12.2941822 C38.0270765,12.5381144 37.9968289,12.8015612 37.9685327,13.0747652 M40.1395292,14.050494 C39.298451,14.7920478 37.7187462,15.8555921 37.7060617,16.0800098 C37.6865471,16.4312721 37.6680083,16.7727772 37.6484937,17.1142822 C37.6289791,17.44603 37.6162947,17.7875351 37.6104403,18.1192828 C37.5850714,18.2363703 37.5528723,18.3339432 37.5099402,18.4022442 C37.4670082,18.4607879 37.3879741,18.5095743 37.2718624,18.5388462 L37.0513477,18.5583608 L36.62593,18.5193316 C36.4834736,18.5095743 36.3546774,18.4803025 36.2395414,18.4412733 C36.1234297,18.4022442 36.0239054,18.3437005 35.9409684,18.2753994 C35.8570557,18.1973411 35.8004635,18.090011 35.7692402,17.953409 C35.7507013,17.8753507 35.7487498,17.7582632 35.7624101,17.6216612 C35.8033907,17.4655446 35.8268081,17.2216124 35.8336382,16.8801073 C35.8404683,16.5386023 35.8404683,16.1580681 35.8336382,15.7287474 C35.8258324,15.2994268 35.8160751,14.8505915 35.8053421,14.391999 C35.7936334,13.9334065 35.7887547,13.5040859 35.7897305,13.1137944 C35.7897305,12.7137456 35.8024149,12.3819978 35.8277839,12.1087938 C35.8521771,11.8355897 35.8960849,11.6697158 35.9585315,11.6111721 C36.14392,11.4648128 36.3468716,11.2989389 36.5673863,11.1428223 C37.8709599,10.1768508 39.9570679,9.22063666 40.8674229,11.2501525 C41.3006464,12.2258812 40.9015734,13.3772411 40.1395292,14.050494" id="Fill-543" fill="#FFFFFE"></path>
                <path d="M44.7615563,14.5773875 L44.5995853,14.6749604 C44.53226,14.7432614 44.4581046,14.8505915 44.3751677,14.9774363 C44.2249055,15.2116112 44.0902549,15.4750579 43.9721917,15.748262 C43.8551043,16.0312233 43.7555799,16.3044274 43.6755702,16.5776314 C43.5965362,16.8605928 43.5340895,17.1240395 43.489206,17.3874863 C43.4443225,17.650933 43.4189535,17.8948652 43.4130992,18.0997683 C43.4062691,18.3144286 43.4170021,18.4900598 43.4443225,18.6364191 C43.4716429,18.7827784 43.5194536,18.8803513 43.5848274,18.9193804 C43.6560556,18.9584096 43.7380168,18.9486523 43.8307111,18.8608367 C43.9253568,18.7730211 44.0200024,18.6559337 44.1156239,18.5095743 C44.2473472,18.3046713 44.3693133,18.0509818 44.4795707,17.7680205 C44.5908038,17.4850592 44.6786193,17.2020978 44.7439932,16.9093792 C44.7957068,16.6849616 44.8396146,16.4410294 44.8747408,16.1873399 C44.9098671,15.9238932 44.9293816,15.6897183 44.935236,15.4653006 C44.9410904,15.240883 44.9303574,15.0457373 44.9049884,14.8798634 C44.8805952,14.7237468 44.8347359,14.6164166 44.7674107,14.5773875 L44.7615563,14.5773875 Z M44.2268569,13.1040371 C44.3293085,13.0942798 44.4473716,13.0845225 44.5829979,13.0942798 C44.7186242,13.1040371 44.8571777,13.1235517 45.0006098,13.1430662 C45.1430662,13.1723381 45.2845469,13.2113672 45.4231004,13.2601537 C45.5616539,13.3186974 45.6875229,13.3772411 45.7987559,13.4455421 C45.9490182,13.543115 46.0856202,13.6699598 46.2114892,13.8260764 C46.3383339,13.9919502 46.4329796,14.1578241 46.4973777,14.3334553 C46.6212953,14.7139895 46.6925235,15.1140383 46.7100866,15.5433589 C46.7286254,15.9726796 46.701305,16.4117575 46.6310526,16.8313209 C46.5598244,17.2606415 46.449567,17.6802049 46.302232,18.0704964 C46.1548969,18.4705452 45.9773143,18.8315648 45.7714355,19.1633126 C45.3713868,19.787779 44.9303574,20.1780705 44.4522503,20.3146725 C43.9721917,20.4415173 43.4394438,20.363459 42.8510794,20.0707403 L42.8579095,20.0804976 C42.7583852,20.0317112 42.6637395,19.9829247 42.572021,19.924381 C42.2978412,19.7487498 42.0939139,19.5243322 41.9592633,19.2413709 C41.8246128,18.9584096 41.7416758,18.6461764 41.7114282,18.3046713 C41.6802049,17.9631662 41.6938651,17.6021466 41.7514331,17.2216124 C41.8080254,16.8410782 41.8938895,16.4703013 42.0060983,16.0995243 C42.1192828,15.7385047 42.2500305,15.3872423 42.4012684,15.0652519 C42.5525064,14.7335041 42.7047201,14.4505427 42.8579095,14.2066106 C42.9515795,14.0602513 43.0452494,13.9236492 43.1408708,13.7968045 C43.2355165,13.679717 43.3369923,13.5723869 43.4433467,13.474814 C43.5506769,13.3772411 43.6677644,13.2991828 43.7946091,13.2406391 C43.9214538,13.1723381 44.0658617,13.1333089 44.2268569,13.1040371 L44.2268569,13.1040371 Z" id="Fill-544" fill="#FFFFFE"></path>
                <path d="M50.31638,19.8755946 C50.3388218,20.0024393 50.3622393,20.1292841 50.3915112,20.2756434 C50.4178558,20.4220027 50.4481034,20.5781193 50.4822539,20.7439932 C50.5164044,20.9001098 50.5486035,21.0659837 50.582754,21.2318575 C50.6578851,20.8025369 50.7369191,20.3829735 50.8208318,19.9731675 C50.9037688,19.5731187 50.9867057,19.1925845 51.0706184,18.8510794 C51.1213563,18.6461764 51.2442981,18.5290889 51.4374924,18.5095743 L51.5184779,18.5095743 L51.625808,18.5193316 C51.6950848,18.5290889 51.7809489,18.5486035 51.8853519,18.5778754 C51.9897548,18.5973899 52.0931821,18.6266618 52.1956336,18.6754482 C52.2971094,18.7144774 52.3888279,18.7730211 52.4659105,18.8315648 C52.542993,18.8998658 52.5869008,18.9779241 52.5956824,19.075497 L52.5956824,19.1828272 L52.5712892,19.3096719 C52.5244542,19.5145749 52.4737163,19.7389926 52.4220027,19.9829247 C52.3702891,20.2366142 52.3156482,20.500061 52.2610074,20.773265 C52.2044152,21.0464691 52.1487986,21.3294304 52.0931821,21.622149 C52.039517,21.9051104 51.9868277,22.197829 51.9360898,22.4807903 C51.8843761,22.7637517 51.8355897,23.0369557 51.7868033,23.3004025 C51.7389926,23.5638492 51.6970362,23.8077814 51.6609343,24.0419563 L51.6658129,24.032199 C51.6414197,24.2371021 51.5204293,24.3541895 51.305769,24.3737041 C51.1642883,24.3834614 51.0218319,24.3737041 50.8783998,24.3444322 C50.7330162,24.3054031 50.5964142,24.2761312 50.4627394,24.2468594 C50.320283,24.1980729 50.1963654,24.0907428 50.0919624,23.9443835 C49.9865837,23.8077814 49.891938,23.622393 49.8099768,23.4174899 C49.7270399,23.2028296 49.6489816,22.9686547 49.5787291,22.7149652 C49.5065252,22.4515185 49.435297,22.1880717 49.3640688,21.9148677 C49.320161,22.1490426 49.2762532,22.3832175 49.2313697,22.6076351 C49.1845347,22.84181 49.1425784,23.0564703 49.1025735,23.2711306 C49.0625686,23.485791 49.0274424,23.6809367 48.9942676,23.8663252 C48.9601171,24.0614709 48.9337724,24.2273448 48.9123064,24.3737041 L48.8244908,24.5688499 L48.6449567,24.6566654 L48.5532382,24.6469082 L48.4361508,24.6371509 L48.3619954,24.6273936 C48.2566167,24.607879 48.1522137,24.5883644 48.046835,24.5590926 C47.9414563,24.539578 47.8448591,24.5005488 47.7550921,24.4420051 L47.7619222,24.4517624 C47.6741066,24.4127333 47.6087328,24.3639468 47.564825,24.3054031 C47.5209172,24.2468594 47.4945725,24.1785584 47.4877424,24.0809855 L47.4916453,23.8565679 L47.485791,23.8663252 C47.4955482,23.7394804 47.5160385,23.5638492 47.5492133,23.3394316 C47.5804366,23.115014 47.6194658,22.8515673 47.6663008,22.5783632 C47.7131357,22.2954019 47.7628979,21.992926 47.8175387,21.6806928 C47.8721795,21.3684596 47.9297475,21.0464691 47.989267,20.7439932 C48.0478107,20.43176 48.1053787,20.1390413 48.1639224,19.85608 C48.2224662,19.5731187 48.2790584,19.3291865 48.334675,19.1242834 C48.3990731,18.9096231 48.5298207,18.7925357 48.7288694,18.7730211 C48.791316,18.7632638 48.8664471,18.7632638 48.9571899,18.7827784 C49.0479327,18.7925357 49.1416026,18.8120503 49.2421027,18.8315648 C49.3426028,18.8510794 49.4421271,18.8803513 49.5377485,18.9096231 C49.6333699,18.938895 49.7221612,18.9681668 49.8002195,18.9974387 L49.7924137,18.9974387 C49.949506,19.0364679 50.0578119,19.1047689 50.12221,19.1925845 C50.1866081,19.2706428 50.2334431,19.4072448 50.262715,19.5731187 C50.2753994,19.6609343 50.2939383,19.7585071 50.31638,19.8755946" id="Fill-545" fill="#FFFFFE"></path>
            </g>
        </g>
    </g>
</svg>