<?xml version="1.0" encoding="UTF-8"?>
<svg width="101px" height="121px" viewBox="0 0 101 121" version="1.1" xmlns="http://www.w3.org/2000/svg" xmlns:xlink="http://www.w3.org/1999/xlink">
    <title>Group</title>
    <g id="Page-1" stroke="none" stroke-width="1" fill="none" fill-rule="evenodd" opacity="0.30296689">
        <g id="web1" transform="translate(-408.000000, -737.000000)">
            <g id="Group" transform="translate(408.149000, 737.167000)">
                <path d="M119.851,59.924 C119.851,63.788 115.39,67.165 114.668,70.816 C113.924,74.58 116.739,79.403 115.303,82.864 C113.842,86.386 108.428,87.798 106.332,90.93 C104.22,94.084 104.974,99.624 102.299,102.298 C99.623,104.974 94.085,104.22 90.93,106.332 C87.798,108.428 86.386,113.843 82.864,115.304 C80.979,116.086 78.691,115.607 76.391,115.129 C74.466,114.728 72.532,114.328 70.817,114.666 C67.165,115.389 63.789,119.851 59.926,119.851 C56.061,119.851 52.685,115.389 49.033,114.666 C47.317,114.327 45.382,114.727 43.456,115.128 C41.157,115.606 38.871,116.084 36.987,115.304 C33.464,113.842 32.053,108.428 28.921,106.33 C25.766,104.22 20.227,104.974 17.552,102.298 C14.876,99.624 15.631,94.084 13.519,90.93 C11.423,87.797 6.009,86.386 4.548,82.864 C3.113,79.401 5.928,74.58 5.183,70.816 C4.461,67.165 0,63.788 0,59.924 C0,56.061 4.461,52.685 5.183,49.033 C5.928,45.269 3.113,40.447 4.548,36.985 C6.009,33.463 11.423,32.052 13.519,28.92 C15.631,25.766 14.876,20.226 17.552,17.552 C20.227,14.875 25.766,15.63 28.921,13.519 C32.053,11.422 33.464,6.008 36.987,4.547 C38.872,3.765 41.158,4.242 43.458,4.72 C45.384,5.12 47.318,5.52 49.034,5.181 C52.685,4.46 56.061,0 59.926,0 C63.789,0 67.165,4.46 70.818,5.183 C72.532,5.521 74.466,5.121 76.391,4.721 C78.692,4.243 80.979,3.765 82.864,4.547 C86.387,6.008 87.798,11.422 90.93,13.519 C94.085,15.632 99.624,14.875 102.299,17.552 C104.975,20.226 104.22,25.766 106.332,28.92 C108.428,32.052 113.842,33.463 115.303,36.985 C116.739,40.448 113.924,45.269 114.668,49.033 C115.39,52.685 119.851,56.061 119.851,59.924" id="Fill-512" fill="#F8C823"></path>
                <path d="M114.317,59.924 L113.317,59.924 C113.318,60.605 113.119,61.31 112.769,62.058 C112.247,63.18 111.385,64.362 110.558,65.595 C109.737,66.832 108.933,68.127 108.631,69.617 C108.535,70.104 108.496,70.595 108.496,71.083 C108.499,72.442 108.786,73.787 109.052,75.076 C109.321,76.361 109.568,77.589 109.566,78.635 C109.565,79.288 109.474,79.861 109.266,80.364 C109.011,80.98 108.562,81.547 107.954,82.099 C107.044,82.928 105.793,83.688 104.554,84.513 C103.318,85.345 102.073,86.241 101.215,87.511 C100.646,88.364 100.3,89.319 100.041,90.288 C99.655,91.743 99.455,93.254 99.133,94.574 C98.816,95.9 98.378,96.988 97.678,97.68 C97.213,98.146 96.586,98.495 95.815,98.771 C94.661,99.188 93.215,99.413 91.752,99.706 C90.29,100.005 88.793,100.364 87.51,101.216 C86.663,101.785 85.984,102.534 85.377,103.33 C84.47,104.526 83.711,105.845 82.909,106.944 C82.108,108.049 81.284,108.89 80.362,109.265 C79.86,109.474 79.287,109.566 78.634,109.566 C77.588,109.568 76.361,109.321 75.076,109.052 C73.788,108.786 72.442,108.498 71.084,108.496 C70.595,108.496 70.105,108.535 69.617,108.631 C68.624,108.829 67.717,109.26 66.857,109.76 C65.569,110.515 64.366,111.441 63.201,112.147 C62.034,112.86 60.942,113.323 59.925,113.317 C59.244,113.318 58.54,113.12 57.791,112.769 C56.669,112.246 55.487,111.385 54.254,110.558 C53.017,109.737 51.722,108.933 50.233,108.631 C49.745,108.535 49.254,108.496 48.766,108.496 C47.407,108.498 46.062,108.786 44.774,109.051 C43.489,109.321 42.262,109.567 41.216,109.565 C40.563,109.565 39.99,109.474 39.488,109.265 C38.871,109.011 38.304,108.562 37.752,107.953 C36.923,107.044 36.163,105.794 35.337,104.554 C34.506,103.318 33.609,102.072 32.34,101.215 C31.486,100.645 30.532,100.3 29.562,100.04 C28.107,99.655 26.596,99.455 25.276,99.133 C23.95,98.816 22.862,98.377 22.17,97.678 C21.704,97.212 21.355,96.585 21.079,95.814 C20.662,94.66 20.437,93.215 20.145,91.752 C19.846,90.29 19.486,88.792 18.635,87.509 C18.066,86.662 17.317,85.983 16.521,85.377 C15.325,84.47 14.005,83.712 12.907,82.91 C11.802,82.109 10.961,81.285 10.585,80.363 C10.377,79.861 10.285,79.287 10.285,78.634 C10.283,77.588 10.53,76.361 10.799,75.076 C11.064,73.788 11.352,72.443 11.354,71.084 C11.354,70.596 11.316,70.105 11.219,69.617 C11.021,68.624 10.591,67.717 10.09,66.857 C9.336,65.569 8.409,64.365 7.703,63.2 C6.99,62.034 6.528,60.941 6.533,59.924 C6.532,59.243 6.731,58.539 7.082,57.79 C7.604,56.668 8.466,55.487 9.293,54.254 C10.114,53.017 10.918,51.722 11.219,50.232 C11.316,49.744 11.354,49.253 11.354,48.765 C11.352,47.406 11.064,46.06 10.799,44.773 C10.53,43.488 10.283,42.26 10.285,41.215 C10.285,40.562 10.377,39.989 10.585,39.487 C10.84,38.87 11.289,38.303 11.897,37.751 C12.807,36.922 14.057,36.161 15.297,35.336 C16.532,34.504 17.778,33.608 18.635,32.339 C19.205,31.486 19.55,30.531 19.809,29.561 C20.195,28.106 20.395,26.596 20.717,25.276 C21.034,23.95 21.472,22.862 22.172,22.171 C22.637,21.704 23.264,21.355 24.036,21.079 C25.19,20.662 26.635,20.437 28.098,20.144 C29.56,19.845 31.058,19.486 32.341,18.635 C33.188,18.066 33.866,17.317 34.473,16.521 C35.38,15.325 36.139,14.005 36.942,12.906 C37.742,11.801 38.567,10.96 39.489,10.584 C39.992,10.376 40.565,10.285 41.218,10.285 C42.263,10.282 43.49,10.529 44.775,10.798 C46.063,11.064 47.408,11.351 48.767,11.353 C49.255,11.353 49.746,11.315 50.233,11.219 C51.227,11.021 52.133,10.59 52.994,10.09 C54.281,9.335 55.485,8.409 56.649,7.703 C57.816,6.99 58.908,6.527 59.925,6.533 C60.607,6.532 61.31,6.731 62.059,7.081 C63.181,7.603 64.363,8.466 65.596,9.292 C66.833,10.113 68.127,10.917 69.618,11.219 C70.105,11.315 70.595,11.353 71.083,11.353 C72.442,11.351 73.788,11.063 75.075,10.798 C76.361,10.528 77.588,10.282 78.633,10.284 C79.287,10.284 79.86,10.376 80.362,10.584 C80.98,10.839 81.547,11.288 82.099,11.896 C82.928,12.806 83.688,14.056 84.513,15.296 C85.345,16.532 86.241,17.777 87.51,18.635 C88.363,19.204 89.318,19.549 90.288,19.809 C91.743,20.195 93.254,20.395 94.574,20.716 C95.9,21.033 96.989,21.472 97.68,22.171 C98.146,22.636 98.496,23.264 98.771,24.035 C99.188,25.189 99.413,26.635 99.705,28.098 C100.005,29.559 100.364,31.057 101.215,32.339 C101.784,33.187 102.534,33.866 103.329,34.472 C104.525,35.38 105.845,36.138 106.944,36.94 C108.049,37.741 108.89,38.565 109.267,39.487 C109.474,39.988 109.566,40.562 109.566,41.214 C109.568,42.26 109.321,43.488 109.052,44.774 C108.786,46.061 108.499,47.407 108.496,48.766 C108.496,49.254 108.535,49.745 108.631,50.232 C108.829,51.226 109.26,52.132 109.761,52.993 C110.515,54.28 111.441,55.484 112.147,56.648 C112.86,57.815 113.323,58.907 113.317,59.924 L115.317,59.924 C115.317,58.851 115.009,57.857 114.58,56.942 C113.933,55.567 113.01,54.328 112.221,53.143 C111.426,51.961 110.784,50.84 110.593,49.844 C110.527,49.509 110.496,49.149 110.496,48.766 C110.494,47.7 110.741,46.465 111.01,45.18 C111.276,43.894 111.563,42.558 111.566,41.214 C111.566,40.379 111.45,39.532 111.114,38.721 C110.705,37.738 110.042,36.946 109.297,36.27 C108.176,35.257 106.85,34.469 105.665,33.674 C104.476,32.885 103.447,32.089 102.877,31.227 C102.488,30.648 102.2,29.9 101.973,29.047 C101.629,27.766 101.429,26.267 101.078,24.806 C100.722,23.352 100.215,21.887 99.095,20.757 C98.345,20.009 97.433,19.534 96.49,19.196 C95.071,18.691 93.547,18.469 92.148,18.184 C90.747,17.906 89.488,17.559 88.623,16.972 C88.049,16.59 87.502,16.012 86.97,15.31 C86.168,14.258 85.412,12.948 84.527,11.729 C83.64,10.518 82.605,9.355 81.128,8.737 C80.317,8.401 79.47,8.284 78.633,8.284 C77.291,8.286 75.955,8.574 74.668,8.84 C73.384,9.109 72.149,9.356 71.083,9.353 C70.7,9.353 70.341,9.323 70.005,9.257 C69.341,9.127 68.622,8.805 67.866,8.362 C66.729,7.701 65.529,6.781 64.24,5.994 C62.952,5.215 61.539,4.538 59.925,4.532 C58.853,4.532 57.859,4.841 56.943,5.27 C55.568,5.917 54.329,6.84 53.144,7.629 C51.962,8.424 50.842,9.066 49.845,9.257 C49.51,9.323 49.15,9.353 48.767,9.353 C47.701,9.356 46.466,9.109 45.182,8.84 C43.896,8.574 42.56,8.287 41.218,8.284 C40.382,8.284 39.534,8.401 38.723,8.737 C37.741,9.144 36.948,9.807 36.272,10.552 C35.258,11.674 34.47,13 33.675,14.185 C32.886,15.374 32.09,16.403 31.228,16.972 C30.649,17.362 29.902,17.65 29.048,17.877 C27.767,18.221 26.268,18.421 24.807,18.772 C23.352,19.128 21.887,19.635 20.757,20.757 C20.01,21.505 19.535,22.417 19.196,23.361 C18.691,24.779 18.469,26.302 18.184,27.702 C17.906,29.102 17.559,30.361 16.973,31.226 C16.591,31.8 16.012,32.347 15.31,32.879 C14.259,33.682 12.949,34.438 11.73,35.323 C10.519,36.209 9.356,37.244 8.738,38.72 C8.402,39.532 8.285,40.379 8.285,41.215 C8.288,42.558 8.575,43.893 8.841,45.18 C9.11,46.464 9.357,47.699 9.354,48.765 C9.354,49.148 9.324,49.508 9.257,49.844 C9.127,50.508 8.806,51.228 8.363,51.984 C7.702,53.121 6.781,54.32 5.995,55.609 C5.215,56.897 4.539,58.31 4.533,59.924 C4.533,60.996 4.841,61.99 5.27,62.907 C5.918,64.281 6.841,65.521 7.63,66.706 C8.425,67.888 9.067,69.009 9.257,70.006 C9.324,70.341 9.354,70.701 9.354,71.084 C9.356,72.15 9.11,73.385 8.841,74.669 C8.575,75.955 8.288,77.291 8.285,78.634 C8.285,79.47 8.402,80.318 8.738,81.129 C9.146,82.111 9.809,82.904 10.553,83.58 C11.675,84.593 13.001,85.381 14.186,86.176 C15.374,86.964 16.404,87.76 16.973,88.622 C17.362,89.2 17.65,89.948 17.877,90.802 C18.221,92.084 18.421,93.582 18.773,95.043 C19.128,96.498 19.635,97.962 20.756,99.091 C21.505,99.839 22.417,100.315 23.361,100.653 C24.78,101.159 26.303,101.381 27.703,101.666 C29.103,101.944 30.362,102.291 31.227,102.877 C31.801,103.259 32.348,103.838 32.881,104.54 C33.683,105.592 34.439,106.902 35.324,108.121 C36.21,109.332 37.245,110.495 38.723,111.113 C39.533,111.449 40.381,111.565 41.216,111.565 C42.559,111.562 43.895,111.275 45.181,111.01 C46.465,110.741 47.7,110.494 48.766,110.496 C49.149,110.496 49.509,110.527 49.844,110.593 C50.508,110.723 51.228,111.045 51.984,111.488 C53.121,112.149 54.32,113.069 55.61,113.856 C56.898,114.636 58.311,115.312 59.925,115.317 C60.998,115.317 61.991,115.009 62.908,114.58 C64.282,113.933 65.521,113.01 66.707,112.221 C67.888,111.426 69.009,110.784 70.006,110.593 C70.341,110.527 70.701,110.496 71.084,110.496 C72.15,110.494 73.384,110.741 74.669,111.01 C75.955,111.275 77.291,111.563 78.634,111.566 C79.47,111.566 80.317,111.449 81.129,111.113 C82.111,110.705 82.903,110.043 83.579,109.297 C84.592,108.176 85.38,106.851 86.175,105.666 C86.964,104.476 87.761,103.448 88.623,102.878 C89.201,102.489 89.949,102.2 90.803,101.974 C92.084,101.63 93.583,101.429 95.044,101.078 C96.499,100.722 97.963,100.215 99.092,99.094 C99.84,98.345 100.315,97.433 100.654,96.49 C101.159,95.071 101.381,93.547 101.666,92.148 C101.944,90.747 102.291,89.489 102.877,88.623 C103.26,88.05 103.838,87.502 104.54,86.97 C105.591,86.167 106.902,85.412 108.12,84.527 C109.332,83.641 110.495,82.606 111.114,81.129 C111.45,80.318 111.566,79.471 111.566,78.635 C111.563,77.292 111.276,75.956 111.01,74.669 C110.741,73.384 110.494,72.149 110.497,71.083 C110.496,70.7 110.527,70.34 110.593,70.005 C110.723,69.341 111.045,68.622 111.488,67.865 C112.149,66.728 113.07,65.529 113.856,64.239 C114.635,62.951 115.312,61.538 115.317,59.924 L114.317,59.924" id="Fill-513" fill="#FFFFFE"></path>
                <path d="M80.446,48.905 C74.578,45.039 68.339,44.621 65.928,44.621 C65.614,44.621 65.388,44.63 65.264,44.635 L53.267,44.635 C52.979,44.624 52.731,44.621 52.525,44.621 C52.268,44.621 52.07,44.626 51.94,44.632 C51.807,44.626 51.609,44.621 51.351,44.621 C48.941,44.621 42.702,45.038 36.835,48.905 C31.603,52.351 25.369,59.548 25.351,74.265 C25.317,75.211 25.236,81.95 29.574,86.533 C32.18,89.286 35.739,90.681 40.152,90.681 L77.128,90.681 C81.541,90.681 85.099,89.286 87.705,86.533 C92.044,81.95 91.963,75.211 91.928,74.265 C91.911,59.55 85.677,52.352 80.446,48.905" id="Fill-514" fill="#FFFFFE"></path>
                <path d="M88.915,74.328 C88.915,46.186 65.341,47.648 65.341,47.648 L51.939,47.648 C51.939,47.648 28.365,46.186 28.365,74.328 C28.365,74.328 27.634,87.668 40.152,87.668 L77.128,87.668 C89.646,87.668 88.915,74.328 88.915,74.328" id="Fill-515" fill="#EC923C"></path>
                <path d="M75.512,74.328 C75.512,46.186 51.939,47.647 51.939,47.647 C51.939,47.647 28.365,46.186 28.365,74.328 C28.365,74.328 27.634,87.668 40.152,87.668 L45.396,87.668 L43.231,85.651 L42.461,82.611 C42.461,82.611 45.865,87.668 51.18,87.668 L63.725,87.668 C76.243,87.668 75.512,74.328 75.512,74.328" id="Fill-516" fill="#763C2D"></path>
                <path d="M75.512,74.328 C75.512,46.186 51.939,47.647 51.939,47.647 C51.939,47.647 28.365,46.186 28.365,74.328 C28.365,74.328 27.634,87.668 40.152,87.668 L45.396,87.668 L43.231,85.651 L42.461,82.611 C42.461,82.611 45.865,87.668 51.18,87.668 L63.725,87.668 C76.243,87.668 75.512,74.328 75.512,74.328" id="Fill-517" fill="#FFEFCE"></path>
                <path d="M75.512,74.328 L76.012,74.328 C76.024,61.458 71.09,54.568 65.66,51.003 C60.236,47.434 54.399,47.137 52.526,47.134 C52.136,47.134 51.917,47.148 51.908,47.148 L51.939,47.647 L51.97,47.148 C51.961,47.148 51.742,47.134 51.352,47.134 C49.478,47.137 43.642,47.434 38.218,51.003 C32.787,54.568 27.853,61.458 27.865,74.328 L28.365,74.328 L27.866,74.301 C27.865,74.309 27.857,74.464 27.857,74.735 C27.86,75.897 28.001,79.196 29.608,82.272 C30.413,83.809 31.595,85.291 33.312,86.384 C35.029,87.477 37.271,88.169 40.152,88.1680011 L46.667,88.1680011 L43.679,85.386 L42.946,82.489 L42.461,82.611 L42.046,82.89 C42.064,82.915 42.937,84.213 44.507,85.524 C46.074,86.831 48.358,88.166 51.18,88.1680011 L63.725,88.1680011 C66.606,88.169 68.849,87.477 70.565,86.384 C73.144,84.742 74.505,82.237 75.221,79.96 C75.937,77.68 76.019,75.607 76.02,74.735 C76.02,74.464 76.012,74.309 76.011,74.301 L75.512,74.328 L76.012,74.328 L75.512,74.328 L75.013,74.355 L75.016,74.448 C75.018,74.513 75.02,74.61 75.02,74.735 C75.023,75.81 74.871,78.978 73.383,81.808 C72.64,83.225 71.573,84.557 70.028,85.54 C68.483,86.522 66.449,87.167 63.725,87.168 L51.18,87.168 C48.687,87.17 46.611,85.977 45.148,84.756 C44.417,84.147 43.845,83.535 43.457,83.078 C43.263,82.85 43.116,82.66 43.018,82.529 L42.908,82.379 L42.876,82.332 L41.271,79.949 L42.782,85.917 L44.126,87.168 L40.152,87.168 C37.429,87.167 35.395,86.522 33.849,85.54 C31.534,84.068 30.284,81.799 29.611,79.66 C28.938,77.525 28.856,75.541 28.857,74.735 C28.857,74.61 28.859,74.513 28.861,74.448 L28.864,74.356 L28.865,74.342 L28.865,74.328 C28.878,61.704 33.616,55.247 38.768,51.838 C43.927,48.434 49.584,48.132 51.352,48.134 C51.535,48.134 51.677,48.138 51.771,48.141 C51.865,48.144 51.908,48.147 51.908,48.146 L51.939,48.148 L51.97,48.146 C51.97,48.146 52.013,48.144 52.107,48.141 C52.201,48.138 52.343,48.134 52.526,48.134 C54.294,48.132 59.951,48.434 65.109,51.838 C70.262,55.247 75,61.704 75.012,74.328 L75.012,74.341 L75.013,74.355 L75.512,74.328" id="Fill-518" fill="#FFEFCE"></path>
                <path d="M68.377,71.365 C68.941,64.156 64.206,55.534 55.574,54.175 C50.264,53.34 44.99,55.005 41.101,58.745 C36.981,62.706 34.917,68.422 35.577,74.035 C36.279,80 38.65,84.5 41.076,87.668 L46.328,87.668 C43.749,85.091 40.312,80.463 39.502,73.573 C38.984,69.181 40.606,64.702 43.84,61.593 C46.874,58.675 50.823,57.427 54.96,58.078 C61.362,59.086 64.864,65.6 64.438,71.058 C64.282,73.042 63.303,77.657 57.577,77.657 C54.115,77.657 51.764,76.557 50.778,74.472 C49.841,72.491 50.318,70.041 51.322,68.817 C51.578,68.505 51.966,68.152 52.362,68.252 C53.419,68.516 54.493,67.872 54.757,66.814 C55.022,65.756 54.378,64.684 53.32,64.419 C51.475,63.957 49.632,64.646 48.267,66.312 C46.464,68.512 45.521,72.6 47.207,76.162 C48.169,78.196 50.796,81.608 57.577,81.608 C63.651,81.608 67.89,77.588 68.377,71.365" id="Fill-519" fill="#EC923C"></path>
                <path d="M76.464,59.299 L76.322,59.299 C75.325,59.274 74.367,58.736 73.85,57.799 C73.616,57.374 73.5,56.915 73.49,56.461 L73.49,56.341 C73.511,55.34 74.049,54.378 74.99,53.859 C75.434,53.615 75.914,53.498 76.388,53.498 C77.41,53.498 78.401,54.04 78.929,54.999 C79.164,55.423 79.28,55.88 79.29,56.333 L79.29,56.459 C79.268,57.459 78.729,58.421 77.791,58.939 C77.369,59.171 76.914,59.288 76.464,59.299" id="Fill-520" fill="#F9C94A"></path>
                <path d="M81.548,60.945 C81.133,60.945 80.731,60.725 80.516,60.337 C80.419,60.16 80.372,59.968 80.37,59.779 L80.37,59.76 C80.373,59.348 80.593,58.951 80.979,58.738 C81.159,58.639 81.354,58.592 81.546,58.592 C81.96,58.592 82.362,58.812 82.577,59.2 C82.674,59.377 82.721,59.568 82.723,59.757 L82.723,59.778 C82.72,60.189 82.5,60.586 82.115,60.799 C81.935,60.898 81.74,60.945 81.548,60.945" id="Fill-521" fill="#F9C94A"></path>
                <path d="M31.115,40.243 C31.288,40.335 31.418,40.476 31.504,40.669 C31.565,40.806 31.599,40.959 31.608,41.136 C31.616,41.311 31.619,41.497 31.615,41.695 C31.581,42.684 31.343,43.577 30.9,44.375 C30.458,45.175 29.773,45.78 28.846,46.193 L28.643,46.284 L28.477,46.341 L28.492,46.334 C28.036,46.479 27.608,46.572 27.21,46.611 C26.81,46.65 26.447,46.68 26.119,46.697 L26.134,46.691 C25.972,46.718 25.791,46.714 25.591,46.682 C25.391,46.649 25.19,46.593 24.985,46.509 C24.781,46.427 24.583,46.323 24.396,46.199 C24.207,46.075 24.045,45.938 23.91,45.791 L23.923,45.819 C23.681,45.593 23.459,45.317 23.252,44.998 C23.047,44.681 22.86,44.331 22.692,43.955 C22.43,43.366 22.213,42.684 22.04,41.91 C21.869,41.138 21.758,40.327 21.705,39.482 C21.652,38.639 21.664,37.794 21.739,36.949 C21.814,36.105 21.964,35.319 22.188,34.589 C22.412,33.857 22.719,33.215 23.108,32.659 C23.496,32.104 23.981,31.697 24.56,31.438 L24.705,31.374 L24.87,31.318 L24.856,31.324 C25.11,31.245 25.381,31.179 25.667,31.119 C25.953,31.061 26.237,31.021 26.517,31.001 C26.797,30.979 27.071,30.977 27.337,30.991 C27.604,31.005 27.843,31.04 28.053,31.098 C28.587,31.229 28.985,31.435 29.246,31.711 C29.509,31.987 29.728,32.323 29.905,32.721 C30,32.932 30.092,33.165 30.182,33.42 C30.273,33.675 30.352,33.932 30.421,34.19 C30.49,34.448 30.549,34.703 30.597,34.954 C30.645,35.205 30.674,35.432 30.684,35.636 L30.666,35.713 C30.682,35.902 30.669,36.062 30.627,36.19 C30.586,36.319 30.44,36.438 30.189,36.552 L30.03,36.622 L29.828,36.677 C29.47,36.756 29.156,36.788 28.883,36.776 C28.612,36.765 28.368,36.711 28.153,36.616 C27.937,36.521 27.743,36.386 27.571,36.207 C27.399,36.029 27.239,35.812 27.089,35.556 C27.007,35.371 26.931,35.183 26.862,34.986 C26.793,34.792 26.725,34.623 26.661,34.478 C26.614,34.372 26.56,34.277 26.5,34.193 L26.311,34.043 C26.171,34.118 26.046,34.345 25.937,34.723 C25.827,35.102 25.74,35.548 25.675,36.062 C25.609,36.578 25.568,37.127 25.549,37.707 C25.53,38.289 25.538,38.826 25.573,39.32 C25.625,39.957 25.723,40.578 25.867,41.186 C26.011,41.793 26.177,42.309 26.366,42.734 C26.491,43.015 26.619,43.237 26.751,43.404 C26.884,43.57 27.018,43.652 27.157,43.649 L27.214,43.623 C27.513,43.49 27.835,42.912 28.178,41.892 C28.436,41.174 28.88,40.677 29.508,40.396 C29.642,40.335 29.785,40.286 29.937,40.248 C30.088,40.21 30.251,40.181 30.427,40.159 C30.712,40.125 30.942,40.153 31.115,40.243" id="Fill-522" fill="#FFFFFE"></path>
                <path d="M39.876,25.29 C39.726,25.367 39.605,25.572 39.515,25.903 C39.422,26.235 39.356,26.634 39.316,27.101 C39.276,27.566 39.264,28.069 39.278,28.608 C39.293,29.146 39.33,29.656 39.386,30.138 C39.458,30.742 39.579,31.349 39.748,31.957 C39.917,32.565 40.117,33.095 40.349,33.547 C40.518,33.876 40.69,34.135 40.871,34.321 C41.049,34.509 41.218,34.562 41.379,34.479 C41.528,34.402 41.65,34.216 41.743,33.919 C41.834,33.623 41.897,33.255 41.934,32.814 C41.968,32.375 41.97,31.878 41.936,31.325 C41.902,30.772 41.833,30.203 41.728,29.615 C41.623,29.028 41.477,28.437 41.292,27.843 C41.106,27.25 40.881,26.693 40.617,26.176 C40.471,25.894 40.337,25.672 40.212,25.511 C40.087,25.348 39.98,25.272 39.892,25.282 L39.876,25.29 Z M42.251,22.657 C42.505,22.806 42.735,22.988 42.94,23.203 C43.146,23.419 43.335,23.66 43.508,23.928 C43.682,24.195 43.85,24.489 44.014,24.81 C44.284,25.337 44.54,25.953 44.784,26.66 C45.027,27.366 45.226,28.108 45.379,28.885 C45.535,29.66 45.628,30.446 45.663,31.242 C45.695,32.039 45.641,32.789 45.497,33.492 C45.352,34.196 45.104,34.83 44.752,35.396 C44.401,35.962 43.916,36.404 43.294,36.723 C43.087,36.829 42.873,36.921 42.651,36.998 L42.666,36.991 C41.352,37.51 40.204,37.591 39.218,37.234 C38.233,36.878 37.39,36.013 36.686,34.64 C36.325,33.935 36.034,33.156 35.812,32.308 C35.591,31.459 35.455,30.584 35.403,29.685 C35.352,28.784 35.395,27.89 35.532,26.999 C35.67,26.109 35.915,25.276 36.268,24.503 C36.442,24.151 36.684,23.82 36.987,23.511 C37.292,23.2 37.612,22.958 37.952,22.784 C38.205,22.654 38.486,22.546 38.792,22.46 C39.1,22.375 39.406,22.315 39.715,22.281 C40.025,22.247 40.325,22.233 40.612,22.24 C40.901,22.247 41.151,22.272 41.365,22.318 C41.702,22.396 41.997,22.508 42.251,22.657 L42.251,22.657 Z" id="Fill-523" fill="#FFFFFE"></path>
                <path d="M59.342,32.827 C58.816,33.558 58.164,34.017 57.389,34.202 C56.615,34.388 55.719,34.356 54.702,34.107 C54.311,34.013 53.961,33.882 53.647,33.719 C53.333,33.555 53.034,33.345 52.747,33.09 C52.28,32.605 51.9,31.952 51.612,31.131 C51.323,30.31 51.104,29.349 50.954,28.252 C50.803,27.153 50.705,25.93 50.661,24.58 C50.616,23.23 50.597,21.784 50.606,20.24 C50.597,20.142 50.598,20.052 50.607,19.972 L50.646,19.744 C50.688,19.57 50.767,19.429 50.88,19.32 C50.994,19.213 51.181,19.114 51.442,19.025 C51.629,18.974 51.83,18.919 52.045,18.862 C52.26,18.806 52.472,18.761 52.683,18.724 C52.893,18.689 53.094,18.666 53.288,18.652 C53.482,18.64 53.655,18.652 53.809,18.69 C54.035,18.746 54.214,18.849 54.345,19.002 C54.476,19.153 54.533,19.379 54.514,19.68 L54.506,19.645 C54.501,20.242 54.502,20.939 54.509,21.735 C54.515,22.531 54.533,23.357 54.563,24.214 C54.592,25.07 54.638,25.916 54.7,26.753 C54.762,27.59 54.843,28.347 54.944,29.024 C55.044,29.702 55.175,30.259 55.333,30.695 C55.494,31.132 55.686,31.378 55.913,31.433 C56.015,31.458 56.105,31.404 56.181,31.271 C56.258,31.137 56.324,30.951 56.383,30.716 C56.493,30.264 56.555,29.688 56.568,28.99 C56.581,28.291 56.563,27.546 56.511,26.756 C56.46,25.966 56.392,25.176 56.308,24.388 C56.222,23.599 56.134,22.885 56.04,22.241 L56.053,22.261 C56.016,22.012 56.021,21.79 56.069,21.595 C56.134,21.328 56.289,21.094 56.535,20.892 C56.78,20.691 57.059,20.528 57.372,20.404 C57.686,20.279 58.009,20.198 58.339,20.159 C58.67,20.121 58.957,20.131 59.204,20.191 C59.41,20.242 59.564,20.336 59.664,20.477 C59.768,20.615 59.84,20.82 59.882,21.092 C60.001,21.895 60.107,22.739 60.199,23.626 C60.291,24.514 60.359,25.399 60.399,26.279 C60.439,27.16 60.436,28.011 60.393,28.833 C60.35,29.654 60.247,30.395 60.087,31.051 C59.911,31.771 59.663,32.362 59.342,32.827" id="Fill-524" fill="#FFFFFE"></path>
                <path d="M71.103,24.487 C71.049,24.993 70.994,25.528 70.937,26.094 C71.435,25.754 71.865,25.399 72.226,25.03 C72.586,24.662 72.878,24.31 73.1,23.972 C73.321,23.635 73.478,23.322 73.571,23.036 C73.663,22.75 73.687,22.509 73.643,22.312 L73.643,22.239 L73.602,22.168 C73.57,22.147 73.509,22.14 73.418,22.145 C73.327,22.148 73.188,22.173 73.003,22.213 C72.766,22.267 72.494,22.36 72.188,22.495 C71.883,22.629 71.577,22.807 71.269,23.027 C71.212,23.496 71.156,23.982 71.103,24.487 M75.169,26.319 C73.595,27.716 70.635,29.692 70.612,30.117 C70.576,30.775 70.541,31.421 70.504,32.052 C70.468,32.684 70.444,33.309 70.433,33.93 C70.386,34.156 70.324,34.334 70.244,34.46 C70.164,34.586 70.016,34.675 69.799,34.723 C69.665,34.753 69.528,34.769 69.386,34.7680442 C69.121,34.74 68.854,34.714 68.588,34.687 C68.322,34.661 68.081,34.612 67.864,34.543 C67.648,34.473 67.462,34.368 67.307,34.229 C67.15,34.091 67.043,33.894 66.985,33.635 C66.95,33.481 66.946,33.271 66.972,33.005 C67.048,32.716 67.092,32.254 67.105,31.617 C67.119,30.98 67.119,30.26 67.105,29.455 C67.091,28.651 67.074,27.817 67.052,26.955 C67.031,26.093 67.021,25.294 67.022,24.557 C67.023,23.819 67.048,23.193 67.093,22.68 C67.14,22.164 67.222,21.856 67.339,21.754 C67.686,21.47 68.067,21.175 68.48,20.87 C70.921,19.072 74.827,17.269 76.532,21.083 C77.344,22.898 76.596,25.054 75.169,26.319" id="Fill-525" fill="#FFFFFE"></path>
                <path d="M83.824,27.301 C83.747,27.286 83.645,27.347 83.52,27.483 C83.395,27.62 83.256,27.81 83.101,28.053 C82.819,28.499 82.567,28.981 82.346,29.501 C82.126,30.021 81.941,30.54 81.791,31.059 C81.642,31.577 81.525,32.083 81.441,32.575 C81.358,33.067 81.31,33.513 81.299,33.908 C81.287,34.305 81.306,34.639 81.357,34.909 C81.409,35.182 81.497,35.356 81.621,35.435 C81.753,35.519 81.907,35.482 82.082,35.326 C82.257,35.171 82.435,34.951 82.615,34.667 C82.862,34.278 83.089,33.817 83.296,33.283 C83.504,32.751 83.669,32.216 83.791,31.68 C83.888,31.252 83.97,30.798 84.035,30.317 C84.101,29.836 84.139,29.385 84.149,28.966 C84.16,28.546 84.141,28.185 84.093,27.881 C84.046,27.578 83.96,27.387 83.836,27.309 L83.824,27.301 Z M82.823,24.552 C83.014,24.5251067 83.236,24.519 83.49,24.531 C83.742,24.544 84.003,24.576 84.271,24.626 C84.539,24.677 84.803,24.75 85.062,24.847 C85.322,24.943 85.557,25.059 85.767,25.191 C86.047,25.369 86.304,25.606 86.54,25.905 C86.777,26.202 86.955,26.515 87.074,26.84 C87.307,27.556 87.44,28.316 87.473,29.122 C87.507,29.928 87.457,30.731 87.324,31.534 C87.191,32.336 86.986,33.11 86.709,33.855 C86.432,34.601 86.101,35.278 85.716,35.885 C84.965,37.068 84.141,37.787 83.244,38.042 C82.346,38.297 81.347,38.148 80.248,37.599 L80.26,37.605 C80.073,37.522 79.894,37.426 79.723,37.317 C79.211,36.992 78.828,36.564 78.576,36.035 C78.324,35.505 78.169,34.922 78.111,34.281 C78.053,33.644 78.079,32.968 78.186,32.258 C78.294,31.548 78.453,30.85 78.664,30.166 C78.876,29.48 79.122,28.83 79.404,28.214 C79.687,27.598 79.972,27.062 80.26,26.607 C80.435,26.333 80.611,26.08 80.788,25.852 C80.966,25.624 81.155,25.42 81.356,25.241 C81.557,25.062 81.776,24.913 82.013,24.797 C82.251,24.68 82.521,24.599 82.823,24.552 L82.823,24.552 Z" id="Fill-526" fill="#FFFFFE"></path>
                <path d="M94.225,37.232 C94.267,37.458 94.314,37.707 94.366,37.979 C94.416,38.251 94.473,38.54 94.536,38.847 C94.599,39.152 94.662,39.462 94.725,39.771 C94.864,38.96 95.012,38.174 95.169,37.415 C95.325,36.656 95.482,35.957 95.638,35.316 C95.733,34.919 95.963,34.704 96.327,34.669 L96.477,34.673 L96.68,34.695 C96.807,34.715 96.968,34.746 97.165,34.791 C97.361,34.835 97.555,34.897 97.746,34.979 C97.937,35.06 98.105,35.159 98.25,35.28 C98.395,35.401 98.477,35.551 98.494,35.731 L98.495,35.934 L98.448,36.163 C98.359,36.544 98.267,36.968 98.169,37.436 C98.072,37.904 97.971,38.396 97.866,38.913 C97.762,39.429 97.658,39.957 97.555,40.497 C97.453,41.037 97.354,41.572 97.258,42.104 C97.163,42.636 97.071,43.148 96.981,43.644 C96.891,44.139 96.811,44.6 96.744,45.025 L96.755,45.013 C96.708,45.396 96.482,45.607 96.078,45.646 C95.812,45.672 95.546,45.654 95.277,45.594 C95.008,45.532 94.749,45.47 94.502,45.406 C94.234,45.313 94.001,45.13 93.804,44.856 C93.607,44.582 93.431,44.249 93.277,43.856 C93.122,43.464 92.978,43.024 92.843,42.539 C92.709,42.054 92.576,41.557 92.444,41.047 C92.36,41.481 92.276,41.916 92.192,42.347 C92.108,42.777 92.029,43.19 91.954,43.585 C91.88,43.98 91.811,44.355 91.749,44.71 C91.687,45.063 91.636,45.378 91.595,45.649 C91.553,45.812 91.497,45.936 91.431,46.021 C91.364,46.106 91.251,46.157 91.095,46.172 L90.926,46.171 L90.704,46.15 L90.565,46.129 C90.369,46.092 90.173,46.051 89.977,46.006 C89.78,45.962 89.599,45.889 89.43,45.785 L89.444,45.796 C89.278,45.718 89.154,45.628 89.073,45.523 C88.993,45.421 88.944,45.283 88.927,45.11 C88.915,44.985 88.918,44.843 88.936,44.683 L88.925,44.695 C88.944,44.464 88.984,44.136 89.043,43.71 C89.103,43.285 89.176,42.81 89.263,42.283 C89.35,41.757 89.445,41.198 89.547,40.606 C89.649,40.015 89.755,39.43 89.867,38.849 C89.978,38.269 90.088,37.717 90.196,37.191 C90.304,36.667 90.411,36.21 90.516,35.82 C90.635,35.413 90.88,35.191 91.253,35.156 C91.369,35.145 91.511,35.151 91.68,35.175 C91.85,35.198 92.028,35.229 92.215,35.271 C92.403,35.312 92.587,35.36 92.767,35.414 C92.948,35.468 93.112,35.523 93.259,35.581 L93.246,35.582 C93.538,35.664 93.744,35.785 93.863,35.944 C93.983,36.103 94.071,36.342 94.126,36.66 C94.149,36.816 94.183,37.007 94.225,37.232" id="Fill-527" fill="#FFFFFE"></path>
            </g>
        </g>
    </g>
</svg>