<?xml version="1.0" encoding="UTF-8"?>
<svg width="169px" height="142px" viewBox="0 0 169 142" version="1.1" xmlns="http://www.w3.org/2000/svg" xmlns:xlink="http://www.w3.org/1999/xlink">
    <title>Fill 468</title>
    <defs>
        <path d="M113.932796,1.13686838e-13 C113.824709,0.563639715 113.966587,1.1837616 114.49,1.73572423 L114.49,1.73572423 L117.33,4.73772423 C117.452642,4.86581648 117.57974,4.97363131 117.709675,5.06270719 L117.710885,60.2254959 C115.879488,61.634905 113.876792,63.1445474 111.783931,64.7006279 L34.339795,64.699641 C33.5663682,64.2742805 32.7740453,63.8961099 31.97,63.5717242 C25.76,61.0487242 19.31,61.1707242 14.58,63.4147242 L14.58,63.4147242 L2.27373675e-13,47.9547242 L2.27373675e-13,43.0529659 C25.0580707,32.1709919 52.2722895,17.5372362 76.8919033,0.00101745746" id="path-1"></path>
        <path d="M91.95,1.13686838e-13 L91.95,27.583 L34.339795,27.5819168 C33.5663682,27.1565563 32.7740453,26.7783857 31.97,26.454 C25.76,23.931 19.31,24.053 14.58,26.297 L14.58,26.297 L-2.27373675e-13,10.837 L-2.27373675e-13,5.9352417 C4.30382414,4.06637632 8.67081833,2.0868541 13.0773533,0.000977160501" id="path-3"></path>
        <path d="M15,0 L15.0006046,22.1538837 C14.7385131,22.0355754 14.4748927,21.9228688 14.21,21.816 C9.30053563,19.8213819 4.24106952,19.4799078 0,20.5331559 L0,0" id="path-5"></path>
        <path d="M14.7004185,0 L14.7,24.8101192 L0,24.8101192 L0.000533932586,8.33208731 C4.91083783,5.67260545 9.82142263,2.893344 14.7004185,0" id="path-7"></path>
        <path d="M91.95,0 L91.95,43.5413408 L1.053,43.5413408 L-2.27373675e-13,42.4253408 L-2.27373675e-13,37.5235825 C22.3769182,27.8059735 46.4731682,15.0965061 68.9057537,0" id="path-9"></path>
    </defs>
    <g id="Page-1" stroke="none" stroke-width="1" fill="none" fill-rule="evenodd">
        <g id="web1" transform="translate(-1100.000000, -715.000000)">
            <polyline id="Fill-465" fill="#E46D2A" points="1392.5 882.5 1392.5 881 990 881 990 703 1391 703 1391 882.5 1392.5 882.5 1392.5 881 1392.5 882.5 1394 882.5 1394 700 987 700 987 884 1394 884 1394 882.5 1392.5 882.5"></polyline>
            <path d="M1212.25,742.721 L1210.07,744.785 L1210.63,744.25 L1209.92,744.542 C1209.98,744.672 1210.04,744.76 1210.07,744.785 L1210.63,744.25 L1209.92,744.542 L1210.99,744.103 L1209.84,744.103 C1209.84,744.249 1209.87,744.414 1209.92,744.542 L1210.99,744.103 L1209.84,744.103 L1210.88,744.103 L1209.93,743.672 C1209.88,743.774 1209.84,743.922 1209.84,744.103 L1210.88,744.103 L1209.93,743.672 L1210.57,743.961 L1210.17,743.377 C1210.07,743.449 1210,743.517 1209.93,743.672 L1210.57,743.961 L1210.17,743.377 L1210.69,744.147 L1210.69,743.229 C1210.43,743.232 1210.26,743.311 1210.17,743.377 L1210.69,744.147 L1210.69,743.229 L1210.69,744.388 L1211.16,743.327 C1211.02,743.264 1210.85,743.228 1210.69,743.229 L1210.69,744.388 L1211.16,743.327 L1210.84,744.048 L1211.42,743.499 C1211.4,743.47 1211.3,743.388 1211.16,743.327 L1210.84,744.048 L1211.42,743.499 L1208.58,740.499 L1208.58,740.494 L1208.03,741.011 L1208.72,740.728 C1208.67,740.601 1208.6,740.516 1208.58,740.494 L1208.03,741.011 L1208.72,740.728 L1207.66,741.167 L1208.81,741.167 C1208.81,741.019 1208.77,740.855 1208.72,740.728 L1207.66,741.167 L1208.81,741.167 L1207.76,741.167 L1208.72,741.598 C1208.76,741.495 1208.81,741.346 1208.81,741.167 L1207.76,741.167 L1208.72,741.598 L1208.06,741.303 L1208.47,741.899 C1208.57,741.826 1208.64,741.754 1208.72,741.598 L1208.06,741.303 L1208.47,741.899 L1207.94,741.128 L1207.94,742.048 C1208.2,742.046 1208.37,741.967 1208.47,741.899 L1207.94,741.128 L1207.94,742.048 L1207.94,740.904 L1207.48,741.952 C1207.62,742.013 1207.79,742.049 1207.94,742.048 L1207.94,740.904 L1207.48,741.952 L1207.79,741.257 L1207.23,741.787 C1207.25,741.812 1207.34,741.892 1207.48,741.952 L1207.79,741.257 L1207.23,741.787 L1207.23,741.782 L1210.07,744.784 L1212.25,742.721 L1214.43,740.659 L1211.58,737.657 L1211.58,737.652 C1211.11,737.153 1210.53,736.738 1209.9,736.46 C1209.27,736.182 1208.59,736.046 1207.94,736.047978 C1207.22,736.047978 1206.53,736.211 1205.93,736.476 C1205.03,736.877 1204.29,737.494 1203.73,738.28 C1203.18,739.064 1202.81,740.054 1202.81,741.167 C1202.8,741.78 1202.93,742.42 1203.17,743.017 C1203.42,743.615 1203.79,744.164 1204.23,744.629 L1204.23,744.624 L1207.07,747.625 C1207.54,748.124 1208.11,748.541 1208.74,748.817 C1209.37,749.096 1210.05,749.231 1210.69,749.229022 C1211.42,749.229022 1212.11,749.065 1212.71,748.799 C1213.61,748.396 1214.35,747.779 1214.91,746.993 C1215.46,746.209 1215.84,745.219 1215.84,744.103 C1215.84,743.495 1215.72,742.859 1215.47,742.265 C1215.23,741.669 1214.87,741.122 1214.43,740.658 L1212.25,742.721 M1223.62,754.714 L1221.45,756.778 L1222.01,756.243 L1221.3,756.535 C1221.35,756.665 1221.42,756.752 1221.45,756.778 L1222.01,756.243 L1221.3,756.535 L1222.37,756.095 L1221.22,756.095 C1221.21,756.242 1221.25,756.406 1221.3,756.535 L1222.37,756.095 L1221.22,756.095 L1222.26,756.095 L1221.3,755.664 C1221.26,755.766 1221.21,755.915 1221.21,756.095 L1222.26,756.095 L1221.3,755.664 L1221.94,755.954 L1221.54,755.37 C1221.44,755.442 1221.38,755.51 1221.3,755.664 L1221.94,755.954 L1221.54,755.37 L1222.07,756.14 L1222.07,755.222 C1221.81,755.225 1221.64,755.304 1221.54,755.37 L1222.07,756.14 L1222.07,755.222 L1222.07,756.383 L1222.54,755.32 C1222.4,755.257 1222.22,755.221 1222.07,755.222 L1222.07,756.383 L1222.54,755.32 L1222.22,756.043 L1222.8,755.493 C1222.78,755.464 1222.68,755.381 1222.54,755.32 L1222.22,756.043 L1222.8,755.493 L1219.96,752.491 L1219.96,752.49 L1219.4,753.023 L1220.1,752.732 C1220.05,752.602 1219.98,752.515 1219.96,752.49 L1219.4,753.023 L1220.1,752.732 L1219.03,753.172 L1220.19,753.172 C1220.19,753.025 1220.16,752.86 1220.1,752.732 L1219.03,753.172 L1220.19,753.172 L1219.15,753.172 L1220.1,753.603 C1220.15,753.501 1220.19,753.353 1220.19,753.172 L1219.15,753.172 L1220.1,753.603 L1219.46,753.313 L1219.86,753.897 C1219.96,753.826 1220.03,753.757 1220.1,753.603 L1219.46,753.313 L1219.86,753.897 L1219.33,753.128 L1219.33,754.046 C1219.6,754.043 1219.76,753.964 1219.86,753.897 L1219.33,753.128 L1219.33,754.046 L1219.33,752.886 L1218.87,753.948 C1219.01,754.011 1219.18,754.047 1219.33,754.046 L1219.33,752.886 L1218.87,753.948 L1219.18,753.227 L1218.61,753.776 C1218.63,753.804 1218.73,753.887 1218.87,753.948 L1219.18,753.227 L1218.61,753.776 L1221.45,756.776 L1223.62,754.714 L1225.8,752.651 L1222.96,749.649 C1222.49,749.15 1221.92,748.734 1221.29,748.457 C1220.66,748.178 1219.98,748.044 1219.33,748.044994 C1218.6,748.044994 1217.92,748.21 1217.32,748.476 C1216.41,748.879 1215.68,749.496 1215.12,750.282 C1214.57,751.065 1214.19,752.056 1214.19,753.172 C1214.19,753.781 1214.31,754.418 1214.56,755.012 C1214.8,755.607 1215.16,756.154 1215.6,756.618 L1215.6,756.616 L1218.45,759.619 C1218.92,760.119 1219.49,760.534 1220.12,760.811 C1220.75,761.089 1221.43,761.224 1222.07,761.222022 C1222.8,761.222022 1223.49,761.058 1224.09,760.792 C1224.99,760.389 1225.73,759.772 1226.28,758.986 C1226.84,758.203 1227.21,757.212 1227.21,756.095 C1227.22,755.487 1227.1,754.851 1226.85,754.257 C1226.61,753.661 1226.24,753.114 1225.8,752.65 L1223.62,754.714 M1235.01,766.732 L1232.83,768.796 L1233.4,768.261 L1232.69,768.553 C1232.74,768.683 1232.81,768.77 1232.83,768.796 L1233.4,768.261 L1232.69,768.553 L1233.76,768.114 L1232.6,768.114 C1232.6,768.26 1232.63,768.424 1232.69,768.553 L1233.76,768.114 L1232.6,768.114 L1233.64,768.114 L1232.69,767.683 C1232.64,767.784 1232.6,767.933 1232.6,768.114 L1233.64,768.114 L1232.69,767.683 L1233.33,767.972 L1232.93,767.389 C1232.83,767.46 1232.76,767.529 1232.69,767.683 L1233.33,767.972 L1232.93,767.389 L1233.46,768.158 L1233.46,767.241 C1233.19,767.243 1233.03,767.322 1232.93,767.389 L1233.46,768.158 L1233.46,767.241 L1233.46,768.401 L1233.92,767.339 C1233.78,767.276 1233.61,767.239 1233.46,767.241 L1233.46,768.401 L1233.92,767.339 L1233.61,768.062 L1234.19,767.511 C1234.16,767.482 1234.07,767.399 1233.92,767.339 L1233.61,768.062 L1234.19,767.511 L1231.34,764.509 L1231.34,764.504 L1230.79,765.023 L1231.48,764.739 C1231.43,764.611 1231.36,764.527 1231.34,764.504 L1230.79,765.023 L1231.48,764.739 L1230.42,765.177 L1231.57,765.177 C1231.57,765.03 1231.54,764.866 1231.48,764.739 L1230.42,765.177 L1231.57,765.177 L1230.53,765.177 L1231.48,765.606 C1231.53,765.504 1231.57,765.356 1231.57,765.177 L1230.53,765.177 L1231.48,765.606 L1230.83,765.314 L1231.24,765.905 C1231.34,765.832 1231.41,765.761 1231.48,765.606 L1230.83,765.314 L1231.24,765.905 L1230.7,765.13 L1230.7,766.054 C1230.97,766.052 1231.14,765.972 1231.24,765.905 L1230.7,765.13 L1230.7,766.054 L1230.7,764.893 L1230.24,765.956 C1230.38,766.019 1230.55,766.056 1230.7,766.054 L1230.7,764.893 L1230.24,765.956 L1230.55,765.236 L1229.97,765.785 C1230,765.813 1230.09,765.896 1230.24,765.956 L1230.55,765.236 L1229.97,765.785 L1229.98,765.786 L1232.83,768.798 L1232.83,768.796 L1235.01,766.732 L1237.19,764.667 L1234.33,761.655 L1234.33,761.657 C1233.86,761.159 1233.29,760.743 1232.66,760.466 C1232.03,760.188 1231.35,760.053 1230.7,760.054978 C1229.97,760.054978 1229.29,760.219 1228.69,760.484 C1227.79,760.886 1227.05,761.504 1226.49,762.29 C1225.94,763.073 1225.57,764.064 1225.57,765.177 C1225.57,765.79 1225.69,766.43 1225.93,767.027 C1226.18,767.625 1226.55,768.175 1226.99,768.64 L1226.99,768.635 L1229.83,771.637 C1230.3,772.136 1230.87,772.552 1231.5,772.829 C1232.13,773.107 1232.81,773.242 1233.46,773.241006 C1234.19,773.24 1234.87,773.076 1235.47,772.81 C1236.38,772.407 1237.11,771.79 1237.67,771.004 C1238.22,770.22 1238.6,769.229 1238.6,768.114 C1238.6,767.505 1238.48,766.869 1238.24,766.275 C1237.99,765.68 1237.63,765.133 1237.19,764.669 L1237.19,764.667 L1235.01,766.732 M1243.39,781.567 L1245.57,779.505 L1242.72,776.502 L1242.72,776.5 L1242.16,777.036 L1242.87,776.743 C1242.82,776.613 1242.75,776.526 1242.72,776.5 L1242.16,777.036 L1242.87,776.743 L1241.8,777.183 L1242.95,777.183 C1242.95,777.037 1242.92,776.872 1242.87,776.743 L1241.8,777.183 L1242.95,777.183 L1241.91,777.183 L1242.87,777.614 C1242.91,777.513 1242.95,777.364 1242.95,777.183 L1241.91,777.183 L1242.87,777.614 L1242.23,777.325 L1242.63,777.908 C1242.73,777.836 1242.79,777.768 1242.87,777.614 L1242.23,777.325 L1242.63,777.908 L1242.1,777.138 L1242.1,778.055994 C1242.36,778.054 1242.53,777.974 1242.63,777.908 L1242.1,777.138 L1242.1,778.055994 L1242.1,776.895 L1241.63,777.958 C1241.77,778.021 1241.95,778.058 1242.1,778.055994 L1242.1,776.895 L1241.63,777.958 L1241.95,777.238 L1241.37,777.786 C1241.39,777.815 1241.49,777.897 1241.63,777.958 L1241.95,777.238 L1241.37,777.786 L1244.21,780.788 L1244.78,780.254 L1244.06,780.546 C1244.12,780.676 1244.19,780.763 1244.21,780.789 L1244.78,780.254 L1244.06,780.546 L1245.13,780.106 L1243.98,780.107 C1243.98,780.253 1244.01,780.417 1244.06,780.546 L1245.13,780.106 L1243.98,780.107 L1245.02,780.107 L1244.07,779.676 C1244.02,779.777 1243.98,779.925 1243.98,780.107 L1245.02,780.107 L1244.07,779.676 L1244.71,779.965 L1244.31,779.382 C1244.21,779.453 1244.14,779.522 1244.07,779.676 L1244.71,779.965 L1244.31,779.382 L1244.83,780.151 L1244.83,779.234 C1244.57,779.236 1244.4,779.315 1244.31,779.382 L1244.83,780.151 L1244.83,779.234 L1244.83,780.395 L1245.3,779.332 C1245.16,779.269 1244.99,779.232 1244.83,779.234 L1244.83,780.395 L1245.3,779.332 L1244.98,780.057 L1245.57,779.505 C1245.54,779.476 1245.44,779.393 1245.3,779.332 L1244.98,780.057 L1245.57,779.505 L1241.21,783.629 C1241.68,784.129 1242.25,784.545 1242.88,784.822 C1243.51,785.1 1244.19,785.235 1244.83,785.234006 C1245.56,785.233 1246.25,785.069 1246.85,784.803 C1247.75,784.401 1248.49,783.783 1249.05,782.997 C1249.6,782.213 1249.98,781.222 1249.98,780.107 C1249.98,779.498 1249.86,778.862 1249.61,778.268 C1249.37,777.673 1249.01,777.126 1248.57,776.662 L1245.72,773.66 C1245.25,773.161 1244.68,772.745 1244.05,772.468 C1243.42,772.189 1242.74,772.055 1242.1,772.055994 C1241.37,772.055994 1240.68,772.221 1240.08,772.487 C1239.18,772.889 1238.44,773.507 1237.88,774.293 C1237.33,775.077 1236.96,776.068 1236.95,777.183 C1236.95,777.792 1237.07,778.428 1237.32,779.023 C1237.56,779.618 1237.93,780.165 1238.37,780.629 L1238.37,780.627 L1241.21,783.63 L1243.39,781.567 M1228.8,806.678 L1230.84,808.883 C1244.26,796.506 1258.11,783.915 1270.91,769.369 C1271.9,768.247 1271.91,766.571 1270.94,765.436 L1259.43,751.986 C1258.86,751.326 1258.04,750.943 1257.17,750.937 C1256.3,750.93 1255.47,751.3 1254.9,751.951 C1253.56,753.466 1252.05,754.64 1250.54,755.416 C1249.02,756.194 1247.5,756.573 1246.11,756.573 C1245.13,756.572 1244.21,756.391 1243.32,756.015 L1243.31,756.011 C1242.37,755.613 1241.61,755.112 1240.98,754.523 C1240.03,753.638 1239.34,752.533 1238.86,751.194 C1238.38,749.859 1238.14,748.299 1238.14,746.64 C1238.14,744.592 1238.51,742.403 1239.17,740.366 C1239.82,738.329 1240.76,736.445 1241.82,734.998 C1242.63,733.877 1242.57,732.333 1241.67,731.28 L1226.04,713.047 C1225.48,712.396 1224.67,712.014 1223.81,711.999601 C1222.95,711.986 1222.13,712.341 1221.55,712.973 C1205.49,730.506 1185.28,746.465 1163.85,760.245 C1142.43,774.027 1119.77,785.636 1098.83,794.523 C1097.93,794.908 1097.27,795.707 1097.07,796.669 C1096.87,797.631 1097.15,798.627 1097.82,799.343 L1115.69,818.291 C1116.58,819.24 1117.98,819.503 1119.15,818.944 C1121.05,818.041 1123.41,817.523 1125.98,817.524 C1128.57,817.524 1131.37,818.046 1134.14,819.17 L1134.14,819.172 C1137.27,820.426 1140.32,822.729 1142.49,825.408 C1143.57,826.744 1144.44,828.168 1145.02,829.567 C1145.6,830.967 1145.9,832.334 1145.89,833.591 C1145.89,834.883 1145.6,836.058 1144.95,837.206 C1144.3,838.35 1143.25,839.494 1141.57,840.577 C1140.82,841.057 1140.32,841.852 1140.21,842.735 C1140.1,843.619 1140.39,844.511 1141,845.158 L1153.35,858.266 C1154.28,859.248 1155.75,859.492 1156.94,858.859 C1167.06,853.492 1176.99,847.727 1186.69,841.537 L1186.78,841.472 C1186.79,841.466 1195.59,835.357 1205.47,828.247 C1210.41,824.692 1215.62,820.888 1220.15,817.463 C1222.42,815.751 1224.52,814.133 1226.33,812.683 C1228.15,811.232 1229.67,809.955 1230.84,808.883 L1228.8,806.678 L1226.77,804.472 C1225.78,805.379 1224.33,806.598 1222.58,807.997 C1216.44,812.908 1206.61,820.071 1198.34,825.974 C1194.21,828.928 1190.46,831.572 1187.75,833.476 C1186.39,834.428 1185.29,835.196 1184.54,835.725 C1183.78,836.254 1183.36,836.543 1183.36,836.544 L1185.07,839.008 L1183.46,836.479 C1173.9,842.579 1164.11,848.264 1154.13,853.559 L1155.53,856.209 L1157.72,854.152 L1145.37,841.045 L1143.19,843.101 L1144.81,845.626 C1147.17,844.112 1148.98,842.263 1150.16,840.181 C1151.35,838.104 1151.9,835.822 1151.89,833.591 C1151.89,831.409 1151.4,829.275 1150.56,827.266 C1149.31,824.252 1147.3,821.493 1144.86,819.148 C1142.41,816.806 1139.52,814.875 1136.39,813.608 L1136.39,813.611 C1132.92,812.202 1129.37,811.525 1125.98,811.524 C1122.61,811.526 1119.4,812.19 1116.58,813.522 L1117.87,816.233 L1120.05,814.176 L1102.19,795.227 L1100.01,797.285 L1101.18,800.047 C1122.41,791.032 1145.34,779.284 1167.1,765.292 C1188.86,751.297 1209.44,735.065 1225.97,717.026 L1223.76,715 L1221.48,716.952 L1237.11,735.185 L1239.39,733.233 L1236.97,731.468 C1235.47,733.523 1234.29,735.941 1233.46,738.53 C1232.62,741.121 1232.15,743.884 1232.14,746.64 C1232.15,749.608 1232.7,752.592 1234.11,755.262 C1234.81,756.593 1235.74,757.837 1236.89,758.911 C1238.04,759.985 1239.42,760.883 1240.98,761.541 L1240.97,761.537 C1242.63,762.241 1244.38,762.574 1246.11,762.573 C1248.59,762.572 1251.02,761.908 1253.27,760.755 C1255.52,759.601 1257.6,757.956 1259.4,755.922 L1257.15,753.937 L1254.87,755.887 L1266.38,769.337 L1268.66,767.387 L1266.4,765.405 C1253.89,779.628 1240.21,792.078 1226.77,804.472 L1228.8,806.678" id="Fill-467" fill="#FFFFFE"></path>
            <path d="M1212.59,742.836 C1214.46,744.808 1211.46,747.649 1209.59,745.677 L1206.75,742.676 C1204.86,740.694 1207.87,737.853 1209.75,739.834 L1212.59,742.836 M1223.97,754.828 C1225.84,756.8 1222.84,759.641 1220.97,757.671 L1218.13,754.668 C1216.26,752.696 1219.26,749.855 1221.13,751.826 L1223.97,754.828 M1235.35,766.847 C1237.22,768.818 1234.22,771.66 1232.35,769.688 L1229.51,766.687 C1227.63,764.705 1230.63,761.864 1232.49,763.835 L1235.35,766.847 M1243.73,781.682 L1240.89,778.68 C1239.02,776.708 1242.02,773.866 1243.89,775.837 L1246.73,778.84 C1248.6,780.812 1245.6,783.653 1243.73,781.682 M1229.15,806.792 C1242.58,794.406 1256.34,781.886 1269,767.501 L1257.49,754.051 C1253.26,758.845 1247.39,760.971 1242.49,758.892 C1232.81,754.814 1234.44,740.629 1239.74,733.346 L1224.1,715.114 C1191.51,750.686 1142.53,779.497 1100.35,797.398 L1118.21,816.347 C1122.95,814.104 1129.39,813.982 1135.61,816.506 C1146.65,820.96 1155.47,835.554 1143.53,843.216 L1155.88,856.323 C1165.93,850.992 1175.79,845.268 1185.42,839.122 C1185.42,839.122 1220.56,814.71 1229.15,806.792" id="Fill-468" fill="#F8C823"></path>
            <g id="Group-478" transform="translate(1103.320000, 753.038276)">
                <mask id="mask-2" fill="white">
                    <use xlink:href="#path-1"></use>
                </mask>
                <g id="Clip-470"></g>
                <path d="M102.86,48.3657242 C100.49,48.3657242 96.14,45.1897242 91.91,41.5297242 C91.96,40.6787242 91.97,39.8127242 91.93,38.9327242 C96.13,41.2627242 101.44,44.0317242 104.34,44.8287242 C104.72,46.1267242 104.73,47.2257242 104.1,47.8917242 C103.8,48.2167242 103.38,48.3657242 102.86,48.3657242 M98.76,35.3987242 C95.93,32.9277242 93.41,30.9947242 93.41,30.9947242 C93.41,30.9947242 102.05,29.5157242 109.03,27.0027242 C112.79,27.8357242 115.88,29.1737242 115.88,31.3207242 C115.88,33.9867242 111.54,34.6707242 107.08,34.6707242 C102.4,34.6707242 97.59,33.9137242 97.59,33.9137242 C97.59,33.9137242 98.06,34.4837242 98.76,35.3987242 M90.18,22.3557242 C90.18,22.3557242 90.76,21.3627242 91.62,19.8007242 C96.39,15.8747242 104.49,9.66772423 108.04,9.66772423 C108.54,9.66772423 108.96,9.79572423 109.26,10.0767242 C110.75,11.4877242 108.19,14.7687242 104.91,17.9557242 C97.71,19.4107242 90.18,22.3557242 90.18,22.3557242 M86.69,17.6037242 C85.95,15.9407242 85.11,14.3977242 84.12,13.0097242 C85.87,6.71072423 88.5,0.000724234191 91.74,0.000724234191 C91.81,0.000724234191 91.88,0.00372423419 91.95,0.0107242342 C93.25,0.127724234 93.83,1.19272423 93.94,2.80572423 C91.35,6.23172423 88.57,12.7287242 86.69,17.6037242" id="Fill-469" fill="#26A047" mask="url(#mask-2)"></path>
                <path d="M105.66,45.0537242 C105.32,45.0537242 104.87,44.9737242 104.34,44.8287242 C101.44,44.0317242 96.13,41.2627242 91.93,38.9327242 C91.79,35.2617242 90.95,31.3417242 89.88,27.2537242 C89.87,27.2007242 89.85,27.1467242 89.84,27.0927242 C88.94,23.6897242 87.97,20.4687242 86.69,17.6037242 C88.57,12.7287242 91.35,6.23172423 93.94,2.80572423 C95.03,1.36072423 96.09,0.462724234 97.03,0.462724234 C97.17,0.462724234 97.3,0.481724234 97.44,0.522724234 C101.14,1.63872423 94.66,14.2787242 91.62,19.8007242 C90.76,21.3627242 90.18,22.3557242 90.18,22.3557242 C90.18,22.3557242 97.71,19.4107242 104.91,17.9557242 C107.27,17.4787242 109.59,17.1617242 111.6,17.1617242 C114.49,17.1617242 116.73,17.8167242 117.49,19.5937242 C118.75,22.5377242 114.38,25.0737242 109.03,27.0027242 C102.05,29.5157242 93.41,30.9947242 93.41,30.9947242 C93.41,30.9947242 95.93,32.9277242 98.76,35.3987242 C102.24,38.4357242 106.19,42.2847242 106.46,44.3567242 C106.52,44.8417242 106.23,45.0537242 105.66,45.0537242" id="Fill-471" fill="#259646" mask="url(#mask-2)"></path>
                <path d="M12.52,60.7927242 C12.31,60.7177242 12.1,60.6407242 11.89,60.5637242 L11.89,60.5627242 C12.1,60.6397242 12.31,60.7167242 12.52,60.7917242 L12.52,60.7927242" id="Fill-472" fill="#F6C944" mask="url(#mask-2)"></path>
                <path d="M17.64,62.2967242 C15.83,61.8577242 14.12,61.3577242 12.52,60.7927242 L12.52,60.7917242 C14.12,61.3567242 15.83,61.8577242 17.64,62.2967242 M77.94,58.5887242 C90.06,53.4577242 92.64,45.9417242 91.8,37.1177242 C91.51,33.9797242 90.77,30.6757242 89.88,27.2537242 C90.95,31.3417242 91.79,35.2617242 91.93,38.9327242 C91.97,39.8127242 91.96,40.6787242 91.91,41.5297242 C91.48,48.4467242 87.98,54.3367242 77.94,58.5887242" id="Fill-473" fill="#ED9C2D" mask="url(#mask-2)"></path>
                <path d="M6.88,40.0337242 C6.91,40.0097242 6.93,39.9867242 6.95,39.9627242 C16.9,35.4367242 27.11,30.3467242 37.3,24.7467242 C37.3,24.7657242 37.31,24.7857242 37.32,24.8057242 C27.09,30.4147242 16.85,35.5067242 6.88,40.0337242 M47.2,19.2167242 C47.19,19.1937242 47.18,19.1697242 47.18,19.1467242 C50.32,17.3087242 53.46,15.4237242 56.58,13.4917242 C56.65,13.4737242 56.73,13.4567242 56.81,13.4397242 C53.62,15.4127242 50.41,17.3407242 47.2,19.2167242" id="Fill-474" fill="#F6C944" mask="url(#mask-2)"></path>
                <path d="M41.07,56.7377242 C37.34,56.7377242 33.65,56.5787242 30.1,56.2507242 C26.87,47.5957242 23.17,41.7557242 20.59,41.7557242 C20.45,41.7557242 20.31,41.7727242 20.18,41.8077242 C18.61,42.2177242 17.81,45.0147242 17.76,49.3027242 L17.76,50.1987242 C17.77,51.4607242 17.85,52.8347242 17.98,54.3037242 C10.58,52.4927242 4.78,49.6387242 2.09,45.6237242 C3.39,43.7697242 5.01,41.8967242 6.88,40.0337242 C16.85,35.5067242 27.09,30.4147242 37.32,24.8057242 C40.48,35.0567242 44.56,42.4857242 47.2,42.5437242 L47.26,42.5437242 C47.36,42.5417242 47.47,42.5277242 47.56,42.5017242 C50.4,41.7597242 50.2,31.4947242 47.2,19.2167242 C50.41,17.3407242 53.62,15.4127242 56.81,13.4397242 C57.5,13.2837242 58.18,13.1437242 58.84,13.0197242 C57.75,14.0137242 57.11,15.2157242 57.08,16.5547242 C57,20.5067242 62.24,24.1027242 68.79,24.5807242 C69.27,24.6167242 69.75,24.6337242 70.22,24.6337242 C76.1,24.6337242 80.71,21.9477242 80.78,18.2847242 C80.79,17.9687242 80.75,17.6547242 80.69,17.3437242 C84.62,21.3307242 86.67,27.2867242 88.4,33.9207242 C89.08,36.5167242 89.66,39.0467242 90.04,41.4877242 C88.32,44.4097242 85.53,47.0257242 81.25,49.2667242 C78.53,41.6667242 75.8,36.6257242 74.15,36.6257242 C74.09,36.6257242 74.02,36.6337242 73.96,36.6497242 C72.28,37.0897242 72.38,43.4367242 73.95,52.2517242 C72.81,52.6187242 71.6,52.9697242 70.32,53.3047242 C61.77,55.5377242 51.29,56.7377242 41.07,56.7377242" id="Fill-475" fill="#ED9C2D" mask="url(#mask-2)"></path>
                <path d="M0.01,47.9587242 L2.27373675e-13,47.9547242 C0.01,47.8157242 0.01,47.6747242 0.02,47.5357242 L0.03,47.5407242 C0.02,47.6807242 0.01,47.8197242 0.01,47.9587242" id="Fill-476" fill="#F6C944" mask="url(#mask-2)"></path>
                <path d="M0.03,47.5407242 L0.02,47.5357242 C0.14,45.8897242 0.65,44.1827242 1.48,42.4417242 C1.48,42.4397242 1.49,42.4387242 1.49,42.4377242 C0.78,43.9137242 0.31,45.3637242 0.11,46.7747242 C0.08,47.0317242 0.05,47.2867242 0.03,47.5407242 M89.84,27.0927242 C87.21,17.0767242 83.84,8.63672423 74.3,6.22172423 C78.72,7.33972423 81.81,9.74972423 84.12,13.0097242 C85.11,14.3977242 85.95,15.9407242 86.69,17.6037242 C87.97,20.4687242 88.94,23.6897242 89.84,27.0927242" id="Fill-477" fill="#ED9C2D" mask="url(#mask-2)"></path>
            </g>
            <g id="Group-488" transform="translate(1103.320000, 790.156000)">
                <mask id="mask-4" fill="white">
                    <use xlink:href="#path-3"></use>
                </mask>
                <g id="Clip-480"></g>
                <path d="M34.59,27.441 C34.4,27.432 34.21,27.423 34.03,27.413 C34.21,27.422 34.4,27.432 34.59,27.441" id="Fill-479" fill="#FFFFFE" mask="url(#mask-4)"></path>
                <path d="M40.84,27.583 L40.38,27.583 C38.44,27.58 36.5,27.533 34.59,27.441 C36.57,27.536 38.59,27.583 40.61,27.583 C50.84,27.583 61.34,26.381 69.89,24.146 C72.93,23.351 75.59,22.463 77.9,21.489 C75.59,22.463 72.93,23.352 69.89,24.147 C61.4,26.365 51,27.566 40.84,27.583" id="Fill-481" fill="#F6BF25" mask="url(#mask-4)"></path>
                <path d="M34.59,27.441 C34.4,27.432 34.21,27.422 34.03,27.413 C33.55,27.16 33.07,26.926 32.58,26.711 C32.55,26.62 32.53,26.529 32.5,26.437 C33.21,26.732 33.91,27.068 34.59,27.441" id="Fill-482" fill="#F9D957" mask="url(#mask-4)"></path>
                <path d="M40.61,27.583 C38.59,27.583 36.57,27.536 34.59,27.441 C33.91,27.068 33.21,26.732 32.5,26.437 C31.75,23.846 30.94,21.394 30.1,19.133 C33.65,19.461 37.34,19.62 41.07,19.62 C51.29,19.62 61.77,18.42 70.32,16.187 C71.6,15.852 72.81,15.501 73.95,15.134 C74.36,17.418 74.87,19.868 75.47,22.424 C78.63,21.287 81.24,20.007 83.37,18.609 L83.37,18.605 C82.68,16.307 81.97,14.14 81.25,12.149 C85.53,9.908 88.32,7.292 90.04,4.37 C90.37,6.554 90.53,8.667 90.44,10.692 C91.88,7.436 92.17,3.842 91.8,0 C92.64,8.824 90.06,16.34 77.94,21.471 C77.93,21.476 77.92,21.48 77.9,21.485 C77.9,21.487 77.9,21.487 77.9,21.489 C75.59,22.463 72.93,23.351 69.89,24.146 C61.34,26.381 50.84,27.583 40.61,27.583" id="Fill-483" fill="#F0A92C" mask="url(#mask-4)"></path>
                <path d="M17.69,25.189 C17.67,25.186 17.66,25.182 17.64,25.179 C18.11,25.052 18.58,24.942 19.06,24.849 C19.06,24.864 19.06,24.88 19.07,24.895 C18.6,24.977 18.14,25.075 17.69,25.189 M12.52,23.674 C12.31,23.599 12.1,23.522 11.89,23.445 L0.39,11.25 C0.44,11.156 0.49,11.063 0.54,10.969 L12.52,23.674" id="Fill-484" fill="#F9D957" mask="url(#mask-4)"></path>
                <path d="M17.64,25.179 C15.83,24.74 14.12,24.239 12.52,23.674 L0.54,10.969 C0.99,10.153 1.51,9.331 2.09,8.506 C4.78,12.521 10.58,15.375 17.98,17.186 C18.19,19.53 18.55,22.112 19.06,24.849 C18.58,24.942 18.11,25.052 17.64,25.179" id="Fill-485" fill="#F0A92C" mask="url(#mask-4)"></path>
                <path d="M0.01,10.844 L0.01,10.841 C0.01,10.702 0.02,10.563 0.03,10.423 L0.03,10.425 C0.02,10.565 0.01,10.705 0.01,10.844" id="Fill-486" fill="#F9D957" mask="url(#mask-4)"></path>
                <path d="M0.03,10.425 L0.03,10.423 C0.05,10.169 0.08,9.914 0.11,9.657 C0.08,9.914 0.05,10.171 0.03,10.425" id="Fill-487" fill="#F0A92C" mask="url(#mask-4)"></path>
            </g>
            <g id="Group-493" transform="translate(1121.080000, 794.794000)">
                <mask id="mask-6" fill="white">
                    <use xlink:href="#path-5"></use>
                </mask>
                <g id="Clip-490"></g>
                <path d="M12.34,14.495 C8.03,14.098 3.92,13.454 0.22,12.548 C0.09,11.079 0.01,9.705 0,8.443 L0,7.547 C0.05,3.259 0.85,0.462 2.42,0.052 C2.55,0.017 2.69,0 2.83,0 C5.41,0 9.11,5.84 12.34,14.495" id="Fill-489" fill="#F0A92C" mask="url(#mask-6)"></path>
                <path d="M14.82,22.073 C14.62,21.984 14.41,21.899 14.21,21.816 C11.09,20.55 7.92,19.95 4.93,19.95 C3.68,19.95 2.47,20.054 1.31,20.257 C1.3,20.242 1.3,20.226 1.3,20.211 C2.56,19.969 3.88,19.845 5.24,19.845 C8.23,19.845 11.41,20.445 14.53,21.712 C14.6,21.741 14.67,21.77 14.74,21.799 C14.77,21.891 14.79,21.982 14.82,22.073" id="Fill-491" fill="#FBE668" mask="url(#mask-6)"></path>
                <path d="M14.74,21.799 C14.67,21.77 14.6,21.741 14.53,21.712 C11.41,20.445 8.23,19.845 5.24,19.845 C3.88,19.845 2.56,19.969 1.3,20.211 C0.79,17.474 0.43,14.892 0.22,12.548 C3.92,13.454 8.03,14.098 12.34,14.495 C13.18,16.756 13.99,19.208 14.74,21.799" id="Fill-492" fill="#F3B229" mask="url(#mask-6)"></path>
            </g>
            <g id="Group-497" transform="translate(1138.200000, 770.771881)">
                <mask id="mask-8" fill="white">
                    <use xlink:href="#path-7"></use>
                </mask>
                <g id="Clip-495"></g>
                <path d="M2.44,7.07211922 C2.43,7.05211922 2.42,7.03211922 2.42,7.01311922 C5.72,5.19911922 9.01,3.33311922 12.3,1.41311922 C12.3,1.43611922 12.31,1.46011922 12.32,1.48311922 C9.03,3.39911922 5.74,5.26111922 2.44,7.07211922" id="Fill-494" fill="#F9D957" mask="url(#mask-8)"></path>
                <path d="M12.38,24.8101192 L12.32,24.8101192 C9.68,24.7521192 5.6,17.3231192 2.44,7.07211922 C5.74,5.26111922 9.03,3.39911922 12.32,1.48311922 C15.32,13.7611192 15.52,24.0261192 12.68,24.7681192 C12.59,24.7941192 12.48,24.8081192 12.38,24.8101192" id="Fill-496" fill="#F0A92C" mask="url(#mask-8)"></path>
            </g>
            <g id="Group-501" transform="translate(1176.056016, 789.664000)">
                <path d="M1.21398355,15.626 C-0.356016449,6.811 -0.456016449,0.464 1.22398355,0.024 C1.28398355,0.008 1.35398355,0 1.41398355,0 C3.06398355,0 5.79398355,5.041 8.51398355,12.641 C6.44398355,13.727 4.03398355,14.725 1.21398355,15.626" id="Fill-498" fill="#F0A92C"></path>
                <path d="M2.73398355,22.916 L2.73398355,22.916 C2.13398355,20.36 1.62398355,17.91 1.21398355,15.626 C4.03398355,14.725 6.44398355,13.727 8.51398355,12.641 C9.23398355,14.632 9.94398355,16.799 10.6339836,19.097 L10.6339836,19.101 C8.50398355,20.499 5.89398355,21.779 2.73398355,22.916" id="Fill-500" fill="#F3B229"></path>
            </g>
            <g id="Group-511" transform="translate(1103.320000, 758.567659)">
                <mask id="mask-10" fill="white">
                    <use xlink:href="#path-9"></use>
                </mask>
                <g id="Clip-503"></g>
                <path d="M69.05,0.0103408217 C69,0.00934082168 68.94,0.00834082168 68.89,0.00734082168 L68.89,0.00634082168 C68.95,0.00834082168 69,0.00934082168 69.05,0.0103408217" id="Fill-502" fill="#FFFFFE" mask="url(#mask-10)"></path>
                <path d="M74.3,0.692340822 C72.72,0.294340822 70.98,0.0603408217 69.05,0.0103408217 C70.98,0.0603408217 72.72,0.294340822 74.3,0.692340822" id="Fill-504" fill="#F6BF25" mask="url(#mask-10)"></path>
                <path d="M1.49,36.9083408 C1.5,36.8943408 1.5,36.8793408 1.51,36.8663408 C3.32,36.0733408 5.13,35.2643408 6.95,34.4333408 C6.93,34.4573408 6.91,34.4803408 6.88,34.5043408 C5.08,35.3243408 3.28,36.1253408 1.49,36.9083408" id="Fill-505" fill="#F9D957" mask="url(#mask-10)"></path>
                <path d="M0.11,41.2453408 C0.31,39.8343408 0.78,38.3843408 1.49,36.9083408 C3.28,36.1253408 5.08,35.3243408 6.88,34.5043408 C5.01,36.3673408 3.39,38.2403408 2.09,40.0943408 C1.64,39.4293408 1.28,38.7333408 1.01,38.0043408 C0.57,39.1033408 0.27,40.1863408 0.11,41.2453408" id="Fill-506" fill="#F0A92C" mask="url(#mask-10)"></path>
                <path d="M56.58,7.96234082 C60.72,5.39134082 64.84,2.73834082 68.89,0.00734082168 C68.94,0.00834082168 69,0.00934082168 69.05,0.0103408217 C65.01,2.72234082 60.93,5.35634082 56.81,7.91034082 C56.73,7.92734082 56.65,7.94434082 56.58,7.96234082" id="Fill-507" fill="#F9D957" mask="url(#mask-10)"></path>
                <path d="M90.04,35.9583408 C89.66,33.5173408 89.08,30.9873408 88.4,28.3913408 C86.67,21.7573408 84.62,15.8013408 80.69,11.8143408 C80.75,12.1253408 80.79,12.4393408 80.78,12.7553408 C80.71,16.4183408 76.1,19.1043408 70.22,19.1043408 C69.75,19.1043408 69.27,19.0873408 68.79,19.0513408 C62.24,18.5733408 57,14.9773408 57.08,11.0253408 C57.11,9.68634082 57.75,8.48434082 58.84,7.49034082 C58.18,7.61434082 57.5,7.75434082 56.81,7.91034082 C60.93,5.35634082 65.01,2.72234082 69.05,0.0103408217 C70.98,0.0603408217 72.72,0.294340822 74.3,0.692340822 C83.84,3.10734082 87.21,11.5473408 89.84,21.5633408 C89.85,21.6173408 89.87,21.6713408 89.88,21.7243408 C90.77,25.1463408 91.51,28.4503408 91.8,31.5883408 C91.43,33.1083408 90.85,34.5673408 90.04,35.9583408" id="Fill-508" fill="#F0A92C" mask="url(#mask-10)"></path>
                <path d="M0.39,42.8383408 L0.01,42.4323408 C0.01,42.2933408 0.02,42.1533408 0.03,42.0133408 L0.54,42.5573408 C0.49,42.6513408 0.44,42.7443408 0.39,42.8383408" id="Fill-509" fill="#FBE668" mask="url(#mask-10)"></path>
                <path d="M0.54,42.5573408 L0.03,42.0133408 C0.05,41.7593408 0.08,41.5023408 0.11,41.2453408 C0.27,40.1863408 0.57,39.1033408 1.01,38.0043408 C1.28,38.7333408 1.64,39.4293408 2.09,40.0943408 C1.51,40.9193408 0.99,41.7413408 0.54,42.5573408 M90.44,42.2803408 C90.53,40.2553408 90.37,38.1423408 90.04,35.9583408 C90.85,34.5673408 91.43,33.1083408 91.8,31.5883408 C92.17,35.4303408 91.88,39.0243408 90.44,42.2803408" id="Fill-510" fill="#F3B229" mask="url(#mask-10)"></path>
            </g>
        </g>
    </g>
</svg>