<?xml version="1.0" encoding="UTF-8"?>
<svg width="666px" height="77px" viewBox="0 0 666 77" version="1.1" xmlns="http://www.w3.org/2000/svg" xmlns:xlink="http://www.w3.org/1999/xlink">
    <title>Group</title>
    <g id="Page-1" stroke="none" stroke-width="1" fill="none" fill-rule="evenodd">
        <g id="vectorstock_6489622" transform="translate(-32.000000, -16.000000)" fill="#2D2E2C">
            <g id="Group" transform="translate(32.094974, 16.767213)">
                <path d="M260.260026,40.0217869 C260.255026,40.0217869 260.250026,40.0217869 260.246026,40.0217869 L87.3850264,38.4357869 C86.5080264,38.4277869 85.8050264,37.7107869 85.8129588,36.8357869 C85.8210264,35.9597869 86.4700264,35.3057869 87.4130264,35.2637869 L260.274026,36.8497869 C261.150026,36.8577869 261.853026,37.5747869 261.845094,38.4497869 C261.838026,39.3217869 261.128026,40.0217869 260.260026,40.0217869" id="Fill-80"></path>
                <path d="M574.259026,40.0217869 C574.254026,40.0217869 574.249026,40.0217869 574.245026,40.0217869 L401.384026,38.4357869 C400.507026,38.4277869 399.804026,37.7107869 399.811959,36.8357869 C399.820026,35.9637869 400.529026,35.2637869 401.398026,35.2637869 C401.403026,35.2637869 401.407026,35.2637869 401.412026,35.2637869 L574.272026,36.8497869 C575.149026,36.8577869 575.852026,37.5747869 575.844094,38.4497869 C575.837026,39.3217869 575.127026,40.0217869 574.259026,40.0217869" id="Fill-83"></path>
                <path d="M264.419026,3.16878692 C258.370026,3.16878692 255.274026,4.86778692 255.219026,8.22078692 C255.071026,17.1317869 273.414026,34.4567869 286.719026,35.9607869 C287.512026,31.9417869 289.340026,19.3677869 283.253026,11.0857869 C279.697026,6.24578692 273.935026,3.59578692 266.125026,3.21178692 C265.533026,3.18278692 264.961026,3.16878692 264.419026,3.16878692 Z M287.974026,39.2287869 C287.957026,39.2287869 287.940026,39.2287869 287.921026,39.2277869 C273.647026,38.7547869 251.853026,19.8867869 252.047026,8.16778692 C252.099026,4.94678692 254.029026,-0.54521308 266.279026,0.0437869196 C275.096026,0.47878692 281.669026,3.56478692 285.818026,9.21978692 C293.998026,20.3667869 289.696026,37.3267869 289.508026,38.0437869 C289.326026,38.7437869 288.694026,39.2287869 287.974026,39.2287869 L287.974026,39.2287869 Z" id="Fill-84"></path>
                <path d="M286.721026,39.3247869 C273.416026,40.8287869 255.071026,58.1537869 255.219026,67.0657869 C255.279026,70.7187869 258.931026,72.4237869 266.125026,72.0737869 C273.939026,71.6877869 279.705026,69.0367869 283.261026,64.1907869 C289.352026,55.8887869 287.517026,43.3377869 286.721026,39.3247869 Z M264.419026,75.2887869 C253.772026,75.2887869 252.098026,70.1707869 252.047026,67.1177869 C251.853026,55.3987869 273.647026,36.5307869 287.921026,36.0587869 C288.768026,35.9967869 289.321026,36.5247869 289.508026,37.2417869 C289.696026,37.9587869 293.998026,54.9187869 285.818026,66.0667869 C281.669026,71.7207869 275.096026,74.8067869 266.279026,75.2427869 C265.635026,75.2737869 265.011026,75.2887869 264.419026,75.2887869 L264.419026,75.2887869 Z" id="Fill-85"></path>
                <path d="M390.879026,3.16878692 C390.337026,3.16878692 389.766026,3.18278692 389.174026,3.21178692 C381.359026,3.59778692 375.593026,6.24878692 372.038026,11.0947869 C365.947026,19.3977869 367.782026,31.9487869 368.578026,35.9607869 C381.883026,34.4567869 400.227026,17.1317869 400.080026,8.22078692 C400.024026,4.86778692 396.928026,3.16878692 390.879026,3.16878692 Z M367.325026,39.2287869 C366.605026,39.2287869 365.973026,38.7437869 365.790026,38.0437869 C365.603026,37.3267869 361.300026,20.3667869 369.481026,9.21978692 C373.630026,3.56478692 380.202026,0.47878692 389.019026,0.0437869196 C401.254026,-0.54521308 403.198026,4.94678692 403.252026,8.16778692 C403.445026,19.8867869 381.652026,38.7547869 367.378026,39.2277869 C367.359026,39.2287869 367.342026,39.2287869 367.325026,39.2287869 L367.325026,39.2287869 Z" id="Fill-86"></path>
                <path d="M368.579026,39.3247869 C367.786026,43.3437869 365.959026,55.9177869 372.045026,64.1997869 C375.601026,69.0397869 381.364026,71.6897869 389.174026,72.0737869 C389.766026,72.1027869 390.337026,72.1167869 390.879026,72.1167869 C390.881026,72.1167869 390.882026,72.1167869 390.884026,72.1167869 C396.930026,72.1167869 400.024026,70.4187869 400.080026,67.0667869 C400.229026,58.1557869 381.884026,40.8287869 368.579026,39.3247869 Z M390.884026,75.2887869 C390.882026,75.2887869 390.881026,75.2887869 390.879026,75.2887869 C390.286026,75.2887869 389.663026,75.2737869 389.019026,75.2427869 C380.202026,74.8067869 373.630026,71.7207869 369.481026,66.0667869 C361.300026,54.9187869 365.603026,37.9587869 365.790026,37.2417869 C365.977026,36.5247869 366.572026,35.9917869 367.378026,36.0587869 C381.654026,36.5307869 403.445026,55.4007869 403.252026,67.1197869 C403.201026,70.1717869 401.525026,75.2887869 390.884026,75.2887869 L390.884026,75.2887869 Z" id="Fill-87"></path>
                <path d="M326.309026,16.1287869 C321.624026,16.1287869 314.529026,17.8657869 309.958026,22.7647869 C306.513026,26.4547869 304.977026,31.3707869 305.392026,37.3767869 C306.578026,54.5857869 322.501026,57.2327869 329.292026,57.5697869 L329.419026,59.1587869 L329.419026,57.5737869 C332.030026,57.5737869 349.337026,53.5717869 349.337026,36.1007869 C349.337026,19.4197869 329.194026,16.3837869 328.991026,16.3557869 C328.178026,16.2027869 327.277026,16.1287869 326.309026,16.1287869 Z M329.419026,60.7447869 C329.392026,60.7447869 329.160026,60.7407869 329.134026,60.7387869 C323.176026,60.4417869 303.628026,57.8937869 302.226026,37.5937869 C301.749026,30.6767869 303.571026,24.9587869 307.639026,20.6007869 C314.015026,13.7697869 324.114026,12.1987869 329.510026,13.2277869 C329.665026,13.2477869 352.508026,16.6947869 352.508026,36.1007869 C352.508026,54.8427869 334.511026,60.7447869 329.419026,60.7447869 L329.419026,60.7447869 Z" id="Fill-88"></path>
                <path d="M55.6950264,23.0057869 C52.6460264,23.0057869 42.6100264,23.9047869 41.4690264,35.4437869 C40.2780264,47.4927869 51.0320264,51.1907869 55.7110264,52.2227869 C55.7850264,52.2397869 56.0700264,52.2917869 56.6620264,52.2917869 C56.7930264,52.2917869 69.9340264,52.1477869 72.0360264,39.7057869 C73.9730264,28.2437869 60.7910264,23.8737869 60.2280264,23.6917869 C59.0270264,23.2477869 57.4010264,23.0057869 55.6950264,23.0057869 Z M56.6620264,55.4637869 C56.0100264,55.4637869 55.4600264,55.4147869 55.0280264,55.3197869 C50.7330264,54.3737869 36.8320264,50.1207869 38.3130264,35.1307869 C39.4280264,23.8527869 48.0230264,19.8347869 55.6950264,19.8347869 C57.7940264,19.8347869 59.7720264,20.1407869 61.2630264,20.6957869 C66.8630264,22.4737869 77.0830264,28.8817869 75.1640264,40.2357869 C73.1280264,52.2807869 62.1710264,55.4637869 56.6620264,55.4637869 L56.6620264,55.4637869 Z" id="Fill-90"></path>
                <path d="M11.6700264,28.9517869 C9.3500264,28.9517869 3.8860264,29.6687869 3.2300264,36.3137869 C2.5190264,43.4927869 8.9910264,45.7087869 11.8060264,46.3277869 C11.8100264,46.3277869 11.9490264,46.3587869 12.2850264,46.3587869 C12.3640264,46.3587869 20.2080264,46.2727869 21.4600264,38.8617869 C22.6100264,32.0597869 14.7090264,29.4667869 14.3710264,29.3607869 C13.6520264,29.0957869 12.6710264,28.9517869 11.6700264,28.9517869 Z M12.2850264,49.5307869 C11.8300264,49.5307869 11.4380264,49.4947869 11.1240264,49.4257869 C8.2830264,48.7997869 -0.914973602,45.9847869 0.0740263981,36.0007869 C0.818026398,28.4657869 6.5520264,25.7797869 11.6700264,25.7797869 C13.0690264,25.7797869 14.3940264,25.9877869 15.4040264,26.3617869 C19.0930264,27.5327869 25.8700264,31.7997869 24.5880264,39.3917869 C23.2330264,47.4107869 15.9480264,49.5307869 12.2850264,49.5307869 L12.2850264,49.5307869 Z" id="Fill-91"></path>
                <path d="M609.520026,23.0057869 C607.814026,23.0057869 606.188026,23.2477869 605.058026,23.6687869 C604.424026,23.8737869 591.240026,28.2437869 593.178026,39.7057869 C595.279026,52.1467869 608.420026,52.2917869 608.553026,52.2917869 C609.143026,52.2917869 609.428026,52.2397869 609.501026,52.2227869 C614.181026,51.1927869 624.937026,47.4937869 623.744026,35.4437869 C622.605026,23.9047869 612.567026,23.0057869 609.520026,23.0057869 Z M608.553026,55.4637869 L608.553026,55.4637869 C603.043026,55.4637869 592.086026,52.2797869 590.049026,40.2357869 C588.130026,28.8807869 598.352026,22.4737869 604.025026,20.6707869 C605.443026,20.1407869 607.421026,19.8347869 609.520026,19.8347869 C617.192026,19.8347869 625.786026,23.8527869 626.901026,35.1307869 C628.384026,50.1227869 614.480026,54.3737869 610.184026,55.3197869 C609.753026,55.4147869 609.205026,55.4637869 608.553026,55.4637869 L608.553026,55.4637869 Z" id="Fill-92"></path>
                <path d="M653.545026,28.9517869 C652.544026,28.9517869 651.562026,29.0957869 650.917026,29.3357869 C650.511026,29.4667869 642.611026,32.0997869 643.754026,38.8617869 C645.007026,46.2727869 652.851026,46.3587869 652.930026,46.3587869 C653.266026,46.3587869 653.405026,46.3277869 653.407026,46.3277869 C656.224026,45.7087869 662.694026,43.4927869 661.985026,36.3137869 C661.327026,29.6687869 655.863026,28.9517869 653.545026,28.9517869 Z M652.930026,49.5307869 C649.267026,49.5297869 641.982026,47.4107869 640.625026,39.3917869 C639.343026,31.7997869 646.120026,27.5327869 649.884026,26.3377869 C650.819026,25.9877869 652.146026,25.7797869 653.545026,25.7797869 C658.662026,25.7797869 664.396026,28.4657869 665.141026,36.0007869 C666.128026,45.9847869 656.932026,48.7997869 654.090026,49.4257869 C653.777026,49.4947869 653.385026,49.5307869 652.930026,49.5307869 L652.930026,49.5307869 Z" id="Fill-93"></path>
            </g>
        </g>
    </g>
</svg>