<?xml version="1.0" encoding="UTF-8"?>
<svg width="118px" height="183px" viewBox="0 0 118 183" version="1.1" xmlns="http://www.w3.org/2000/svg" xmlns:xlink="http://www.w3.org/1999/xlink">
    <title>Group 2</title>
    <g id="Page-1" stroke="none" stroke-width="1" fill="none" fill-rule="evenodd">
        <g id="vectorstock_20069581" transform="translate(-712.000000, -389.000000)">
            <g id="Group-2" transform="translate(712.926203, 389.585306)">
                <polyline id="Fill-205" fill="#FFFFFE" points="22.8947966 137.621694 3.37279656 118.099694 22.8947966 137.620694 22.8947966 137.621694"></polyline>
                <path d="M31.9637966,168.378694 L31.9637966,175.639694 C31.9637966,175.639694 32.4277966,177.340694 35.3637966,178.266694 C38.2997966,179.194694 64.3177966,184.448694 87.2347966,179.039694 C87.2347966,179.039694 89.2917966,178.112694 89.2917966,176.258694 C89.2917966,174.403694 89.2917966,167.604694 89.2917966,167.604694 L31.9637966,168.378694" id="Fill-208" fill="#E9842D"></path>
                <path d="M110.077797,49.276694 L94.0387966,171.587694 C94.0387966,171.587694 95.9677966,176.502694 62.6917966,176.502694 C29.4077966,176.502694 28.6667966,171.587694 28.6667966,171.587694 L7.87079656,49.276694 C48.8687966,34.538694 110.077797,49.276694 110.077797,49.276694" id="Fill-209" fill="#EFB22A"></path>
                <path d="M105.441797,76.548694 L96.9767966,146.778694 C66.7887966,150.164694 47.2307966,148.988694 35.9547966,147.813694 C30.1857966,147.212694 26.5847966,146.611694 24.8377966,146.621694 L13.9617966,77.002694 C49.4337966,69.622694 98.0617966,75.231694 105.441797,76.548694" id="Fill-210" fill="#E9842D"></path>
                <path d="M77.6777966,166.995694 C77.5687966,166.995694 77.4587966,166.993694 77.3467966,166.989694 C70.1947966,166.726694 70.4807966,158.577694 70.4807966,158.577694 C70.4807966,158.577694 70.4537966,154.817694 70.4247966,148.806694 C75.7507966,148.608694 81.5887966,148.253694 87.9617966,147.686694 C85.7977966,160.515694 83.7987966,166.995694 77.6777966,166.995694 M96.6877966,75.401694 C90.4617966,74.725694 81.6867966,73.975694 71.6707966,73.569694 C73.6497966,62.534694 78.2467966,61.838694 86.7887966,61.838694 C93.3857966,61.838694 95.8197966,69.070694 96.6877966,75.401694" id="Fill-211" fill="#F3CB4A"></path>
                <path d="M70.4247966,148.806694 C70.3597966,135.159694 70.2817966,109.916694 70.4807966,90.754694 C70.5587966,83.250694 70.9327966,77.689694 71.6707966,73.569694 C81.6867966,73.975694 90.4617966,74.725694 96.6877966,75.401694 C97.3627966,80.328694 97.0887966,84.708694 97.0887966,84.708694 C97.0887966,84.708694 91.3657966,126.243694 88.7767966,142.660694 C88.4977966,144.432694 88.2287966,146.107694 87.9617966,147.686694 C81.5887966,148.253694 75.7507966,148.608694 70.4247966,148.806694" id="Fill-212" fill="#F2B347"></path>
                <path d="M60.9457966,162.814694 C60.9237966,162.814694 60.9017966,162.814694 60.8797966,162.812694 C58.4287966,162.673694 58.1567966,155.178694 58.1567966,155.178694 C58.1567966,155.178694 58.0357966,152.865694 57.8377966,148.999694 C58.4927966,149.004694 59.1587966,149.006694 59.8357966,149.006694 C61.0407966,149.006694 62.2767966,148.998694 63.5487966,148.981694 C63.3437966,158.190694 62.8157966,162.815694 60.9457966,162.814694 M62.6457966,73.312694 C60.8337966,73.283694 59.0007966,73.267694 57.1457966,73.267694 C56.3837966,73.267694 55.6167966,73.270694 54.8487966,73.275694 C55.3257966,66.660694 56.8117966,66.124694 59.3147966,66.019694 C59.3307966,66.019694 59.3467966,66.018694 59.3617966,66.018694 C60.9367966,66.018694 61.9707966,69.328694 62.6457966,73.312694" id="Fill-213" fill="#F3CB4A"></path>
                <path d="M59.8357966,149.006694 C59.1587966,149.006694 58.4927966,149.004694 57.8377966,148.999694 C57.2407966,137.409694 55.9407966,111.862694 55.0717966,92.833694 C54.6387966,83.344694 54.5647966,77.226694 54.8487966,73.275694 C55.6167966,73.270694 56.3837966,73.267694 57.1457966,73.267694 C59.0007966,73.267694 60.8337966,73.283694 62.6457966,73.312694 C63.6657966,79.334694 63.8647966,86.896694 63.8647966,86.896694 C63.8647966,86.896694 63.8027966,125.158694 63.6677966,140.286694 C63.6377966,143.534694 63.6057966,146.433694 63.5487966,148.981694 C62.2767966,148.998694 61.0407966,149.006694 59.8357966,149.006694" id="Fill-214" fill="#F2B347"></path>
                <path d="M13.2687966,72.605694 C13.2687966,72.605694 7.86879656,74.586694 8.46279656,78.746694 C9.05679656,82.906694 18.2677966,134.904694 18.2677966,134.904694 C18.2677966,134.904694 20.4917966,142.839694 24.1347966,142.140694 C27.7757966,141.441694 49.0227966,147.680694 97.5287966,142.183694 C97.5287966,142.183694 104.138797,141.738694 104.733797,136.389694 C105.327797,131.041694 110.081797,82.609694 110.081797,82.609694 C110.081797,82.609694 111.079797,73.196694 105.974797,72.108694 C100.870797,71.020694 49.8207966,64.785694 13.2687966,72.605694" id="Fill-215" fill="#DE4B3D"></path>
                <path d="M32.1677966,102.517694 C32.1677966,102.517694 29.8307966,73.263694 58.9437966,73.263694 C88.0567966,73.263694 84.9207966,105.201694 84.9207966,105.201694 C84.9207966,105.201694 79.3387966,129.438694 56.7507966,129.438694 C34.1637966,129.438694 32.1677966,102.517694 32.1677966,102.517694" id="Fill-216" fill="#FFFFFE"></path>
                <path d="M115.946797,48.335694 C115.278797,53.907694 109.363797,54.195694 109.363797,54.195694 C106.869797,55.113694 104.153797,55.891694 101.269797,56.531694 C97.8577966,57.301694 94.2147966,57.885694 90.4037966,58.311694 C88.3737966,58.543694 86.2877966,58.728694 84.1737966,58.867694 C80.6877966,59.117694 77.0997966,59.247694 73.4927966,59.294694 C70.3867966,59.340694 67.2717966,59.322694 64.1667966,59.247694 C61.0967966,59.173694 58.0477966,59.053694 55.0337966,58.895694 C52.5397966,58.765694 50.0737966,58.608694 47.6537966,58.422694 C43.8807966,58.154694 40.2187966,57.829694 36.7607966,57.495694 C33.1807966,57.143694 29.8067966,56.772694 26.7287966,56.401694 C22.4917966,55.910694 18.8107966,55.428694 15.8817966,55.048694 C12.1537966,54.556694 9.65079656,54.222694 8.79779656,54.195694 C3.70779656,54.037694 2.29879656,49.902694 2.29879656,49.902694 C2.29879656,49.902694 1.02879656,42.058694 0.129796562,37.543694 C0.110796562,37.423694 0.0827965622,37.311694 0.0637965622,37.200694 C-0.825203438,32.741694 7.87079656,33.409694 7.87079656,33.409694 C68.4867966,17.582694 103.467797,35.411694 110.077797,35.411694 C113.470797,35.411694 115.102797,37.348694 115.798797,39.981694 C116.466797,42.485694 116.280797,45.628694 115.946797,48.335694" id="Fill-217" fill="#782422"></path>
                <path d="M55.9967966,79.693694 C55.9967966,79.693694 38.3127966,82.081694 38.3127966,104.020694 C38.3127966,125.958694 55.9967966,125.136694 55.9967966,125.136694 C55.9967966,125.136694 62.1657966,116.499694 55.9967966,106.013694 C49.8277966,95.526694 55.9967966,79.693694 55.9967966,79.693694" id="Fill-218" fill="#581E1A"></path>
                <path d="M61.1367966,125.073694 C61.1367966,125.073694 78.8207966,119.524694 80.0537966,100.914694 C81.2887966,82.303694 61.1367966,79.219694 61.1367966,79.219694 C61.1367966,79.219694 56.8187966,91.145694 61.1367966,97.108694 C65.4557966,103.071694 70.3867966,112.814694 61.1367966,125.073694" id="Fill-219" fill="#581E1A"></path>
                <path d="M115.798797,39.981694 C106.406797,43.384694 88.9757966,45.544694 58.1217966,44.636694 C19.5807966,43.495694 5.14479656,40.315694 0.129796562,37.543694 C0.110796562,37.423694 0.0827965622,37.311694 0.0637965622,37.200694 C-0.825203438,32.741694 7.87079656,33.409694 7.87079656,33.409694 C68.4867966,17.582694 103.467797,35.411694 110.077797,35.411694 C113.470797,35.411694 115.102797,37.348694 115.798797,39.981694" id="Fill-220" fill="#581E1A"></path>
                <path d="M104.737797,25.184694 L104.737797,37.181694 C104.737797,37.181694 92.2487966,39.407694 58.9737966,39.852694 C25.6997966,40.306694 8.46479656,35.995694 8.46479656,35.995694 L8.46479656,23.812694 C8.46479656,23.191694 8.53879656,22.654694 8.66879656,22.171694 C9.27979656,19.779694 11.1347966,19.056694 11.1347966,19.056694 C48.3117966,16.219694 88.3547966,19.334694 100.815797,20.466694 C103.411797,20.576694 104.366797,23.516694 104.635797,24.702694 C104.709797,24.999694 104.737797,25.184694 104.737797,25.184694" id="Fill-221" fill="#DE4B3D"></path>
                <path d="M104.635797,24.702694 C94.7337966,26.529694 79.9647966,27.456694 58.3347966,26.816694 C31.1697966,26.010694 16.4737966,24.156694 8.66879656,22.171694 C9.27979656,19.779694 11.1347966,19.056694 11.1347966,19.056694 C48.3117966,16.219694 88.3547966,19.334694 100.815797,20.466694 C103.411797,20.576694 104.366797,23.516694 104.635797,24.702694" id="Fill-222" fill="#D14034"></path>
                <path d="M19.9897966,21.075694 L19.9897966,3.19969401 C19.9897966,3.19969401 21.0397966,-1.34930599 28.0387966,0.400694014 C33.7127966,1.81869401 70.4397966,14.528694 84.1357966,19.286694 C87.3317966,20.397694 86.2067966,21.689694 80.9857966,22.370694 C68.6597966,23.978694 44.3247966,25.955694 19.9897966,21.075694" id="Fill-223" fill="#782422"></path>
                <path d="M47.7567966,53.156694 C47.7377966,53.249694 47.7097966,53.286694 47.6817966,53.258694 L47.7567966,53.156694" id="Fill-224" fill="#782422"></path>
                <path d="M26.7287966,56.401694 C22.4917966,55.910694 18.8107966,55.428694 15.8817966,55.048694 C16.2147966,51.163694 17.2067966,46.685694 19.9887966,46.953694 C23.0387966,47.241694 25.3937966,52.516694 26.7287966,56.401694" id="Fill-225" fill="#581E1A"></path>
                <path d="M47.6537966,58.422694 C43.8807966,58.154694 40.2187966,57.829694 36.7607966,57.495694 C37.1397966,53.249694 38.3547966,47.538694 42.1657966,48.029694 C45.7717966,48.502694 47.1907966,54.093694 47.6537966,58.422694" id="Fill-226" fill="#581E1A"></path>
                <path d="M64.1667966,59.247694 C61.0967966,59.173694 58.0477966,59.053694 55.0337966,58.895694 C55.6737966,54.547694 57.0457966,48.762694 59.6977966,49.346694 C62.3207966,49.921694 63.5827966,55.288694 64.1667966,59.247694" id="Fill-227" fill="#581E1A"></path>
                <path d="M84.1737966,58.867694 C80.6877966,59.117694 77.0997966,59.247694 73.4927966,59.294694 C73.6507966,54.871694 74.6057966,48.113694 78.9817966,48.187694 C83.4697966,48.261694 84.1647966,54.825694 84.1737966,58.867694" id="Fill-228" fill="#581E1A"></path>
                <path d="M101.269797,56.531694 C97.8577966,57.301694 94.2147966,57.885694 90.4037966,58.311694 C90.8027966,54.704694 92.0457966,48.752694 95.8927966,48.187694 C99.2587966,47.696694 100.677797,52.591694 101.269797,56.531694" id="Fill-229" fill="#581E1A"></path>
                <path d="M9.23179656,156.542694 L12.9507966,162.601694 L13.2097966,162.441694 C13.3537966,162.353694 13.4297966,162.162694 13.4397966,161.869694 C13.4477966,161.576694 13.4207966,161.230694 13.3537966,160.833694 C13.2907966,160.436694 13.1897966,160.015694 13.0557966,159.571694 C12.9237966,159.128694 12.7897966,158.708694 12.6557966,158.313694 C12.5227966,157.917694 12.3957966,157.574694 12.2767966,157.280694 C12.1557966,156.987694 12.0687966,156.797694 12.0147966,156.710694 L11.6177966,156.060694 C11.5027966,155.874694 11.3457966,155.691694 11.1477966,155.514694 C10.9507966,155.338694 10.7277966,155.202694 10.4787966,155.105694 C10.2317966,155.010694 9.97479656,154.964694 9.70979656,154.967694 C9.44379656,154.972694 9.18079656,155.054694 8.92179656,155.213694 L8.82679656,155.302694 L9.23179656,156.542694 Z M6.49579656,157.328694 C6.17779656,157.424694 5.95679656,157.420694 5.83379656,157.316694 C5.71179656,157.214694 5.59979656,157.083694 5.50379656,156.924694 L5.44979656,156.838694 C4.99879656,156.101694 4.91379656,155.488694 5.19779656,154.996694 C5.48179656,154.504694 6.05079656,153.997694 6.90079656,153.474694 C7.39079656,153.174694 7.92779656,152.924694 8.51179656,152.723694 C9.09379656,152.525694 9.66979656,152.410694 10.2357966,152.380694 C10.8027966,152.349694 11.3427966,152.412694 11.8527966,152.564694 C12.3657966,152.717694 12.7967966,152.983694 13.1487966,153.362694 C13.4187966,153.576694 13.6507966,153.809694 13.8477966,154.066694 C14.0457966,154.323694 14.2317966,154.595694 14.4087966,154.883694 L14.6487966,155.272694 L14.7677966,155.468694 L14.8667966,155.676694 C15.1227966,156.094694 15.3577966,156.615694 15.5717966,157.237694 C15.7857966,157.861694 15.9607966,158.534694 16.0957966,159.255694 C16.2297966,159.977694 16.3037966,160.721694 16.3177966,161.487694 C16.3317966,162.253694 16.2667966,162.989694 16.1227966,163.692694 C15.9777966,164.397694 15.7337966,165.043694 15.3907966,165.631694 C15.0467966,166.220694 14.5867966,166.690694 14.0107966,167.045694 C13.8927966,167.116694 13.7287966,167.212694 13.5157966,167.334694 C13.3017966,167.455694 13.1747966,167.528694 13.1307966,167.555694 C13.1017966,167.572694 13.0337966,167.574694 12.9267966,167.560694 C12.8177966,167.548694 12.7567966,167.526694 12.7387966,167.498694 L6.49579656,157.328694 L6.49579656,157.328694 Z" id="Fill-254" fill="#FFFFFE"></path>
            </g>
        </g>
    </g>
</svg>