<?xml version="1.0" encoding="UTF-8"?>
<svg width="172px" height="187px" viewBox="0 0 172 187" version="1.1" xmlns="http://www.w3.org/2000/svg" xmlns:xlink="http://www.w3.org/1999/xlink">
    <title>Group 4</title>
    <g id="Page-1" stroke="none" stroke-width="1" fill="none" fill-rule="evenodd">
        <g id="vectorstock_20069581" transform="translate(-411.000000, -144.000000)">
            <g id="Group-4" transform="translate(411.815810, 144.065000)">
                <path d="M159.67819,53.323 C159.43719,53.775 159.17619,54.276 158.89219,54.815 C146.23919,78.728 89.1161902,186.326 85.5931902,186.326 C82.3311902,186.326 33.8731902,94.086 16.8191902,61.432 C15.0061902,57.96 13.5451902,55.161 12.5361902,53.218 C78.8391902,1.548 148.02219,44.428 159.67819,53.323" id="Fill-261" fill="#EFB637"></path>
                <path d="M169.83619,42.893 L169.82419,42.917 C169.82419,42.917 169.82419,42.917 167.55219,47.665 C165.28019,52.413 161.36219,50.141 161.36219,50.141 C80.2701902,-5.571 14.9071902,46.656 11.3901902,49.733 C7.87419025,52.809 4.54419025,49.937 1.23919025,43.537 C0.985190246,43.041 0.774190246,42.558 0.601190246,42.094 C-1.41080975,36.585 2.27219025,33.428 2.27219025,33.428 C2.27219025,33.428 20.2241902,0 79.8551902,0 C139.49219,0 165.28019,30.128 165.28019,30.128 C172.40519,36.554 170.00919,42.49 169.83619,42.893" id="Fill-262" fill="#8B2626"></path>
                <path d="M169.83619,42.893 L169.82419,42.917 C169.82419,42.917 169.82419,42.917 168.35119,46 C168.12119,46.477 167.85519,47.028 167.55219,47.665 C167.37219,48.043 167.17419,48.383 166.97019,48.674 C164.68019,52.066 161.36219,50.141 161.36219,50.141 C80.2701902,-5.571 14.9071902,46.656 11.3901902,49.733 C9.16819025,51.677 7.02019025,51.243 4.91019025,49.046 C3.82019025,47.919 2.74319025,46.328 1.67219025,44.347 C1.52319025,44.087 1.38119025,43.815 1.23919025,43.537 C0.985190246,43.041 0.774190246,42.558 0.601190246,42.094 C1.27619025,40.497 2.27219025,39.643 2.27219025,39.643 C2.27219025,39.643 20.2241902,6.215 79.8551902,6.215 C139.49219,6.215 165.28019,36.343 165.28019,36.343 C167.86219,38.671 169.19319,40.936 169.83619,42.893" id="Fill-263" fill="#D17F2F"></path>
                <path d="M4.91019025,49.046 L4.91019025,49.046 C3.82019025,47.919 2.74319025,46.328 1.67219025,44.347 C2.32819025,42.992 3.17019025,42.267 3.17019025,42.267 C3.17019025,42.267 20.0321902,11.762 79.6631902,11.762 C139.29919,11.762 162.60019,41.215 162.60019,41.215 C163.80019,42.298 166.13419,44.143 168.35119,46 C168.12119,46.477 167.85519,47.028 167.55219,47.665 C167.37219,48.043 167.17419,48.383 166.97019,48.674 C163.98019,46.65 161.36219,44.217 161.36219,44.217 C132.08319,23.87 105.35319,17.081 82.7181902,17.081 C39.1761902,17.081 10.7761902,42.193 8.46319025,44.217 C6.45719025,45.976 5.75819025,48.439 4.91019025,49.046" id="Fill-264" fill="#DA9D48"></path>
                <path d="M154.85219,53.609 C142.91819,76.162 89.0431902,177.641 85.7221902,177.641 C82.6451902,177.641 36.9441902,90.647 20.8591902,59.85 C21.0581902,56.645 22.0161902,51.472 25.9681902,48.711 C31.9521902,44.531 34.4341902,50.346 38.9581902,47.514 C43.4821902,44.677 46.8391902,27.746 63.4781902,41.904 C80.1171902,56.061 81.1391902,32.3 89.0201902,33.672 C96.9021902,35.044 95.8281902,45.774 107.33419,44.566 C118.84219,43.363 119.42519,37.332 129.15819,41.221 C138.89019,45.115 130.71619,54.841 134.99719,56.885 C138.82019,58.712 143.73019,50.071 154.85219,53.609" id="Fill-265" fill="#FAE4A2"></path>
                <path d="M74.6611902,80.308 C75.1941902,83.087 67.5231902,83.701 66.7601902,85.405 C65.9961902,87.109 67.4781902,87.526 68.8731902,91.556 C70.2691902,95.587 67.9121902,97.099 63.4971902,97.634 C59.0821902,98.169 57.1001902,94.733 58.3291902,93.018 C59.5581902,91.303 58.4501902,89.179 58.4501902,89.179 C58.4501902,89.179 57.7731902,86.466 53.2051902,87.419 C48.6381902,88.373 51.0871902,81.244 53.4931902,78.759 C55.8971902,76.273 58.8711902,79.597 60.8751902,80.303 C62.8801902,81.009 63.2721902,76.962 65.6051902,74.1 C67.9381902,71.239 74.1281902,77.529 74.6611902,80.308 Z M60.7861902,75.348 C59.3131902,76.688 57.1951902,73.155 53.7421902,72.183 C50.2891902,71.212 40.0291902,81.346 45.6821902,87.276 C51.3341902,93.206 53.7921902,88.988 55.9441902,90.689 C58.0961902,92.39 53.8981902,94.229 53.8981902,94.229 C49.6291902,100.528 67.5321902,107.028 72.2571902,101.606 C76.9831902,96.184 72.3921902,91.284 71.7961902,87.17 C71.2001902,83.057 77.0681902,85.102 80.6391902,80.671 C84.2091902,76.239 72.3871902,64.189 66.0631902,65.785 C59.7401902,67.382 62.2591902,74.01 60.7861902,75.348 L60.7861902,75.348 Z" id="Fill-266" fill="#608A3E"></path>
                <path d="M52.1091902,90.278 C53.3171902,91.829 55.2631902,97.102 49.9511902,98.115 C49.9511902,98.115 45.9611902,99.296 45.1701902,94.118 C44.3781902,88.941 50.9021902,88.725 52.1091902,90.278 Z M41.2791902,94.133 C42.8791902,104.601 50.9461902,102.214 50.9461902,102.214 C61.6861902,100.166 57.7521902,89.505 55.3101902,86.367 C52.8691902,83.229 39.6781902,83.664 41.2791902,94.133 L41.2791902,94.133 Z" id="Fill-267" fill="#2A211A"></path>
                <path d="M92.9401902,152.309 C94.1481902,153.862 96.0931902,159.134 90.7821902,160.147 C90.7821902,160.147 86.7921902,161.327 86.0001902,156.15 C85.2081902,150.973 91.7331902,150.757 92.9401902,152.309 Z M82.1091902,156.165 C83.7101902,166.633 91.7771902,164.246 91.7771902,164.246 C102.51719,162.198 98.5831902,151.537 96.1411902,148.399 C93.7001902,145.261 80.5081902,145.697 82.1091902,156.165 L82.1091902,156.165 Z" id="Fill-268" fill="#2A211A"></path>
                <path d="M23.2891902,45.657 C23.2891902,45.657 33.3721902,46.837 37.0851902,45.028 C40.8001902,43.219 39.2071902,40.535 42.8181902,37.853 C56.7171902,27.528 61.0921902,40.676 67.8891902,36.11 C73.2541902,30.404 83.9841902,25.486 94.4041902,32.912 C98.5311902,36.935 105.39219,42.013 121.69319,38.147 C137.99419,34.281 135.36319,50.569 143.41019,50.971 C154.85219,49.046 159.35919,55.841 159.67819,53.323 C152.49719,44.411 82.6181902,0.774 23.2891902,45.657" id="Fill-269" fill="#8B2626"></path>
                <path d="M95.2881902,134.473 C95.2881902,134.473 87.4301902,147.181 68.0341902,144.673 C68.0341902,144.673 73.1981902,132.133 89.3431902,131.631 C89.3431902,131.631 64.6811902,137.231 57.6671902,112.618 C57.6671902,112.618 87.3301902,105.039 95.2881902,134.473" id="Fill-270" fill="#608A3E"></path>
                <path d="M80.2081902,63.36 C80.2081902,63.36 86.2551902,49.697 105.81219,49.529 C105.81219,49.529 102.41219,62.658 86.4871902,65.362 C86.4871902,65.362 110.15219,56.442 120.46519,79.865 C120.46519,79.865 92.1191902,91.429 80.2081902,63.36" id="Fill-271" fill="#608A3E"></path>
                <path d="M53.1861902,68.298 C53.1861902,68.298 47.8181902,76.979 34.5681902,75.265 C34.5681902,75.265 38.0951902,66.699 49.1251902,66.356 C49.1251902,66.356 32.2771902,70.181 27.4861902,53.368 C27.4861902,53.368 47.7491902,48.19 53.1861902,68.298" id="Fill-272" fill="#608A3E"></path>
                <path d="M75.4720444,108.577 C75.4720444,108.577 77.4901902,84.771 100.48919,85.578 C123.48919,86.385 124.09419,128.147 100.48919,129.761 C76.8851902,131.375 75.4551902,114.346 75.4720444,108.577" id="Fill-273" fill="#8F2326"></path>
                <path d="M77.7930444,107.655 C77.7930444,107.655 79.8111902,83.849 102.81119,84.656 C125.81019,85.463 126.41519,127.225 102.81119,128.839 C79.2061902,130.452 77.7761902,113.423 77.7930444,107.655" id="Fill-274" fill="#AF252A"></path>
                <path d="M114.11619,100.219 C114.11619,100.219 114.92819,97.238 111.20319,95.477 C107.47819,93.716 105.91919,100.151 109.37419,102.657 C112.82919,105.163 114.04019,100.964 114.11619,100.219" id="Fill-275" fill="#FFFFFE"></path>
                <path d="M104.48219,123.555 C104.48219,123.555 105.13219,121.169 102.15119,119.76 C99.1691902,118.35 97.9221902,123.5 100.68719,125.506 C103.45219,127.512 104.42219,124.151 104.48219,123.555" id="Fill-276" fill="#FFFFFE"></path>
                <path d="M97.7841902,99.034 C97.7841902,99.034 97.7191902,96.652 94.1141902,95.815 C90.5071902,94.978 86.0001902,97.618 88.5111902,102.898 C91.0231902,108.178 99.5221902,104.701 97.7841902,99.034" id="Fill-277" fill="#FFFFFE"></path>
                <path d="M114.19119,115.647 C114.19119,115.647 116.28519,113.029 113.79419,110.625 C111.30519,108.221 106.00019,110.668 107.45119,114.617 C108.90219,118.566 113.60119,116.764 114.19119,115.647" id="Fill-278" fill="#FFFFFE"></path>
                <path d="M99.7211902,111.689 C99.7211902,111.689 101.41519,109.609 99.1821902,108.068 C96.9481902,106.528 94.7141902,110.379 96.1011902,112.382 C97.4871902,114.385 99.7211902,111.689 99.7211902,111.689" id="Fill-279" fill="#FFFFFE"></path>
                <path d="M87.7841902,116.756 C87.7841902,116.756 89.7991902,113.458 86.4511902,110.238 C83.1031902,107.019 80.1411902,112.428 82.2011902,115.776 C84.2621902,119.124 87.1931902,118.886 87.7841902,116.756" id="Fill-280" fill="#FFFFFE"></path>
                <path d="M44.2130271,64.036 C44.2130271,64.036 46.2311902,40.23 69.2301902,41.037 C92.2291902,41.844 92.8341902,83.606 69.2301902,85.22 C45.6251902,86.834 44.1951902,69.805 44.2130271,64.036" id="Fill-281" fill="#8F2326"></path>
                <path d="M46.5350271,63.114 C46.5350271,63.114 48.5521902,39.308 71.5511902,40.115 C94.5511902,40.922 95.1561902,82.684 71.5511902,84.298 C47.9471902,85.912 46.5171902,68.882 46.5350271,63.114" id="Fill-282" fill="#AF252A"></path>
                <path d="M82.8561902,55.678 C82.8561902,55.678 83.6691902,52.697 79.9441902,50.936 C76.2191902,49.175 74.6611902,55.61 78.1151902,58.116 C81.5691902,60.622 82.7821902,56.423 82.8561902,55.678" id="Fill-283" fill="#FFFFFE"></path>
                <path d="M73.2231902,79.013 C73.2231902,79.013 73.8731902,76.628 70.8921902,75.219 C67.9101902,73.809 66.6631902,78.959 69.4281902,80.965 C72.1931902,82.971 73.1631902,79.61 73.2231902,79.013" id="Fill-284" fill="#FFFFFE"></path>
                <path d="M66.5241902,54.493 C66.5241902,54.493 66.4601902,52.111 62.8541902,51.274 C59.2481902,50.437 54.7411902,53.077 57.2521902,58.357 C59.7641902,63.637 68.2631902,60.16 66.5241902,54.493" id="Fill-285" fill="#FFFFFE"></path>
                <path d="M82.9311902,71.106 C82.9311902,71.106 85.0251902,68.488 82.5361902,66.084 C80.0461902,63.68 74.7411902,66.127 76.1921902,70.076 C77.6421902,74.025 82.3421902,72.223 82.9311902,71.106" id="Fill-286" fill="#FFFFFE"></path>
                <path d="M68.4621902,67.147 C68.4621902,67.147 70.1571902,65.068 67.9231902,63.527 C65.6891902,61.987 63.4551902,65.838 64.8421902,67.841 C66.2281902,69.844 68.4621902,67.147 68.4621902,67.147" id="Fill-287" fill="#FFFFFE"></path>
                <path d="M56.5241902,72.215 C56.5241902,72.215 58.5401902,68.917 55.1921902,65.697 C51.8441902,62.478 48.8821902,67.887 50.9421902,71.235 C53.0031902,74.583 55.9341902,74.345 56.5241902,72.215" id="Fill-288" fill="#FFFFFE"></path>
                <path d="M123.13819,84.418 C120.30819,84.418 121.14919,76.769 119.62019,75.698 C118.09019,74.627 117.40219,76.004 113.18019,76.616 C108.95919,77.228 107.91719,74.627 108.22319,70.191 C108.52919,65.755 112.27719,64.455 113.73019,65.985 C115.18319,67.514 117.47819,66.826 117.47819,66.826 C117.47819,66.826 120.27019,66.673 120.19319,62.007 C120.11719,57.342 126.65719,61.09 128.64519,63.919 C130.63319,66.749 126.80919,69.044 125.73919,70.88 C124.66719,72.715 128.56919,73.863 130.94019,76.693 C133.31019,79.522 125.96819,84.418 123.13819,84.418 Z M130.62119,71.725 C129.58219,70.026 133.45219,68.611 135.05619,65.402 C136.66019,62.194 128.63919,50.21 121.75019,54.645 C114.86219,59.08 118.54219,62.288 116.46619,64.081 C114.39019,65.874 113.37519,61.406 113.37519,61.406 C107.99319,56.027 98.2381902,72.385 102.67319,78.047 C107.10919,83.709 112.78619,80.123 116.93819,80.312 C121.09019,80.501 117.97619,85.879 121.65619,90.22 C125.33619,94.561 139.39719,85.219 139.01919,78.708 C138.64219,72.197 131.65919,73.423 130.62119,71.725 L130.62119,71.725 Z" id="Fill-289" fill="#AF252A"></path>
                <path d="M135.66319,59.554 C136.87119,61.105 138.81619,66.378 133.50419,67.391 C133.50419,67.391 129.51419,68.572 128.72319,63.394 C127.93119,58.217 134.45519,58.001 135.66319,59.554 Z M124.83119,63.409 C126.43219,73.877 134.49919,71.49 134.49919,71.49 C145.24019,69.442 141.30519,58.781 138.86419,55.642 C136.42119,52.504 123.23119,52.94 124.83119,63.409 L124.83119,63.409 Z" id="Fill-290" fill="#2A211A"></path>
                <path d="M106.82019,53.198 C105.37219,54.529 100.27819,56.903 98.8301902,51.692 C98.8301902,51.692 97.3261902,47.814 102.42019,46.598 C107.51519,45.382 108.26719,51.866 106.82019,53.198 Z M102.08519,42.721 C91.7851902,45.18 94.8281902,53.022 94.8281902,53.022 C97.7541902,63.556 108.05519,58.758 110.98119,56.065 C113.90819,53.373 112.38619,40.263 102.08519,42.721 L102.08519,42.721 Z" id="Fill-291" fill="#2A211A"></path>
                <path d="M87.9601902,78.173 C87.9601902,78.173 88.4301902,72.637 93.7791902,72.824 C99.1271902,73.012 99.2681902,82.724 93.7791902,83.099 C88.2891902,83.475 87.9081902,78.547 87.9601902,78.173" id="Fill-292" fill="#FFFFFE"></path>
                <path d="M56.7021902,119.722 C56.7021902,119.722 57.1711902,114.185 62.5191902,114.373 C67.8681902,114.56 68.0091902,124.273 62.5191902,124.648 C57.0301902,125.024 56.6481902,120.096 56.7021902,119.722" id="Fill-293" fill="#FFFFFE"></path>
                <path d="M99.6021902,138.767 C99.6021902,138.767 99.9581902,134.561 104.02119,134.704 C108.08419,134.847 108.19119,142.224 104.02119,142.509 C99.8511902,142.794 99.5611902,139.051 99.6021902,138.767" id="Fill-294" fill="#FFFFFE"></path>
                <path d="M27.4891902,68.971 C27.4891902,68.971 27.8461902,64.765 31.9091902,64.908 C35.9721902,65.05 36.0791902,72.428 31.9091902,72.713 C27.7391902,72.998 27.4491902,69.255 27.4891902,68.971" id="Fill-295" fill="#FFFFFE"></path>
                <path d="M120.29019,46.877 C120.29019,46.877 120.64719,42.672 124.71019,42.814 C128.77319,42.957 128.88019,50.334 124.71019,50.619 C120.54019,50.905 120.25019,47.161 120.29019,46.877" id="Fill-296" fill="#FFFFFE"></path>
                <path d="M147.42119,108.02 L150.01319,109.784 C150.03819,109.802 150.04119,109.88 150.02219,110.015 C150.00219,110.15 149.98119,110.26 149.95819,110.343 L149.88719,110.44 C149.61119,110.815 149.33219,111.084 149.05319,111.246 C148.77319,111.41 148.38319,111.396 147.88319,111.207 C147.78419,111.153 147.60519,111.057 147.34919,110.917 C147.09119,110.778 146.80819,110.622 146.49519,110.451 C146.18119,110.281 145.86419,110.095 145.54019,109.897 C145.21919,109.699 144.94119,109.513 144.70719,109.342 C144.52719,109.209 144.38219,109.086 144.27419,108.976 C144.16519,108.866 144.11219,108.771 144.11019,108.691 C144.11819,108.437 144.17119,108.168 144.27319,107.883 C144.37319,107.597 144.49419,107.326 144.63219,107.07 C144.77319,106.813 144.91519,106.58 145.06119,106.368 C145.20719,106.156 145.32419,105.993 145.41019,105.876 L151.79219,97.23 C152.23319,97.175 152.65919,97.246 153.07319,97.441 C153.48819,97.638 153.83119,97.836 154.10219,98.036 C154.17919,98.094 154.25819,98.191 154.33519,98.328 C154.41319,98.466 154.44419,98.547 154.42519,98.573 L147.42119,108.02" id="Fill-328" fill="#FFFFFE"></path>
            </g>
        </g>
    </g>
</svg>