<?xml version="1.0" encoding="UTF-8"?>
<svg width="131px" height="201px" viewBox="0 0 131 201" version="1.1" xmlns="http://www.w3.org/2000/svg" xmlns:xlink="http://www.w3.org/1999/xlink">
    <title>Group 6</title>
    <g id="Page-1" stroke="none" stroke-width="1" fill="none" fill-rule="evenodd">
        <g id="vectorstock_20069581" transform="translate(-152.000000, -659.000000)">
            <g id="Group-6" transform="translate(152.989740, 659.861521)">
                <path d="M129.12226,8.12347922 L116.68326,26.1864792 L110.34826,35.3954792 L90.80726,63.7754792 C90.80726,63.7754792 85.19726,58.6854792 87.09926,54.6484792 L100.33126,26.5974792 L104.12226,18.5774792 L109.37626,7.42547922 L112.85226,0.0644792216 C112.85226,0.0644792216 124.33226,-1.26252078 129.12226,8.12347922" id="Fill-385" fill="#ED9C3A"></path>
                <path d="M93.43526,13.5154792 L83.17226,40.6634792 C83.17226,40.6634792 74.79826,36.8724792 75.30326,34.9574792 L78.20526,14.0074792 L78.80726,9.64247922 C78.80726,9.64247922 87.72926,8.27447922 93.43526,13.5154792" id="Fill-386" fill="#ED9C3A"></path>
                <path d="M95.18626,126.118479 L44.74826,129.225479 L44.77526,128.185479 L46.44526,69.0174792 C46.44526,69.0174792 54.61426,58.1794792 68.07826,54.6494792 C76.16626,52.5284792 86.19626,53.0624792 97.49826,60.1904792 C123.15526,77.7884792 112.63326,121.821479 95.18626,126.118479" id="Fill-387" fill="#6C9540"></path>
                <path d="M78.25926,126.118479 L44.77526,128.185479 L46.44526,69.0174792 C46.44526,69.0174792 54.61426,58.1794792 68.07826,54.6494792 C72.01926,55.6614792 76.19326,57.4404792 80.55826,60.1904792 C106.21426,77.7884792 95.70626,121.821479 78.25926,126.118479" id="Fill-388" fill="#79A841"></path>
                <path d="M76.07026,95.6864792 C72.52626,97.7114792 69.93926,98.5744792 69.93926,98.5744792 L18.63926,65.5684792 C18.63926,65.5684792 14.13726,45.6724792 29.80526,31.8934792 C41.65626,21.4664792 65.36926,20.9864792 80.85926,31.9884792 C87.74226,36.8604792 93.01026,44.0174792 94.89826,53.5544792 C99.94826,78.1034792 84.99226,90.5694792 76.07026,95.6864792" id="Fill-389" fill="#874727"></path>
                <path d="M76.07026,95.6864792 L41.62826,73.5194792 C41.62826,73.5194792 37.11326,53.6224792 52.78026,39.8434792 C59.54026,33.9044792 70.11726,31.1944792 80.85926,31.9884792 C87.74226,36.8604792 93.01026,44.0174792 94.89826,53.5544792 C99.94826,78.1034792 84.99226,90.5694792 76.07026,95.6864792" id="Fill-390" fill="#6E3C23"></path>
                <path d="M66.86126,129.266479 C65.46526,130.484479 64.52126,131.031479 64.52126,131.031479 L10.16926,124.914479 C10.16926,124.914479 -10.35574,107.933479 6.91326001,78.0074792 C18.28326,58.3164792 43.55726,57.0434792 60.93626,68.1414792 L60.94926,68.1414792 C69.99426,73.9024792 76.89126,83.0154792 78.58826,94.5914792 C80.27126,114.993479 71.28126,125.435479 66.86126,129.266479" id="Fill-391" fill="#E26D83"></path>
                <path d="M66.86126,129.266479 L26.90526,124.764479 C26.90526,124.764479 8.29526001,109.369479 23.94926,82.2354792 C31.84426,68.5654792 47.12926,64.6934792 60.93626,68.1414792 L60.94926,68.1414792 C69.99426,73.9024792 76.89126,83.0154792 78.58826,94.5914792 C80.27126,114.993479 71.28126,125.435479 66.86126,129.266479" id="Fill-392" fill="#E05870"></path>
                <path d="M73.87326,62.7914792 C72.54526,62.7914792 71.63226,62.5764792 71.63226,62.5764792 C71.63226,62.5764792 60.11026,60.1084792 61.35826,49.7244792 C62.19326,42.7764792 68.08326,41.6264792 71.88926,41.6264792 C73.77226,41.6264792 75.14426,41.9074792 75.14426,41.9074792 C75.14426,41.9074792 85.38626,41.9484792 83.68826,53.4804792 C82.49326,61.5874792 77.01926,62.7914792 73.87326,62.7914792" id="Fill-393" fill="#8D6044"></path>
                <path d="M53.00026,73.8974792 C53.00026,73.8974792 63.24226,73.9374792 61.54426,85.4694792 C59.84526,97.0014792 49.48826,94.5654792 49.48826,94.5654792 C49.48826,94.5654792 37.96626,92.0964792 39.21426,81.7124792 C40.46226,71.3284792 53.00026,73.8974792 53.00026,73.8974792" id="Fill-394" fill="#E26D83"></path>
                <path d="M99.18326,101.816479 C99.18326,101.816479 98.27726,98.6804792 102.62426,98.6804792 C106.97226,98.6804792 105.90226,101.816479 105.90226,101.816479 C105.90226,101.816479 105.90826,105.115479 102.62426,105.115479 C99.34126,105.115479 99.18326,101.816479 99.18326,101.816479" id="Fill-395" fill="#FFFFFE"></path>
                <path d="M59.19626,103.384479 C59.19626,103.384479 58.28926,100.248479 62.63726,100.248479 C66.98526,100.248479 65.91526,103.384479 65.91526,103.384479 C65.91526,103.384479 65.92126,106.684479 62.63726,106.684479 C59.35426,106.684479 59.19626,103.384479 59.19626,103.384479" id="Fill-396" fill="#FFFFFE"></path>
                <path d="M65.09126,41.5444792 C65.09126,41.5444792 64.18526,38.4084792 68.53226,38.4084792 C72.88026,38.4084792 71.81026,41.5444792 71.81026,41.5444792 C71.81026,41.5444792 71.81626,44.8444792 68.53226,44.8444792 C65.24926,44.8444792 65.09126,41.5444792 65.09126,41.5444792" id="Fill-397" fill="#FFFFFE"></path>
                <path d="M42.41026,35.1394792 C42.41026,35.1394792 41.77626,32.9444792 44.82026,32.9444792 C47.86326,32.9444792 47.11426,35.1394792 47.11426,35.1394792 C47.11426,35.1394792 47.11826,37.4484792 44.82026,37.4484792 C42.52126,37.4484792 42.41026,35.1394792 42.41026,35.1394792" id="Fill-398" fill="#FFFFFE"></path>
                <path d="M22.39826,103.749479 C22.39826,103.749479 21.71926,101.208479 24.76326,101.208479 C27.80726,101.208479 27.10226,103.749479 27.10226,103.749479 C27.10226,103.749479 27.10626,105.723479 24.80726,105.723479 C22.50926,105.723479 22.39826,103.749479 22.39826,103.749479" id="Fill-399" fill="#FFFFFE"></path>
                <path d="M36.75426,84.1404792 C36.75426,84.1404792 36.12026,81.9454792 39.16426,81.9454792 C42.20726,81.9454792 41.45826,84.1404792 41.45826,84.1404792 C41.45826,84.1404792 41.46226,86.4504792 39.16426,86.4504792 C36.86526,86.4504792 36.75426,84.1404792 36.75426,84.1404792" id="Fill-400" fill="#FFFFFE"></path>
                <path d="M100.19626,84.8244792 C100.19626,84.8244792 99.56226,82.6294792 102.60626,82.6294792 C105.64926,82.6294792 104.90026,84.8244792 104.90026,84.8244792 C104.90026,84.8244792 104.90426,87.1344792 102.60626,87.1344792 C100.30726,87.1344792 100.19626,84.8244792 100.19626,84.8244792" id="Fill-401" fill="#FFFFFE"></path>
                <path d="M76.43526,77.1364792 C76.43526,77.1364792 75.80126,74.9414792 78.84426,74.9414792 C81.88826,74.9414792 81.13926,77.1364792 81.13926,77.1364792 C81.13926,77.1364792 81.14326,79.4464792 78.84426,79.4464792 C76.54626,79.4464792 76.43526,77.1364792 76.43526,77.1364792" id="Fill-402" fill="#FFFFFE"></path>
                <path d="M87.15426,96.0314792 C87.15426,96.0314792 86.51926,93.8364792 89.56326,93.8364792 C92.60726,93.8364792 91.85826,96.0314792 91.85826,96.0314792 C91.85826,96.0314792 91.86226,98.3414792 89.56326,98.3414792 C87.26426,98.3414792 87.15426,96.0314792 87.15426,96.0314792" id="Fill-403" fill="#FFFFFE"></path>
                <path d="M54.61226,29.5434792 C54.61226,29.5434792 53.97726,27.3484792 57.02126,27.3484792 C60.06526,27.3484792 59.31626,29.5434792 59.31626,29.5434792 C59.31626,29.5434792 59.32026,31.8544792 57.02126,31.8544792 C54.72226,31.8544792 54.61226,29.5434792 54.61226,29.5434792" id="Fill-404" fill="#FFFFFE"></path>
                <path d="M33.34426,69.7394792 C33.34426,69.7394792 32.71026,67.5444792 35.75426,67.5444792 C38.79826,67.5444792 38.04926,69.7394792 38.04926,69.7394792 C38.04926,69.7394792 38.05226,72.0494792 35.75426,72.0494792 C33.45526,72.0494792 33.34426,69.7394792 33.34426,69.7394792" id="Fill-405" fill="#FFFFFE"></path>
                <path d="M9.22726001,91.3334792 C9.22726001,91.3334792 8.59326001,89.1394792 11.63626,89.1394792 C14.68026,89.1394792 13.93126,91.3334792 13.93126,91.3334792 C13.93126,91.3334792 13.93526,93.6444792 11.63626,93.6444792 C9.33826001,93.6444792 9.22726001,91.3334792 9.22726001,91.3334792" id="Fill-406" fill="#FFFFFE"></path>
                <path d="M14.66126,78.0764792 C14.66126,78.0764792 13.75526,74.9414792 18.10326,74.9414792 C22.45026,74.9414792 21.38126,78.0764792 21.38126,78.0764792 C21.38126,78.0764792 21.38626,81.3764792 18.10326,81.3764792 C14.82026,81.3764792 14.66126,78.0764792 14.66126,78.0764792" id="Fill-407" fill="#FFFFFE"></path>
                <path d="M99.97526,129.265479 C99.97526,129.265479 89.16526,179.210479 87.26326,189.473479 C85.36126,199.736479 74.22326,200.077479 74.22326,200.077479 C74.22326,200.077479 71.95126,200.023479 68.39426,199.954479 C60.99026,199.818479 48.00526,199.585479 38.18026,199.517479 C36.42826,199.517479 34.78626,199.503479 33.29526,199.503479 C19.32426,199.503479 18.70826,190.609479 18.70826,190.609479 C18.70826,190.609479 8.03526001,145.452479 7.00926001,129.224479 C-4.71873999,114.500479 4.81926001,114.541479 4.81926001,114.541479 C13.30326,118.893479 23.00526,121.615479 32.92626,123.244479 C47.21126,125.598479 61.94826,125.653479 74.16826,124.941479 C90.65726,123.983479 102.56226,121.629479 102.56226,121.629479 C112.26326,122.437479 99.97526,129.265479 99.97526,129.265479" id="Fill-408" fill="#F1B12A"></path>
                <path d="M74.16826,124.941479 C73.26526,136.421479 69.43326,185.943479 68.66726,197.177479 C68.59926,198.176479 68.50326,199.106479 68.39426,199.954479 C60.99026,199.818479 48.00526,199.585479 38.18026,199.517479 C38.12526,198.928479 38.11226,198.572479 38.11226,198.572479 C38.11226,198.572479 33.47326,143.947479 32.92626,123.244479 C47.21126,125.598479 61.94826,125.653479 74.16826,124.941479" id="Fill-409" fill="#F6C558"></path>
                <path d="M23.83126,121.410479 C23.83126,121.410479 26.83026,125.044479 27.17226,132.111479 C27.51426,139.177479 26.37326,150.553479 31.96826,150.241479 C38.12526,149.900479 34.82326,131.428479 40.29226,131.031479 C45.76026,130.634479 43.29826,142.773479 53.90326,143.286479 C65.81926,143.862479 67.87326,128.167479 70.78826,125.109479 C69.68326,122.276479 28.32326,118.608479 23.83126,121.410479" id="Fill-410" fill="#E05870"></path>
                <path d="M79.22226,164.888479 C78.50326,158.904479 72.55226,158.668479 70.49626,158.768479 C66.00926,146.487479 49.54226,148.757479 49.54226,148.757479 C49.54226,148.757479 39.30726,149.653479 35.98226,158.758479 C35.06026,158.742479 34.43126,158.823479 34.43126,158.823479 C34.43126,158.823479 27.09326,159.461479 28.27926,167.510479 C29.14626,173.398479 34.08426,174.144479 36.67726,174.123479 C42.10226,186.898479 58.46626,184.030479 58.46626,184.030479 C58.46626,184.030479 66.41726,181.717479 69.96426,173.966479 C71.95326,174.302479 73.63226,174.007479 73.63226,174.007479 C73.63226,174.007479 80.09326,172.134479 79.22226,164.888479" id="Fill-411" fill="#6E3C23"></path>
                <path d="M123.10026,16.7354792 L116.70826,26.0164792 C113.72526,23.0604792 109.59326,19.9454792 104.43126,18.5804792 L109.56726,7.68147922 C113.00426,8.83047922 118.68726,11.4254792 123.10026,16.7354792" id="Fill-412" fill="#E26D83"></path>
                <path d="M110.34826,35.3954792 L103.97126,44.6584792 C101.79526,42.2784792 98.84026,39.5554792 95.14526,37.5844792 L100.33126,26.5974792 C103.67026,28.4034792 107.41926,31.1804792 110.34826,35.3954792" id="Fill-413" fill="#E26D83"></path>
                <path d="M91.15026,19.5634792 L87.09926,30.2784792 C84.23926,28.5264792 80.61326,26.8164792 76.53526,26.0764792 L78.20526,14.0074792 C81.94026,14.6784792 86.75726,16.1964792 91.15026,19.5634792" id="Fill-414" fill="#E26D83"></path>
            </g>
        </g>
    </g>
</svg>