<?xml version="1.0" encoding="UTF-8"?>
<svg width="139px" height="128px" viewBox="0 0 139 128" version="1.1" xmlns="http://www.w3.org/2000/svg" xmlns:xlink="http://www.w3.org/1999/xlink">
    <title>Fill 396</title>
    <defs>
        <polygon id="path-1" points="-2.27373675e-13 0 7.74 0 7.74 12.115 -2.27373675e-13 12.115"></polygon>
        <polygon id="path-3" points="0 0 76.4 0 76.4 51.488 0 51.488"></polygon>
    </defs>
    <g id="Page-1" stroke="none" stroke-width="1" fill="none" fill-rule="evenodd">
        <g id="web1" transform="translate(-1142.000000, -452.000000)">
            <path d="M1264.77,501.147 C1264.77,503.811 1262.61,505.971 1259.94,505.971 C1257.28,505.971 1255.12,503.811 1255.12,501.147 C1255.12,498.482 1257.28,496.323 1259.94,496.323 C1262.61,496.323 1264.77,498.482 1264.77,501.147" id="Fill-366" fill="#E46D2A"></path>
            <path d="M1163.21,535.335 C1163.21,537.847 1161.17,539.881 1158.66,539.881 C1156.15,539.881 1154.11,537.847 1154.11,535.335 C1154.11,532.824 1156.15,530.79 1158.66,530.79 C1161.17,530.79 1163.21,532.824 1163.21,535.335" id="Fill-367" fill="#E46D2A"></path>
            <path d="M1248.52,478.387 C1248.52,478.387 1242.3,492.733 1257.61,498.685 C1257.61,498.685 1263.46,482.804 1248.52,478.387" id="Fill-369" fill="#118E45"></path>
            <path d="M1142.34,502.643 C1142.34,502.643 1146.36,514.711 1158.87,509.994 C1158.87,509.994 1153.78,497.199 1142.34,502.643" id="Fill-371" fill="#118E45"></path>
            <path d="M1186.95,453.494 C1186.95,453.494 1180.59,447.979 1172.87,457.598 C1172.87,457.598 1181.46,462.2 1186.95,453.494" id="Fill-372" fill="#87B13F"></path>
            <path d="M1212.92,527.527 C1211.06,529.689 1208.05,531.202 1204.51,532.105 C1194.17,534.744 1179.35,532.159 1175.56,525.187 C1170.46,515.824 1159.04,509.746 1167.63,491.398 C1173.63,478.581 1187.42,470.807 1199.6,471.554 C1204.86,471.871 1209.82,473.786 1213.72,477.572 C1222.42,486.005 1216.3,494.702 1217.71,503.436 C1219.13,512.17 1220.22,519.057 1212.92,527.527" id="Fill-396" fill="#FCE3A4"></path>
            <path d="M1195.9,533.119 L1195.86,533.119 C1187.25,533.115 1178.37,530.357 1175.56,525.187 C1171.82,518.321 1164.68,513.221 1164.53,503.752 C1164.68,513.221 1171.82,518.32 1175.56,525.187 C1178.37,530.361 1187.26,533.119 1195.88,533.119 C1198.88,533.119 1201.84,532.786 1204.51,532.105 C1201.85,532.785 1198.89,533.118 1195.9,533.119" id="Fill-397" fill="#E5DBD2"></path>
            <path d="M1195.88,533.119 C1187.26,533.119 1178.37,530.361 1175.56,525.187 C1171.82,518.32 1164.68,513.221 1164.53,503.752 L1164.53,503.13 C1164.58,499.827 1165.48,495.999 1167.63,491.398 C1173.28,479.327 1185.84,471.728 1197.46,471.51 L1198.49,471.51 C1198.86,471.517 1199.23,471.532 1199.6,471.555 C1194.01,472.425 1188.62,474.408 1183.91,477.596 C1176.23,482.785 1170.63,491.159 1169.37,500.345 C1168.95,503.441 1169.03,506.702 1170.29,509.559 C1171.13,511.445 1172.44,513.074 1173.57,514.8 C1175.08,517.121 1176.27,519.644 1177.94,521.85 C1182.67,528.125 1190.72,531.125 1198.56,531.694 C1200.53,531.833 1202.54,531.846 1204.51,532.105 C1201.84,532.786 1198.88,533.119 1195.88,533.119" id="Fill-398" fill="#E0C389"></path>
            <path d="M1214.04,489.536 C1213.7,489.36 1213.45,489.014 1213.43,488.602 C1212.88,479.286 1202.35,476.664 1201.9,476.556 C1201.3,476.413 1200.93,475.806 1201.07,475.202 C1201.21,474.598 1201.82,474.224 1202.42,474.367 C1202.55,474.396 1215.02,477.47 1215.67,488.468 C1215.71,489.088 1215.24,489.62 1214.62,489.658 C1214.41,489.67 1214.21,489.625 1214.04,489.536" id="Fill-399" fill="#FFFFFE"></path>
            <path d="M1206.18,527.788 C1205.98,527.685 1205.81,527.521 1205.7,527.308 C1205.41,526.757 1205.63,526.078 1206.18,525.791 C1214.63,521.391 1214.31,512.967 1214.29,512.611 C1214.26,511.992 1214.74,511.461 1215.36,511.431 C1215.98,511.396 1216.51,511.871 1216.54,512.491 C1216.56,512.906 1216.98,522.701 1207.22,527.786 C1206.88,527.96 1206.49,527.949 1206.18,527.788" id="Fill-400" fill="#FFFFFE"></path>
            <path d="M1206.29,508.914 C1204.57,512.268 1201.65,514.607 1198.33,515.68 C1194.98,516.776 1191.21,516.58 1187.83,514.843 C1181.09,511.382 1178.44,503.114 1181.9,496.378 C1184.89,490.557 1191.47,487.786 1197.55,489.382 C1198.51,489.629 1199.45,489.985 1200.36,490.456 C1207.09,493.917 1209.75,502.179 1206.29,508.914" id="Fill-401" fill="#F6BD35"></path>
            <g id="Group-404" transform="translate(1195.590000, 496.530000)">
                <mask id="mask-2" fill="white">
                    <use xlink:href="#path-1"></use>
                </mask>
                <g id="Clip-403"></g>
                <path d="M3.87,12.115 C3.81,12.115 3.74,12.113 3.68,12.109 C1.31,11.957 0.06,9.159 -2.27373675e-13,6.29 L-2.27373675e-13,5.819 C0.06,2.932 1.32,0.118 3.82,0 L4.15,0 C4.16,0.001 4.17,0.001 4.18,0.002 C9.25,0.266 8.69,12.115 3.87,12.115" id="Fill-402" fill="#FAD370" mask="url(#mask-2)"></path>
            </g>
            <path d="M1194.89,516.335 C1196.06,516.265 1197.22,516.043 1198.33,515.68 C1197.22,516.043 1196.06,516.265 1194.89,516.335 M1187.83,514.843 L1187.83,514.843 C1183.17,512.448 1180.46,507.752 1180.38,502.855 L1180.38,502.795 C1180.44,507.714 1183.15,512.438 1187.83,514.843 M1180.38,502.471 L1180.38,502.412 C1180.41,500.582 1180.81,498.733 1181.61,496.973 C1180.8,498.752 1180.4,500.622 1180.38,502.471 M1182.77,494.914 C1185.3,491.197 1189.43,489.052 1193.74,488.94 L1193.76,488.94 C1189.45,489.046 1185.3,491.192 1182.77,494.914 M1197.55,489.382 C1196.51,489.111 1195.47,488.966 1194.43,488.94 L1194.45,488.94 C1195.48,488.967 1196.52,489.112 1197.55,489.382" id="Fill-405" fill="#E7B985"></path>
            <path d="M1194.08,516.36 C1191.97,516.36 1189.83,515.871 1187.83,514.843 C1183.15,512.438 1180.44,507.714 1180.38,502.795 L1180.38,502.471 C1180.4,500.622 1180.8,498.752 1181.61,496.973 C1181.7,496.774 1181.8,496.575 1181.9,496.378 C1182.16,495.866 1182.45,495.378 1182.77,494.914 C1185.3,491.192 1189.45,489.046 1193.76,488.94 L1194.43,488.94 C1195.47,488.966 1196.51,489.111 1197.55,489.382 C1195,489.441 1192.54,490.031 1190.28,491.471 C1184.66,495.123 1183.6,503.767 1187.42,509.279 C1189.9,512.867 1193.98,515.049 1198.33,515.68 C1197.22,516.043 1196.06,516.265 1194.89,516.335 C1194.62,516.351 1194.35,516.36 1194.08,516.36" id="Fill-406" fill="#E49B2E"></path>
            <path d="M1206.65,574.724 C1203.48,570.661 1204.46,565.223 1208.05,559.375 C1209.72,556.671 1211.95,553.875 1214.6,551.103 L1214.62,551.083 C1217.01,548.563 1219.74,546.064 1222.7,543.638 C1225.86,541.048 1229.29,538.541 1232.84,536.212 C1235.55,534.435 1238.34,532.761 1241.13,531.238 C1245.78,528.688 1250.47,526.536 1254.93,524.944 C1265.65,521.114 1275.04,520.557 1279.28,525.722 C1279.67,526.192 1279.99,526.677 1280.25,527.19 C1289.74,545.776 1220.5,592.475 1206.65,574.724" id="Fill-453" fill="#DE852E"></path>
            <path d="M1238.05,561.295 C1234.83,565.057 1232.09,562.62 1220.75,560.048 C1214.81,558.698 1210.65,558.892 1208.05,559.375 C1209.73,556.663 1211.96,553.864 1214.62,551.083 C1217.3,550.895 1220.78,551 1224.81,551.904 C1234.49,554.062 1240.54,558.394 1238.05,561.295" id="Fill-454" fill="#F6BD36"></path>
            <path d="M1252.17,548.299 C1248.61,551.757 1246.11,549.08 1235.04,545.484 C1229.42,543.657 1225.34,543.426 1222.7,543.638 C1225.86,541.049 1229.29,538.542 1232.84,536.212 C1234.91,536.456 1237.27,536.919 1239.83,537.744 C1249.27,540.776 1254.91,545.639 1252.17,548.299" id="Fill-455" fill="#F6BD36"></path>
            <path d="M1268.81,535.961 C1265.25,539.413 1262.75,536.734 1251.69,533.146 C1247.21,531.69 1243.71,531.248 1241.14,531.238 C1245.78,528.688 1250.47,526.536 1254.93,524.944 C1255.43,525.083 1255.96,525.24 1256.48,525.406 C1265.92,528.431 1271.55,533.293 1268.81,535.961" id="Fill-456" fill="#F6BD36"></path>
            <g id="Group-459" transform="translate(1204.740000, 527.190000)">
                <mask id="mask-4" fill="white">
                    <use xlink:href="#path-3"></use>
                </mask>
                <g id="Clip-458"></g>
                <path d="M11.94,51.488 L11.74,51.488 C7.48,51.469 4.04,50.263 1.91,47.534 C0.65,45.918 0.05,44.085 0,42.095 L0,41.603 C0.07,38.716 1.26,35.517 3.31,32.185 C4.91,29.605 7.01,26.942 9.5,24.295 C7.01,26.943 4.91,29.604 3.31,32.185 C3.94,32.068 4.66,31.968 5.48,31.903 C3.8,37.746 6.45,42.526 16.31,43.885 C16.97,43.977 17.67,44.021 18.38,44.021 C32.9,44.021 57.39,25.919 64.73,17.815 C70,11.995 75.09,5.4 75.51,-1.13686838e-13 C76.11,1.181 76.400007,2.476 76.400007,3.86 C76.42,20.859 33.68,51.396 11.94,51.488" id="Fill-457" fill="#D2752D" mask="url(#mask-4)"></path>
            </g>
            <path d="M1208.05,559.375 C1209.65,556.794 1211.75,554.133 1214.24,551.485 C1214.36,551.358 1214.48,551.23 1214.6,551.103 C1212.48,553.838 1210.95,556.565 1210.22,559.093 C1209.4,559.158 1208.68,559.258 1208.05,559.375" id="Fill-460" fill="#E8A330"></path>
        </g>
    </g>
</svg>