<?xml version="1.0" encoding="UTF-8"?>
<svg width="200px" height="129px" viewBox="0 0 200 129" version="1.1" xmlns="http://www.w3.org/2000/svg" xmlns:xlink="http://www.w3.org/1999/xlink">
    <title>Group 3</title>
    <g id="Page-1" stroke="none" stroke-width="1" fill="none" fill-rule="evenodd">
        <g id="vectorstock_20069581" transform="translate(-396.000000, -403.000000)">
            <g id="Group-3" transform="translate(396.991015, 403.096000)">
                <path d="M165.034985,128.459 C147.687985,128.126 55.1969851,128.384 30.6929851,128.459 C26.8919851,128.459 24.7329851,128.471 24.7329851,128.471 C24.7329851,128.471 4.78098508,129.63 4.73181879,115.75 C4.68298508,101.869 15.4789851,106.878 15.4789851,106.878 L30.6929851,106.508 L174.314985,103.016 C174.314985,103.016 183.149985,103.016 184.691985,111.505 C186.233985,119.982 185.072985,128.841 165.034985,128.459" id="Fill-4" fill="#EC9730"></path>
                <path d="M172.670985,116.365 C162.516985,116.537 109.521985,113.539 68.2369851,111.084 C56.7499851,110.392 46.1879851,109.751 37.6859851,109.22 C37.5379851,109.22 37.4029851,109.208 37.2549851,109.196 C25.1749851,108.456 17.4139851,107.974 17.4139851,107.974 C17.4139851,107.974 1.22598508,108.85 0.0659850799,97.289 C-1.05701492,86.061 12.5149851,87.097 13.3299851,87.171 L167.155985,87.171 C167.155985,87.171 187.354985,83.408 189.253985,96.709 C191.154985,109.998 189.747985,116.068 172.670985,116.365" id="Fill-5" fill="#CA422B"></path>
                <path d="M120.293985,85.587 C120.293985,85.587 91.1129851,100.208 71.3219851,109.301 C62.4009851,113.398 55.3799851,116.372 53.8129851,116.372 C52.0109851,116.372 46.7679851,112.461 40.7709851,107.438 C40.6479851,107.339 40.5239851,107.229 40.3879851,107.118 C29.7399851,98.16 16.9329851,85.907 16.9329851,85.907 C16.7349851,85.723 16.5749851,85.549 16.4139851,85.389 C12.1079851,80.676 23.4969851,81.749 23.4969851,81.749 C23.4969851,81.749 33.5159851,81.749 46.7799851,81.749 L110.027985,81.749 C118.146985,81.749 119.898985,84.6 120.231985,85.389 C120.280985,85.513 120.293985,85.587 120.293985,85.587" id="Fill-6" fill="#FAD725"></path>
                <path d="M198.481985,70.741 C198.481985,70.741 169.300985,85.362 149.508985,94.456 C140.587985,98.552 133.567985,101.526 132.000985,101.526 C130.198985,101.526 124.954985,97.615 118.958985,92.592 C118.835985,92.494 118.711985,92.383 118.575985,92.272 C107.927985,83.314 95.1209851,71.062 95.1209851,71.062 C94.9229851,70.877 94.7629851,70.704 94.6019851,70.544 C90.2959851,65.83 101.684985,66.903 101.684985,66.903 C101.684985,66.903 111.703985,66.903 124.967985,66.903 L188.215985,66.903 C196.334985,66.903 198.086985,69.753 198.419985,70.544 C198.468985,70.667 198.481985,70.741 198.481985,70.741" id="Fill-7" fill="#FAD725"></path>
                <path d="M196.323985,68.221 C196.323985,68.221 197.360985,79.782 183.430985,79.782 L58.7849851,79.782 C40.6849851,79.782 28.0499851,79.782 28.0499851,79.782 C28.0499851,79.782 10.4669851,79.634 10.5049851,68.221 C10.5049851,68.221 0.17698508,5.68434189e-14 100.316985,5.68434189e-14 C116.073985,5.68434189e-14 129.250985,1.691 140.257985,4.541 C152.990985,7.824 162.849985,12.673 170.474985,18.238 C198.125985,38.436 196.323985,68.221 196.323985,68.221" id="Fill-28" fill="#EC9730"></path>
                <path d="M183.504985,96.576 C167.316985,96.576 166.451985,82.399 166.451985,82.399 C166.451985,82.399 165.872985,95.996 150.843985,96.279 C135.815985,96.576 128.584985,82.694 128.584985,82.694 C128.584985,82.694 128.868985,99.462 106.905985,97.76 C86.6579851,96.206 87.2759851,83.496 87.4979851,81.51 C87.1269851,83.545 84.0549851,96.921 66.4349851,97.735 C59.9949851,98.031 56.2189851,96.341 54.0599851,93.984 C51.0489851,90.727 51.0979851,86.174 51.4069851,83.768 C50.5799851,87.741 47.6559851,97.501 38.6739851,97.723 C27.4079851,98.019 28.2719851,86.742 28.2719851,86.742 C21.8929851,97.587 3.69398508,90.789 4.85298508,82.115 C6.01298508,73.441 26.8279851,75.76 26.8279851,75.76 L62.2529851,76.389 L190.154985,78.648 C204.035985,81.831 199.704985,96.576 183.504985,96.576" id="Fill-29" fill="#79A841"></path>
                <path d="M34.6709851,53.23 C28.3189851,53.23 23.5229851,49.992 25.9219851,43.186 C31.1159851,28.447 57.0059851,15.497 66.5009851,15.497 C67.4379851,15.497 68.2169851,15.623 68.7989851,15.887 C75.2759851,18.817 73.1139851,21.902 73.1139851,21.902 C72.4189851,23.575 70.8179851,23.942 68.8409851,23.942 C68.0709851,23.942 67.2429851,23.886 66.3899851,23.83 C65.5359851,23.775 64.6579851,23.719 63.7849851,23.719 C59.3089851,23.719 54.9899851,25.184 55.0719851,35.629 C55.1609851,47.073 43.4339851,53.23 34.6709851,53.23" id="Fill-31" fill="#F1B563"></path>
                <path d="M196.323985,68.221 C196.323985,68.221 197.360985,79.782 183.430985,79.782 L58.7849851,79.782 C58.8349851,63.594 66.1889851,17.053 148.894985,17.053 C156.704985,17.053 163.885985,17.472 170.474985,18.237 C198.125985,38.436 196.323985,68.221 196.323985,68.221" id="Fill-33" fill="#D87E2E"></path>
            </g>
        </g>
    </g>
</svg>