<?xml version="1.0" encoding="UTF-8"?>
<svg width="222px" height="94px" viewBox="0 0 222 94" version="1.1" xmlns="http://www.w3.org/2000/svg" xmlns:xlink="http://www.w3.org/1999/xlink">
    <title>Group</title>
    <g id="Page-1" stroke="none" stroke-width="1" fill="none" fill-rule="evenodd">
        <g id="vectorstock_20069581" transform="translate(-672.000000, -170.000000)">
            <g id="Group" transform="translate(672.373323, 170.726647)">
                <path d="M16.1736767,17.047353 C16.1736767,17.047353 21.6686767,-1.18764702 33.6586767,0.0613529818 C45.6486767,1.31035298 82.8676767,10.303353 116.839677,7.30535298 C150.811677,4.30835298 186.531677,-6.18364702 198.522677,15.049353 C210.511677,36.281353 63.1346767,51.518353 16.1736767,17.047353" id="Fill-163" fill="#8B2626"></path>
                <path d="M16.1736767,24.648353 C16.1736767,24.648353 17.1466767,5.20235298 39.6416767,8.05835298 C51.6006767,9.57635298 82.8676767,17.904353 116.839677,14.906353 C150.811677,11.909353 186.531677,1.41735298 198.522677,22.650353 C210.511677,43.882353 63.1346767,59.120353 16.1736767,24.648353" id="Fill-164" fill="#5C1E1B"></path>
                <path d="M16.1736767,50.394353 C16.1736767,50.394353 -5.18432333,40.278353 1.18667667,22.668353 C7.55567667,5.05735298 22.1686767,12.176353 26.6646767,12.926353 C31.1606767,13.675353 137.946677,24.915353 185.157677,14.799353 C232.368677,4.68335298 224.500677,40.652353 207.639677,45.523353 C190.777677,50.394353 120.711677,82.618353 16.1736767,50.394353" id="Fill-176" fill="#CA422B"></path>
                <path d="M177.229677,84.494353 C132.956677,97.062353 22.1806767,99.366353 9.73967667,63.510353 C8.65767667,60.047353 7.28267667,53.209353 9.20567667,47.085353 C12.0066767,38.095353 21.8496767,30.596353 49.8996767,37.280353 C97.1016767,48.523353 160.052677,40.362353 175.790677,35.447353 C191.528677,30.532353 205.395677,33.932353 209.507677,42.895353 C209.851677,43.634353 210.359677,44.818353 210.844677,46.359353 L210.844677,46.372353 C213.492677,54.864353 214.829677,73.811353 177.229677,84.494353" id="Fill-177" fill="#EC962E"></path>
                <path d="M210.844677,46.359353 L210.844677,46.372353 C208.018677,54.572353 199.371677,63.726353 177.229677,70.004353 C132.956677,82.571353 22.1806767,84.888353 9.73967667,49.020353 C9.56267667,48.460353 9.38367667,47.810353 9.20567667,47.085353 C12.0066767,38.095353 21.8496767,30.596353 49.8996767,37.280353 C97.1016767,48.523353 160.052677,40.362353 175.790677,35.447353 C191.528677,30.532353 205.395677,33.932353 209.507677,42.895353 C209.851677,43.634353 210.359677,44.818353 210.844677,46.359353" id="Fill-178" fill="#F1B12A"></path>
                <path d="M127.291677,37.507353 C119.835677,37.507353 117.110677,31.938353 114.889677,27.397353 C112.561677,22.636353 110.549677,18.524353 103.836677,17.841353 C96.3816767,17.075353 93.4046767,21.258353 89.9586767,26.093353 C86.9696767,30.289353 83.5806767,35.042353 77.0826767,35.341353 C68.1956767,35.742353 67.5126767,27.729353 67.0946767,22.938353 C66.6106767,17.396353 66.0736767,16.527353 64.4766767,16.422353 C61.3926767,16.207353 59.4216767,18.724353 56.5676767,22.876353 C53.8726767,26.799353 50.5146767,31.675353 44.5986767,31.323353 C41.5766767,31.141353 39.0066767,29.922353 37.1666767,27.799353 C33.4916767,23.558353 33.9006767,17.210353 33.9596767,16.500353 C34.1036767,14.769353 35.6236767,13.491353 37.3546767,13.624353 C39.0826767,13.767353 40.3686767,15.281353 40.2306767,17.009353 C40.1416767,18.224353 40.2716767,21.788353 41.9336767,23.691353 C42.6676767,24.532353 43.6356767,24.961353 44.9776767,25.042353 C47.1886767,25.182353 48.8706767,22.967353 51.3816767,19.313353 C54.3286767,15.025353 58.0036767,9.68435298 64.8906767,10.143353 C72.3376767,10.635353 72.9546767,17.710353 73.3626767,22.392353 C73.8996767,28.559353 74.4856767,29.171353 76.7946767,29.055353 C80.0666767,28.905353 81.9806767,26.444353 84.8346767,22.441353 C88.4406767,17.382353 93.3856767,10.458353 104.473677,11.581353 C114.664677,12.618353 118.062677,19.562353 120.542677,24.633353 C122.985677,29.628353 124.153677,31.635353 128.470677,31.144353 C132.441677,30.693353 132.928677,29.120353 132.754677,23.109353 C132.633677,18.943353 132.431677,11.971353 139.960677,11.192353 C146.361677,10.534353 149.899677,15.589353 152.749677,19.652353 C156.445677,24.923353 158.224677,26.771353 162.243677,25.242353 C167.147677,23.376353 167.551677,21.272353 168.062677,18.610353 C168.558677,16.024353 169.388677,11.697353 175.910677,11.311353 C177.623677,11.222353 179.134677,12.532353 179.236677,14.266353 C179.339677,16.000353 178.016677,17.490353 176.281677,17.592353 C174.645677,17.689353 174.645677,17.689353 174.241677,19.795353 C173.652677,22.867353 172.666677,28.009353 164.481677,31.123353 C155.504677,34.541353 150.935677,28.023353 147.597677,23.265353 C144.947677,19.487353 143.205677,17.187353 140.607677,17.452353 C139.357677,17.581353 138.890677,17.629353 139.043677,22.927353 C139.188677,27.904353 139.429677,36.233353 129.180677,37.396353 C128.518677,37.472353 127.890677,37.507353 127.291677,37.507353" id="Fill-179" fill="#F1B12A"></path>
                <path d="M102.501677,65.692353 C80.1166767,65.692353 53.5886767,62.214353 23.4136767,52.538353 C23.4136767,52.538353 18.2076767,41.915353 29.3496767,40.960353 C29.5726767,40.941353 29.8196767,40.932353 30.0886767,40.932353 C34.4726767,40.932353 44.8526767,43.398353 59.2306767,45.864353 C73.6076767,48.330353 91.9826767,50.796353 112.352677,50.796353 C132.697677,50.796353 155.032677,48.337353 177.369677,40.960353 C177.369677,40.960353 178.481677,40.653353 179.875677,40.653353 C181.556677,40.653353 183.646677,41.100353 184.691677,43.076353 C186.039677,45.627353 156.237677,65.692353 102.501677,65.692353" id="Fill-180" fill="#F5CC4A"></path>
                <path d="M189.400677,52.104353 C189.400677,52.104353 188.355677,48.489353 193.368677,48.489353 C198.382677,48.489353 197.147677,52.104353 197.147677,52.104353 C197.147677,52.104353 197.154677,55.909353 193.368677,55.909353 C189.582677,55.909353 189.400677,52.104353 189.400677,52.104353" id="Fill-181" fill="#E9842D"></path>
                <path d="M163.270677,54.628353 C163.270677,54.628353 162.217677,50.984353 167.269677,50.984353 C172.320677,50.984353 171.076677,54.628353 171.076677,54.628353 C171.076677,54.628353 171.084677,58.461353 167.269677,58.461353 C163.453677,58.461353 163.270677,54.628353 163.270677,54.628353" id="Fill-182" fill="#E9842D"></path>
                <path d="M110.216677,68.895353 C110.216677,68.895353 109.162677,65.252353 114.214677,65.252353 C119.266677,65.252353 118.022677,68.895353 118.022677,68.895353 C118.022677,68.895353 118.029677,72.729353 114.214677,72.729353 C110.399677,72.729353 110.216677,68.895353 110.216677,68.895353" id="Fill-183" fill="#E9842D"></path>
                <path d="M68.6216767,56.816353 C68.6216767,56.816353 67.5686767,53.172353 72.6206767,53.172353 C77.6726767,53.172353 76.4286767,56.816353 76.4286767,56.816353 C76.4286767,56.816353 76.4356767,60.650353 72.6206767,60.650353 C68.8056767,60.650353 68.6216767,56.816353 68.6216767,56.816353" id="Fill-184" fill="#E9842D"></path>
                <path d="M40.3976767,65.165353 C40.3976767,65.165353 39.3446767,61.522353 44.3966767,61.522353 C49.4476767,61.522353 48.2036767,65.165353 48.2036767,65.165353 C48.2036767,65.165353 48.2106767,68.999353 44.3966767,68.999353 C40.5806767,68.999353 40.3976767,65.165353 40.3976767,65.165353" id="Fill-185" fill="#E9842D"></path>
                <path d="M31.0596767,49.338353 C31.0596767,49.338353 30.0066767,45.695353 35.0586767,45.695353 C40.1096767,45.695353 38.8666767,49.338353 38.8666767,49.338353 C38.8666767,49.338353 38.8736767,53.172353 35.0586767,53.172353 C31.2426767,53.172353 31.0596767,49.338353 31.0596767,49.338353" id="Fill-186" fill="#E9842D"></path>
            </g>
        </g>
    </g>
</svg>