<?xml version="1.0" encoding="UTF-8"?>
<svg width="189px" height="148px" viewBox="0 0 189 148" version="1.1" xmlns="http://www.w3.org/2000/svg" xmlns:xlink="http://www.w3.org/1999/xlink">
    <title>Group 391</title>
    <defs>
        <path d="M69.04,28.372 L69.04,28.372 C30.91,28.372 -5.68434189e-14,21.651 -5.68434189e-14,13.36 C-5.68434189e-14,7.538 15.243,2.49 37.523,0 C37.637,0.059 37.75,0.118 37.865,0.177 L37.053,3.062 C36.999,3.253 36.974,3.448 36.975,3.639 C36.978,4.391 37.384,5.105 38.073,5.473 C38.766,5.847 39.687,6.329 40.818,6.888 C47.829,10.335 62.781,16.629 79.354,17.122 C79.376,17.123 79.397,17.123 79.419,17.123 C80.359,17.123 81.195,16.507 81.453,15.596 L81.71,14.673 L82.165,13.06 C84.083,13.236 85.947,13.351 87.759,13.408 C87.755,13.408 87.753,13.408 87.749,13.407 C87.752,13.407 87.756,13.408 87.759,13.408 L87.774,13.409 C88.706,13.438 89.62,13.453 90.525,13.453 C105.078,13.453 116.131,9.666 124.461,4.406 C133.016,6.906 138.08,10.004 138.08,13.36 C138.08,21.651 107.17,28.372 69.04,28.372 L69.04,28.372 Z" id="path-1"></path>
        <polygon id="path-3" points="-5.68434189e-14 0 13.127 0 13.127 30.173 -5.68434189e-14 30.173"></polygon>
    </defs>
    <g id="Page-1" stroke="none" stroke-width="1" fill="none" fill-rule="evenodd">
        <g id="web1" transform="translate(-368.000000, -440.000000)">
            <g id="Group-365" transform="translate(368.075000, 559.271000)">
                <mask id="mask-2" fill="white">
                    <use xlink:href="#path-1"></use>
                </mask>
                <g id="Clip-364"></g>
                <polygon id="Fill-363" fill="#CBCFD7" mask="url(#mask-2)" points="-5.68434189e-14 28.372 138.08 28.372 138.08 0 -5.68434189e-14 0"></polygon>
            </g>
            <path d="M443.981,451.462 C443.981,455.44 440.756,458.666 436.778,458.666 C432.801,458.666 429.576,455.44 429.576,451.462 C429.576,447.484 432.801,444.261 436.778,444.261 C440.756,444.261 443.981,447.484 443.981,451.462" id="Fill-368" fill="#E46D2A"></path>
            <path d="M473.509,446.72 C473.509,446.72 477.822,461.752 493.425,456.616 C493.425,456.616 487.849,440.636 473.509,446.72" id="Fill-370" fill="#118E45"></path>
            <path d="M531.708,550.866 C531.708,550.866 536.359,560.854 521.472,567.107 C521.472,567.107 518.775,554.637 531.708,550.866" id="Fill-373" fill="#87B13F"></path>
            <path d="M396.03,477.58 C396.03,477.58 400.618,467.561 415.031,474.839 C415.031,474.839 407.288,484.979 396.03,477.58" id="Fill-374" fill="#87B13F"></path>
            <path d="M450.282,572.185 L449.785,573.944 L449.528,574.867 C449.265,575.799 448.395,576.423 447.429,576.393 C430.856,575.9 415.904,569.606 408.893,566.159 C407.762,565.6 406.841,565.118 406.148,564.744 C405.284,564.282 404.865,563.276 405.128,562.333 L405.991,559.268 L450.282,572.185" id="Fill-375" fill="#F8DDA3"></path>
            <path d="M450.282,572.185 L449.785,573.944 C446.154,573.442 438.725,572.368 431.082,570.92 C418.728,568.581 409.967,562.226 408.893,566.159 C407.762,565.6 406.841,565.118 406.148,564.744 C405.284,564.282 404.865,563.276 405.128,562.333 L405.991,559.268 L450.282,572.185" id="Fill-376" fill="#F7C67F"></path>
            <path d="M516.345,532.134 C516.345,532.134 514.757,538.503 509.885,546.197 C509.001,547.606 508,549.048 506.881,550.508 C498.36,561.637 482.874,573.543 455.849,572.68 L455.834,572.679 C447.806,572.426 438.754,571.041 428.565,568.173 C384.456,555.759 372.19,530.537 369.446,512.291 C369.164,510.42 368.98,508.632 368.882,506.929 C368.294,497.494 370.045,490.966 370.045,490.966 L389.47,496.431 L488.97,524.43 L496.093,526.435 L516.345,532.134" id="Fill-377" fill="#F8DDA3"></path>
            <path d="M516.346,532.135 C514.341,539.264 479.964,535.827 439.563,524.458 C399.164,513.089 368.041,498.093 370.048,490.963 C372.054,483.835 406.43,487.271 446.829,498.64 C487.228,510.01 518.353,525.006 516.346,532.135" id="Fill-378" fill="#FCF0CE"></path>
            <path d="M494.962,547.428 C478.475,547.397 457.456,544.016 435.778,537.916 C414.097,531.815 394.403,523.738 380.316,515.164 C375.71,512.364 371.862,509.58 368.88,506.931 C368.982,508.631 369.164,510.421 369.445,512.289 C372.298,514.508 375.394,516.56 378.366,518.371 C392.734,527.117 412.759,535.339 434.761,541.531 C456.757,547.721 478.132,551.151 494.959,551.182262 C498.806,551.19 502.94,551.016 506.883,550.51 C508.003,549.047 508.998,547.605 509.884,546.2 C505.789,547.013 500.757,547.444 494.962,547.428" id="Fill-379" fill="#FFFFFE"></path>
            <path d="M457.748,568.728 L457.747,568.728 C467.056,563.765 473.654,557.001 478.312,550.213 C479.921,550.385 481.504,550.534 483.064,550.661 C472.117,562.227 458.435,568.422 457.748,568.728 M486.175,547.124 C484.347,547.007 482.478,546.855 480.574,546.671 C483.144,542.345 484.97,538.136 486.255,534.516 C488.772,534.853 491.166,535.127 493.429,535.337 C491.571,539.673 489.039,543.606 486.175,547.124" id="Fill-380" fill="#FAEAC3"></path>
            <path d="M493.429,535.337 C491.166,535.127 488.772,534.853 486.255,534.516 C486.379,534.167 486.498,533.823 486.612,533.484 C488.628,533.752 490.581,533.98 492.461,534.169 C492.935,534.215 493.4,534.259 493.857,534.301 C493.719,534.648 493.576,534.995 493.429,535.337" id="Fill-381" fill="#FEF6DF"></path>
            <path d="M483.064,550.661 C481.504,550.534 479.921,550.385 478.312,550.213 C479.123,549.03 479.876,547.846 480.574,546.671 C482.478,546.855 484.347,547.007 486.175,547.124 C485.173,548.354 484.132,549.533 483.064,550.661" id="Fill-382" fill="#FFFFFE"></path>
            <path d="M455.834,572.679 C454.022,572.622 452.158,572.507 450.24,572.331 L450.241,572.33 C452.155,572.507 454.015,572.621 455.824,572.678 C455.828,572.679 455.83,572.679 455.834,572.679" id="Fill-383" fill="#A4ABBB"></path>
            <path d="M450.24,572.331 C449.679,572.279 449.113,572.222 448.542,572.159 C449.113,572.222 449.679,572.279 450.241,572.33 L450.24,572.331" id="Fill-384" fill="#C7A476"></path>
            <path d="M405.598,559.271 C403.774,558.32 402.039,557.342 400.386,556.338 C402.039,557.342 403.774,558.32 405.599,559.271 L405.598,559.271" id="Fill-385" fill="#CDD1D9"></path>
            <path d="M405.94,559.448 C405.825,559.389 405.712,559.33 405.598,559.271 L405.599,559.271 C405.713,559.33 405.825,559.389 405.94,559.448" id="Fill-386" fill="#A4ABBB"></path>
            <g id="Group-391" transform="translate(368.761000, 490.970000)">
                <path d="M68.687,79.397 C65.826,78.793 62.866,78.065 59.803,77.203 C51.073,74.746 43.587,71.785 37.179,68.478 C43.588,71.785 51.073,74.746 59.804,77.203 C62.867,78.065 65.827,78.793 68.687,79.397" id="Fill-387" fill="#C7A476"></path>
                <path d="M7.502,41.288 C3.597,34.346 1.605,27.44 0.684,21.321 C0.669,21.22 0.654,21.119 0.64,21.018 C0.654,21.118 0.669,21.218 0.684,21.319 C0.685,21.319 0.685,21.32 0.685,21.321 C1.605,27.44 3.597,34.346 7.502,41.288 M0.121,15.962 C0.121,15.962 0.121,15.962 0.12,15.962 C0.12,15.961 0.12,15.96 0.12,15.959 C0.038,14.641 0.002,13.379 0,12.184 L0,11.98 C0.011,4.867 1.239,0.165 1.282,0 L1.283,0 C1.236,0.177 -0.459,6.655 0.121,15.959 C0.121,15.96 0.121,15.961 0.121,15.962" id="Fill-389" fill="#CDD1D9"></path>
                <path d="M87.063,81.708 C85.254,81.651 83.394,81.537 81.48,81.36 C80.918,81.309 80.352,81.252 79.781,81.189 C76.261,80.805 72.566,80.215 68.687,79.397 C65.827,78.793 62.867,78.065 59.804,77.203 C51.073,74.746 43.588,71.785 37.179,68.478 C37.064,68.419 36.952,68.36 36.838,68.301 C35.013,67.35 33.278,66.372 31.625,65.368 C19.776,58.17 12.234,49.701 7.502,41.288 C3.597,34.346 1.605,27.44 0.685,21.321 C0.685,21.32 0.685,21.319 0.684,21.319 C3.537,23.538 6.633,25.59 9.605,27.401 C12.389,29.096 15.386,30.771 18.568,32.415 C19.124,37.395 20.261,42.633 22.207,48.007 C31.421,73.452 73.936,80.212 87.063,81.708 M18.219,27.991 C15.881,26.739 13.656,25.472 11.555,24.194 C6.95,21.394 3.103,18.611 0.121,15.962 C0.121,15.961 0.121,15.96 0.121,15.959 C-0.459,6.655 1.236,0.177 1.283,0 L1.285,0 C0.326,3.442 7.079,8.715 18.863,14.528 C18.284,18.638 17.993,23.165 18.219,27.991" id="Fill-390" fill="#C6B591"></path>
            </g>
            <path d="M387.624,505.498 C375.84,499.685 369.087,494.412 370.046,490.97 L370.061,490.97 L371.077,491.256 C370.518,493.28 374.388,497.591 386.634,503.804 C387.01,503.995 387.395,504.189 387.789,504.384 C387.732,504.751 387.677,505.123 387.624,505.498" id="Fill-392" fill="#C9C2B3"></path>
            <path d="M387.329,523.385 C384.147,521.741 381.15,520.066 378.366,518.371 C375.394,516.56 372.298,514.508 369.445,512.289 C369.43,512.188 369.415,512.088 369.401,511.988 C369.146,510.228 368.975,508.541 368.881,506.932 C368.882,506.932 368.882,506.932 368.882,506.932 C371.864,509.581 375.711,512.364 380.316,515.164 C382.417,516.442 384.642,517.709 386.98,518.961 C387.048,520.409 387.162,521.887 387.329,523.385" id="Fill-393" fill="#CDD1D9"></path>
            <path d="M515.312,531.847 C514.783,533.744 509.862,535.319 497.963,534.616 C496.271,534.511 494.442,534.364 492.461,534.169 C478.019,532.721 459.337,528.908 439.854,523.428 C420.377,517.942 402.443,511.452 389.368,505.153 C388.413,504.695 387.499,504.244 386.634,503.804 C374.381,497.587 370.513,493.275 371.078,491.253 C371.691,489.088 378.012,487.342 393.934,488.931 C408.375,490.379 427.058,494.191 446.541,499.672 C466.018,505.158 483.946,511.647 497.026,517.946 C511.441,524.889 515.925,529.677 515.312,531.847" id="Fill-394" fill="#F8DDA3"></path>
            <path d="M497.963,534.616 C496.271,534.511 494.442,534.365 492.462,534.168 C478.019,532.721 459.337,528.908 439.854,523.428 C420.377,517.942 402.443,511.452 389.368,505.154 C388.413,504.695 387.5,504.245 386.634,503.804 C389.489,503.673 393.018,503.747 397.317,504.095 C410.379,505.154 427.227,508.453 444.755,513.385 C462.283,518.316 478.379,524.286 490.073,530.198 C493.214,531.788 495.821,533.262 497.963,534.616" id="Fill-395" fill="#F7C67F"></path>
            <path d="M478.807,514.348 C475.638,516.088 472.368,517.198 469.118,517.738 C451.848,520.628 435.127,507.628 436.808,489.678 C438.638,470.098 459.888,463.878 472.808,468.998 C478.187,471.128 482.508,474.428 485.628,478.328 C494.728,489.668 493.687,506.168 478.807,514.348" id="Fill-407" fill="#DC3E63"></path>
            <path d="M480.35,505.401 C480.12,505.401 479.883,505.382 479.638,505.344 C474.687,504.571 478.64,496.186 482.565,496.186 C482.869,496.186 483.172,496.236 483.471,496.344 C484.599,496.75 485.134,498.014 485.14,499.473 L485.14,499.522 C485.13,502.156 483.408,505.401 480.35,505.401" id="Fill-408" fill="#E56F89"></path>
            <path d="M474.705,513.507 L474.668,513.507 C474.08,513.502 473.45,513.305 472.804,512.844 C469.937,510.796 473.631,508.077 476.13,508.077 C476.682,508.077 477.175,508.209 477.527,508.511 C479.013,509.785 477.281,513.491 474.705,513.507" id="Fill-409" fill="#E56F89"></path>
            <path d="M471.585,506.016 C470.251,506.016 469.652,505.168 469.632,504.264 L469.632,504.168 C469.633,504.137 469.634,504.105 469.636,504.074 C469.7,503.104 470.413,502.133 471.585,502.133 C471.643,502.133 471.702,502.135 471.762,502.14 C474.338,502.347 474.887,505.844 471.762,506.011 C471.702,506.014 471.643,506.016 471.585,506.016" id="Fill-410" fill="#E56F89"></path>
            <g id="Group-414" transform="translate(436.691209, 467.290000)">
                <path d="M48.9367913,11.038 L48.9367913,11.038 C48.1737913,10.085 47.3397913,9.168 46.4367913,8.295 C47.3407913,9.168 48.1747913,10.085 48.9367913,11.038 M6.34479131,8.226 C11.4857913,2.789 19.0167913,0.115 26.1357913,0 L26.1677913,0 C19.0387913,0.107 11.4927913,2.781 6.34479131,8.226 M31.3977913,0.399 C29.9897913,0.156 28.5347913,0.022 27.0547913,0 L27.0867913,0 C28.5557913,0.024 29.9997913,0.157 31.3977913,0.399" id="Fill-411" fill="#C3959D"></path>
                <path d="M27.5867913,50.85 C12.1757913,50.851 -1.40520869,38.651 0.116791308,22.388 C0.670791308,16.462 3.00279131,11.761 6.34479131,8.226 C11.4927913,2.781 19.0387913,0.107 26.1677913,0 L27.0547913,0 C28.5347913,0.022 29.9897913,0.156 31.3977913,0.399 C31.9887913,2.153 32.2767913,3.558 32.2767913,3.558 C26.9467913,3.707 21.6157913,8.568 21.2967913,8.877 C22.5707913,8.41 23.9617913,8.243 25.3037913,8.243 C28.7027913,8.243 31.7767913,9.317 31.7767913,9.317 C31.9437913,10.463 31.9987913,11.985 31.9987913,13.505 C31.9987913,16.536 31.7767913,19.557 31.7767913,19.557 L31.7767913,19.558 C37.2767913,15.887 38.1167913,10.558 38.1167913,10.558 C41.1167913,12.058 45.1157913,19.558 45.1157913,19.558 C46.1167913,13.887 43.9467913,9.317 43.9467913,9.317 C44.6447913,8.875 45.5137913,8.544 46.4367913,8.295 C47.3397913,9.168 48.1737913,10.085 48.9367913,11.038 C47.8767913,11.408 46.7867913,11.687 45.6467913,11.858 C46.4467913,13.947 46.9867913,16.098 46.7767913,18.368 C46.7167913,19.078 44.6967913,24.118 44.6867913,24.118 C42.6267913,21.188 40.5667913,18.248 38.5067913,15.308 C36.9967913,19.957 33.4867913,23.908 29.0467913,25.947 C29.4267913,22.228 29.2267913,18.458 28.4667913,14.798 C28.3167913,14.058 28.1157913,13.268 27.5467913,12.768 C27.0037913,12.293 26.2607913,12.178 25.5297913,12.178 C25.3977913,12.178 25.2667913,12.181 25.1367913,12.187 C18.9167913,12.487 13.1867913,16.898 10.9067913,22.697 C8.62679131,28.507 9.68679131,35.388 13.2467913,40.507 C16.7967913,45.627 22.6467913,48.977 28.8167913,49.908 C29.9967913,50.087 31.2367913,50.218 32.4267913,50.447 C30.8037913,50.719 29.1847913,50.85 27.5867913,50.85" id="Fill-413" fill="#BB2849"></path>
            </g>
            <path d="M480.638,476.607 C480.638,476.607 482.808,481.177 481.807,486.848 C481.807,486.848 477.808,479.348 474.808,477.848 C474.808,477.848 473.968,483.177 468.468,486.848 C468.468,486.848 468.968,480.037 468.468,476.607 C468.468,476.607 462.488,474.517 457.988,476.167 C458.307,475.858 463.638,470.997 468.968,470.848 C468.968,470.848 467.638,464.348 464.807,461.848 C464.807,461.848 471.968,462.678 475.307,468.678 C475.307,468.678 476.468,466.848 476.308,461.848 C476.308,461.848 476.728,462.267 477.267,463.068 C478.288,464.577 479.748,467.428 479.638,471.348 C479.638,471.348 485.307,470.507 489.808,474.848 C489.808,474.848 483.638,474.707 480.638,476.607" id="Fill-415" fill="#118E45"></path>
            <path d="M475.307,468.678 C472.073,462.867 465.256,461.905 464.829,461.85 C465.257,461.905 472.073,462.867 475.307,468.677 C475.307,468.677 476.319,467.083 476.323,462.802 C476.319,467.083 475.307,468.678 475.307,468.678" id="Fill-416" fill="#99B5AB"></path>
            <path d="M468.468,486.847 C468.468,486.847 468.69,483.826 468.69,480.795 C468.69,483.798 468.472,486.792 468.468,486.847" id="Fill-417" fill="#6F323F"></path>
            <path d="M468.468,486.847 C468.472,486.792 468.69,483.798 468.69,480.795 C468.69,479.275 468.635,477.753 468.468,476.607 C468.468,476.607 465.394,475.533 461.995,475.533 C460.653,475.533 459.262,475.7 457.988,476.167 C458.307,475.858 463.638,470.997 468.968,470.848 C468.968,470.848 467.639,464.352 464.81,461.85 L464.829,461.85 C465.256,461.905 472.073,462.867 475.307,468.678 C475.307,468.678 476.319,467.083 476.323,462.802 C476.323,462.587 476.321,462.365 476.316,462.137 C476.314,462.042 476.311,461.947 476.308,461.85 L476.31,461.85 C476.346,461.887 476.752,462.304 477.267,463.068 C477.418,463.843 477.52,464.695 477.524,465.584 L477.524,465.682 C477.517,467.425 477.124,469.302 475.968,471.007 C475.968,471.007 472.997,466.427 470.138,466.007 C470.138,466.007 471.807,471.177 471.468,472.677 C471.468,472.677 470.882,472.597 470.019,472.597 C468.725,472.597 466.808,472.777 465.307,473.677 C465.307,473.677 469.308,474.347 470.638,475.347 C470.638,475.347 470.397,481.027 469.808,483.677 C469.808,483.677 473.638,482.007 474.808,477.847 C474.808,477.847 473.968,483.177 468.468,486.847" id="Fill-418" fill="#14733C"></path>
            <path d="M541.66,486.488 C538.497,487.586 535.575,489.201 533.022,491.341 C529.483,494.3 526.647,498.277 524.859,503.289 C523.25,507.796 524.088,509.455 518.694,508.53 C516.079,508.08 513.31,506.908 510.968,505.41 C508.477,503.825 506.467,501.877 505.592,500.052 C503.896,496.507 510.061,493.886 512.528,487.567 C514.994,481.247 513.606,473.8 513.606,473.8 C516.227,473.8 518.231,473.182 518.231,473.182 C518.231,473.182 517.855,477.067 518.429,479.989 C518.835,482.03 519.699,483.603 521.468,483.097 C522.62,482.77 523.564,481.58 524.304,480.18 C525.636,477.659 526.296,474.465 526.296,474.465 L531.536,476.469 C531.536,476.469 529.323,481.371 528.799,484.774 C528.558,486.309 528.669,487.542 529.483,487.875 C529.933,488.059 530.494,487.992 531.117,487.746 C534.132,486.587 538.577,481.402 538.577,481.402 L541.66,486.488" id="Fill-419" fill="#87B13F"></path>
            <path d="M519.713,506.215 L519.635,506.215 C519.079,506.203 518.662,505.919 518.644,505.326 L518.644,505.244 C518.645,505.21 518.647,505.175 518.651,505.139 C518.847,503.135 523.626,491.461 526.863,490.978 C526.894,490.973 526.924,490.971 526.954,490.97 L526.996,490.97 C527.395,490.982 527.617,491.352 527.627,491.912 L527.627,491.992 C527.617,492.593 527.375,493.39 526.863,494.195 C525.784,495.89 522.854,500.668 522.547,503.443 C522.353,505.179 520.801,506.191 519.713,506.215" id="Fill-420" fill="#9EC842"></path>
            <g id="Group-424" transform="translate(505.301000, 475.236000)">
                <mask id="mask-4" fill="white">
                    <use xlink:href="#path-3"></use>
                </mask>
                <g id="Clip-422"></g>
                <path d="M1.075,26.1 C0.758,25.669 0.493,25.239 0.29,24.815 C0.097,24.413 0.006,24.022 -5.68433918e-14,23.636 L-5.68433918e-14,23.546 C0.01,22.963 0.21,22.391 0.543,21.806 C-0.026,22.808 -0.209,23.772 0.291,24.816 C0.494,25.239 0.758,25.669 1.075,26.1" id="Fill-421" fill="#C1D3C9" mask="url(#mask-4)"></path>
                <path d="M5.667,30.173 C3.754,28.957 2.125,27.526 1.075,26.1 C0.758,25.669 0.494,25.239 0.291,24.816 C-0.209,23.772 -0.026,22.808 0.543,21.806 C1.906,19.407 5.487,16.789 7.227,12.331 C8.749,8.431 8.803,4.101 8.622,1.357 C9.986,0.718 10.926,0 10.926,0 C10.926,0 11.32,1.139 12.295,2.085 C12.465,2.25 12.653,2.41 12.86,2.557 C12.907,3.299 12.99,4.053 13.127,4.751 L13.127,4.753 C13.097,4.75 13.068,4.749 13.04,4.749 C12.96,4.749 12.882,4.76 12.8,4.778 C11.999,4.981 11.733,5.968 11.579,6.782 C10.889,10.401 9.551,13.903 7.646,17.066 C5.734,20.235 3.14,23.669 4.131,27.232 C4.427,28.306 5.032,29.249 5.667,30.173" id="Fill-423" fill="#689841" mask="url(#mask-4)"></path>
            </g>
            <path d="M528.8,484.77 L528.8,484.77 C528.86,484.379 528.942,483.969 529.041,483.549 C528.942,483.969 528.86,484.379 528.8,484.77" id="Fill-425" fill="#C1D3C9"></path>
            <path d="M528.8,484.77 L528.794,484.77 C527.131,483.415 525.622,481.868 524.304,480.18 C524.579,479.66 524.825,479.112 525.042,478.569 C525.111,478.694 525.182,478.815 525.255,478.933 C525.524,479.367 525.818,479.75 526.129,480.064 L526.133,480.067 L526.135,480.069 C526.219,480.298 526.313,480.523 526.418,480.745 C526.959,481.892 527.786,482.919 529.041,483.549 C528.942,483.969 528.86,484.379 528.8,484.77" id="Fill-426" fill="#689841"></path>
            <path d="M533.023,491.34 L533.021,491.34 C532.763,491.012 532.522,490.679 532.288,490.36 C531.709,489.552 531.438,488.635 531.117,487.747 L531.117,487.746 C531.618,487.554 532.158,487.25 532.71,486.878 C532.846,487.343 533.05,487.809 533.338,488.268 C533.582,488.658 533.886,489.042 534.261,489.417 C534.452,489.608 534.645,489.785 534.838,489.949 C534.214,490.385 533.609,490.849 533.023,491.34" id="Fill-427" fill="#689841"></path>
            <path d="M556.457,487.567 C555.76,489.454 553.966,490.915 551.845,491.759 C548.787,492.98 545.051,492.906 543.047,490.977 C543.047,490.977 538.423,493.578 534.261,489.417 C532.584,487.739 532.307,485.859 532.578,484.213 C532.874,482.406 533.823,480.89 534.298,480.224 C534.44,480.02 534.539,479.897 534.563,479.866 C534.526,479.891 534.341,480.02 534.039,480.193 C532.701,480.97 529.107,482.659 526.4,480.322 C526.314,480.242 526.221,480.162 526.135,480.069 L526.129,480.064 C525.426,479.355 524.81,478.294 524.378,477.079 C524.101,476.327 523.897,475.513 523.786,474.681 C523.262,470.766 524.742,466.505 530.488,466.604 C530.488,466.604 530.408,460.747 537.344,460.284 C544.28,459.822 545.667,464.755 545.667,464.755 C545.667,464.755 550.618,462.868 554.435,466.518 C554.983,467.036 555.508,467.677 555.995,468.454 C559.848,474.619 554.453,480.168 554.453,480.168 C554.453,480.168 558.153,482.943 556.457,487.567" id="Fill-428" fill="#118E45"></path>
            <path d="M551.525,481.401 C546.13,485.564 541.66,480.785 541.66,480.785 C541.66,480.785 540.353,482.418 537.486,483.43 C536.185,483.892 534.557,484.226 532.578,484.214313 C532.227,484.214313 531.863,484.2 531.487,484.175 C528.429,483.978 526.894,482.122 526.135,480.069 L526.129,480.063 C525.389,478.059 525.383,475.883 525.432,474.878 C525.346,475.434 525.099,476.315 524.378,477.079 C523.805,477.683 522.935,478.22 521.622,478.473 C517.614,479.244 516.227,475.235 516.227,475.235 C516.227,475.235 510.524,479.588 506.825,476.414 C503.125,473.232 505.302,468.145 505.302,468.145 C505.302,468.145 500.967,463.83 504.667,458.897 C508.366,453.964 512.99,456.585 512.99,456.585 C512.99,456.585 514.378,451.345 520.388,451.807 C521.092,451.862 521.721,451.955 522.282,452.078 C526.536,453.016 527.017,455.661 527.017,455.661 C527.017,455.661 529.329,450.419 536.573,452.27 C543.818,454.119 544.28,459.052 544.28,459.052 C544.28,459.052 547.671,456.893 552.14,461.518 C553.751,463.182 554.342,464.945 554.435,466.518 C554.608,469.322 553.22,471.536 553.22,471.536 C553.22,471.536 556.92,477.239 551.525,481.401" id="Fill-429" fill="#118E45"></path>
            <g id="Group-434" transform="translate(547.620809, 468.791000)" fill="#47AD47">
                <path d="M6.69219079,5.61 C6.36619079,3.928 5.59919079,2.745 5.59919079,2.745 C5.59919079,2.745 5.80819079,2.411 6.05419079,1.838 C6.58619079,2.928 6.80419079,4.341 6.69219079,5.61" id="Fill-430"></path>
                <path d="M4.35719079,8.803 C4.21319079,8.803 4.06219079,8.788 3.90419079,8.756 C0.173190795,8.011 -0.234809205,0 3.52019079,0 C3.64319079,0 3.77119079,0.009 3.90419079,0.026 C4.86119079,0.156 5.58219079,0.869 6.05419079,1.838 C5.80819079,2.411 5.59919079,2.745 5.59919079,2.745 C5.59919079,2.745 6.36619079,3.928 6.69219079,5.61 C6.54019079,7.341 5.77519079,8.803 4.35719079,8.803" id="Fill-432"></path>
                <path d="M3.06919079,19.549 L2.91119079,19.549 C0.0761907946,19.486 -0.603809205,16.053 0.505190795,14.207 C1.33819079,14.054 2.22319079,13.724 3.13919079,13.146 C5.96219079,13.906 6.76819079,19.406 3.13319079,19.547 C3.11219079,19.548 3.09019079,19.548 3.06919079,19.549" id="Fill-433"></path>
            </g>
            <path d="M548.126,482.998 C548.498,482.38 549.07,481.94 549.829,481.864 C549.92,481.855 550.01,481.85 550.099,481.85 C550.33,481.85 550.551,481.88 550.76,481.937 C549.844,482.515 548.959,482.845 548.126,482.998" id="Fill-435" fill="#47AD47"></path>
            <path d="M543.51,477.735 C541.083,477.735 538.729,473.742 538.708,470.744 L538.708,470.667 C538.719,469.045 539.427,467.731 541.197,467.529 C541.234,467.525 541.271,467.522 541.307,467.52 L541.446,467.52 C544.484,467.649 548.18,476.139 544.28,477.595 C544.025,477.69 543.767,477.735 543.51,477.735" id="Fill-436" fill="#47AD47"></path>
            <path d="M547.888,492.57 L547.862,492.57 C549.191,492.549 550.575,492.266 551.843,491.76 C551.844,491.76 551.844,491.759 551.845,491.759 C550.585,492.263 549.209,492.546 547.888,492.57 M547.548,492.57 L547.523,492.57 C546.446,492.55 545.416,492.353 544.526,491.956 C545.423,492.356 546.462,492.553 547.548,492.57 M532.71,486.878 C532.461,486.027 532.44,485.178 532.553,484.379 C532.441,485.178 532.462,486.027 532.71,486.878 M532.578,484.214 C532.226,484.214 531.863,484.2 531.487,484.176 C530.531,484.114 529.723,483.89 529.041,483.549 L529.041,483.548 C529.723,483.89 530.53,484.114 531.487,484.175 C531.863,484.2 532.227,484.214 532.578,484.214" id="Fill-437" fill="#B1C6BD"></path>
            <polyline id="Fill-438" fill="#85A79B" points="529.041 483.549 529.041 483.548 529.041 483.549"></polyline>
            <path d="M529.041,483.549 C527.786,482.919 526.959,481.892 526.418,480.745 C526.96,481.892 527.786,482.919 529.041,483.548 L529.041,483.549" id="Fill-439" fill="#4C823E"></path>
            <path d="M533.338,488.268 C533.05,487.809 532.846,487.343 532.71,486.878 C532.846,487.343 533.05,487.809 533.338,488.268" id="Fill-440" fill="#4C823E"></path>
            <path d="M547.862,492.57 L547.548,492.57 C546.462,492.553 545.423,492.356 544.526,491.956 C543.971,491.709 543.47,491.384 543.047,490.977 C543.047,490.977 541.62,491.78 539.637,491.78 C538.052,491.78 536.111,491.266 534.261,489.417 C533.887,489.042 533.582,488.658 533.338,488.268 C533.05,487.809 532.846,487.343 532.71,486.878 C532.462,486.027 532.441,485.178 532.553,484.379 C532.56,484.324 532.569,484.269 532.578,484.214 C532.613,484.214 532.647,484.214 532.682,484.214 C534.614,484.214 536.208,483.884 537.486,483.43 C537.436,483.83 537.406,484.232 537.43,484.638 C537.529,486.254 538.595,487.771 540.075,488.424 C540.625,488.663 541.222,488.78 541.821,488.78 C542.841,488.78 543.863,488.442 544.656,487.801 C544.78,489.453 546.087,490.865 547.634,491.469 C548.432,491.785 549.281,491.915 550.139,491.915 C550.707,491.915 551.279,491.858 551.843,491.76 C550.575,492.266 549.191,492.549 547.862,492.57" id="Fill-441" fill="#13793F"></path>
            <path d="M525.042,478.568 C524.791,478.113 524.567,477.611 524.378,477.079 C524.567,477.611 524.791,478.112 525.042,478.568" id="Fill-442" fill="#B1C6BD"></path>
            <path d="M525.042,478.569 L525.042,478.568 C525.042,478.568 525.042,478.568 525.042,478.569" id="Fill-443" fill="#619340"></path>
            <path d="M525.255,478.933 C525.182,478.815 525.111,478.694 525.042,478.569 C525.111,478.694 525.182,478.815 525.255,478.933" id="Fill-444" fill="#4C823E"></path>
            <path d="M526.129,480.063 C525.818,479.749 525.524,479.367 525.255,478.933 C525.182,478.815 525.111,478.694 525.042,478.569 C525.042,478.568 525.042,478.568 525.042,478.568 C524.791,478.112 524.567,477.611 524.378,477.079 C525.099,476.315 525.346,475.433 525.432,474.878 C525.383,475.883 525.389,478.059 526.129,480.063" id="Fill-445" fill="#13793F"></path>
            <path d="M510.073,477.573 C509.959,477.573 509.844,477.569 509.729,477.563 C509.844,477.569 509.958,477.573 510.072,477.573 C511.451,477.572 512.824,477.108 513.922,476.593 C513.922,476.593 513.922,476.593 513.922,476.594 C512.825,477.108 511.452,477.573 510.073,477.573" id="Fill-446" fill="#B1C6BD"></path>
            <path d="M513.922,476.594 C513.922,476.593 513.922,476.593 513.922,476.593 L513.923,476.593 L513.922,476.594" id="Fill-447" fill="#619340"></path>
            <g id="Group-452" transform="translate(503.172157, 451.780000)">
                <path d="M14.4238426,25.541 C13.4488426,24.595 13.0548426,23.456 13.0548426,23.456 C13.0548426,23.456 12.1148426,24.174 10.7508426,24.813 L10.7498426,24.813 C12.1148426,24.173 13.0548426,23.455 13.0548426,23.455 C13.0548426,23.455 13.4488426,24.594 14.4238426,25.541" id="Fill-448" fill="#4C823E"></path>
                <path d="M3.2838426,24.291 C2.3288426,23.333 1.8428426,22.236 1.6308426,21.169 C1.8428426,22.236 2.3288426,23.333 3.2838426,24.291 M0.0438425967,12.02 C-0.126157403,10.579 0.165842597,8.888 1.4938426,7.117 C2.1288426,6.271 2.7898426,5.648 3.4508426,5.195 C2.7908426,5.648 2.1288426,6.272 1.4948426,7.117 C0.166842597,8.888 -0.126157403,10.579 0.0438425967,12.02 M9.8178426,4.805 C9.8178426,4.805 9.2958426,4.51 8.4618426,4.304 C9.2798426,4.505 9.7968426,4.794 9.8178426,4.805 M10.6898426,2.992 C11.5768426,1.661 13.2598426,0.073 16.2628426,2.27373675e-13 L16.2688426,2.27373675e-13 C13.2628426,0.072 11.5768426,1.661 10.6898426,2.992 M19.1088426,0.298 C18.6018426,0.186 18.0398426,0.1 17.4168426,0.044 C18.0398426,0.1 18.6018426,0.186 19.1098426,0.298 C19.1098426,0.298 19.1098426,0.298 19.1088426,0.298 M17.0278426,0.014 C16.9148426,0.007 16.8038426,0.003 16.6938426,2.27373675e-13 L16.6968426,2.27373675e-13 C16.8048426,0.003 16.9148426,0.007 17.0278426,0.014" id="Fill-450" fill="#B1C6BD"></path>
                <path d="M29.5098426,32.434 C29.4748426,32.434 29.4408426,32.434 29.4058426,32.434 C29.0548426,32.434 28.6908426,32.42 28.3148426,32.395 C27.3578426,32.334 26.5508426,32.11 25.8688426,31.768 C24.6138426,31.139 23.7878426,30.112 23.2458426,28.965 C23.1408426,28.743 23.0468426,28.518 22.9628426,28.289 L22.9568426,28.283 C22.2168426,26.279 22.2108426,24.103 22.2598426,23.098 C22.1738426,23.653 21.9268426,24.535 21.2058426,25.299 C20.6318426,25.903 19.7628426,26.439 18.4498426,26.692 C18.0988426,26.76 17.7668426,26.791 17.4548426,26.791 C16.1048426,26.791 15.1178426,26.215 14.4238426,25.541 C13.4488426,24.594 13.0548426,23.455 13.0548426,23.455 C13.0548426,23.455 12.1148426,24.173 10.7498426,24.813 C9.6518426,25.328 8.2788426,25.792 6.8998426,25.793 C6.7858426,25.793 6.6718426,25.789 6.5568426,25.783 C5.5438426,25.724 4.5408426,25.396 3.6518426,24.633 C3.5218426,24.521 3.3998426,24.407 3.2838426,24.291 C2.3288426,23.333 1.8428426,22.236 1.6308426,21.169 C1.1378426,18.684 2.1298426,16.365 2.1298426,16.365 C2.1298426,16.365 0.348842597,14.592 0.0438425967,12.02 C-0.126157403,10.579 0.166842597,8.888 1.4948426,7.117 C2.1288426,6.272 2.7908426,5.648 3.4508426,5.195 C4.6588426,4.368 5.8638426,4.11 6.8948426,4.11 C7.4848426,4.11 8.0178426,4.194 8.4618426,4.304 C9.2958426,4.51 9.8178426,4.805 9.8178426,4.805 C9.8178426,4.805 10.0398426,3.968 10.6898426,2.992 C11.5768426,1.661 13.2628426,0.072 16.2688426,2.27373675e-13 L16.6938426,2.27373675e-13 C16.8038426,0.003 16.9148426,0.007 17.0278426,0.014 C17.0898426,0.017 17.1528426,0.022 17.2158426,0.027 C17.2838426,0.032 17.3508426,0.038 17.4168426,0.044 C18.0398426,0.1 18.6018426,0.186 19.1088426,0.298 C17.3948426,0.854 15.8908426,2.024 15.0518426,3.646 C14.3928426,4.934 14.1578426,6.476 14.5958426,7.851 C14.9788426,9.041 15.9028426,10.064 17.0688426,10.483 C16.9198426,10.46 16.7688426,10.449 16.6178426,10.449 C14.8738426,10.449 13.1348426,11.939 13.1348426,13.726 C13.1348426,15.513 14.8798426,17.005 16.6168426,17.005 C16.9658426,17.005 17.3138426,16.945 17.6478426,16.815 C16.2978426,18.579 17.0258426,21.476 18.9978426,22.494 C19.5038426,22.752 20.0528426,22.882 20.6138426,22.9 C20.6458426,22.901 20.6768426,22.901 20.7088426,22.901 C21.2448426,22.901 21.7848426,22.797 22.2908426,22.604 L22.3028426,22.6 C23.2958426,22.222 24.1648426,21.495 24.6278426,20.533 C24.4358426,23.03 25.6078426,25.589 27.6238426,27.081 C28.5728426,27.785 29.7018426,28.234 30.8668426,28.413 L31.1258426,28.443 C31.4558426,28.486 31.7868426,28.508 32.1188426,28.508 C33.0208426,28.508 33.9208426,28.346 34.7638426,28.013 C34.8988426,29.232 34.4858426,30.435 34.3138426,31.649 C34.3138426,31.649 34.3138426,31.649 34.3138426,31.65 C33.0358426,32.104 31.4418426,32.434 29.5098426,32.434" id="Fill-451" fill="#13793F"></path>
            </g>
        </g>
    </g>
</svg>