<?xml version="1.0" encoding="UTF-8"?>
<svg width="226px" height="141px" viewBox="0 0 226 141" version="1.1" xmlns="http://www.w3.org/2000/svg" xmlns:xlink="http://www.w3.org/1999/xlink">
    <title>Group 7</title>
    <g id="Page-1" stroke="none" stroke-width="1" fill="none" fill-rule="evenodd">
        <g id="vectorstock_20069581" transform="translate(-104.000000, -440.000000)">
            <g id="Group-7" transform="translate(104.865000, 440.811670)">
                <path d="M173.516,62.5673303 C173.516,62.5673303 192.333,42.5483303 172.784,20.5533303 C153.235,-1.4416697 116.757,15.1943303 115.263,47.0513303 C113.77,78.9073303 160.244,98.1493303 173.516,62.5673303" id="Fill-453" fill="#DC412F"></path>
                <path d="M121.494,27.2393303 C121.494,27.2393303 118.675,0.9613303 92.337,0.0203302997 C65.998,-0.9206697 59.414,31.0623303 73.524,42.3503303 C87.634,53.6373303 122.745,46.3063303 121.494,27.2393303" id="Fill-454" fill="#DC412F"></path>
                <path d="M120.329,33.9953303 C120.329,33.9953303 118.239,14.5053303 98.704,13.8083303 C79.17,13.1103303 74.287,36.8293303 84.751,45.2023303 C95.216,53.5733303 121.258,48.1363303 120.329,33.9953303" id="Fill-455" fill="#AA262A"></path>
                <path d="M165.102,49.0363303 C165.102,49.0363303 172.837,32.7573303 157.864,22.8153303 C142.892,12.8733303 127.657,29.1133303 131.831,40.7063303 C136.006,52.3003303 159.028,60.5643303 165.102,49.0363303" id="Fill-456" fill="#AA262A"></path>
                <path d="M168.546,79.0833303 C168.546,79.0833303 207.864,78.1483303 210.746,38.0743303 C210.746,38.0743303 180.187,33.3103303 160.582,60.9183303 C160.582,60.9183303 146.527,80.3083303 168.546,79.0833303" id="Fill-457" fill="#79A841"></path>
                <path d="M34.025,97.1203303 C34.025,97.1203303 5.196,95.3903303 0.294,61.9483303 C0.294,61.9483303 34.607,57.9313303 48.443,94.8243303 C48.443,94.8243303 47.287,98.8503303 34.025,97.1203303" id="Fill-458" fill="#1E341F"></path>
                <path d="M172.408,88.9423303 C172.408,88.9423303 204.409,104.90433 224.879,84.1473303 C224.879,84.1473303 204.698,57.6223303 171.255,70.0203303 C171.255,70.0203303 156.84,77.5933303 172.408,88.9423303" id="Fill-459" fill="#1E341F"></path>
                <path d="M191.746,122.77633 C190.538,130.34833 186.415,139.58533 173.777,139.75433 C168.082,139.83833 160.648,138.06933 150.956,133.45533 C149.509,132.77133 148.01,132.02333 146.458,131.20233 C111.581,112.77033 55.882,122.24833 43.389,129.09533 C30.896,135.94133 17.362,126.86233 21.526,111.71633 C21.526,111.71633 21.776,110.30533 22.401,107.88233 C23.442,103.78633 25.545,96.8023303 29.282,88.7773303 C39.798,66.2273303 63.284,35.5353303 112.737,38.2003303 C180.929,41.8863303 196.41,93.4533303 191.746,122.77633" id="Fill-460" fill="#C06D2F"></path>
                <path d="M51.894,70.9403303 C51.894,70.9403303 52.47,47.5883303 21.046,28.8493303 C21.046,28.8493303 7.208,69.7223303 38.344,85.4673303 C38.344,85.4673303 52.718,87.4113303 51.894,70.9403303" id="Fill-461" fill="#608A3E"></path>
                <path d="M172.081,76.7673303 C172.081,76.7673303 183.185,48.5143303 158.392,34.0993303 C149.267,28.7943303 133.738,24.5823303 117.697,23.4763303 C90.152,21.5763303 61.099,28.8333303 60.37,55.4333303 C59.217,97.5253303 172.081,76.7673303 172.081,76.7673303" id="Fill-462" fill="#608A3E"></path>
                <path d="M95.578,45.0973303 C95.578,45.0973303 88.659,20.3973303 59.253,21.5033303 C29.846,22.6103303 22.927,58.7923303 46.568,80.1983303 C70.208,101.60433 114.606,77.9633303 95.578,45.0973303" id="Fill-463" fill="#CA422B"></path>
                <path d="M33.731,93.7153303 C33.731,93.7153303 4.901,91.9863303 1.42108547e-14,58.5433303 C1.42108547e-14,58.5433303 34.313,54.5273303 48.149,91.4193303 C48.149,91.4193303 46.993,95.4463303 33.731,93.7153303" id="Fill-464" fill="#79A841"></path>
                <path d="M85.899,63.8483303 C85.899,63.8483303 93.634,47.5703303 78.661,37.6283303 C63.689,27.6863303 48.454,43.9253303 52.628,55.5193303 C56.802,67.1133303 79.824,75.3763303 85.899,63.8483303" id="Fill-465" fill="#AA262A"></path>
                <path d="M172.114,85.5373303 C172.114,85.5373303 204.115,101.49933 224.585,80.7433303 C224.585,80.7433303 204.404,54.2193303 170.961,66.6163303 C170.961,66.6163303 156.546,74.1893303 172.114,85.5373303" id="Fill-466" fill="#608A3E"></path>
                <path d="M192.739,119.34533 C191.517,126.91833 187.346,136.15633 174.56,136.32433 C168.799,136.40933 161.279,134.63933 151.473,130.02633 C150.009,129.34133 148.492,128.59333 146.923,127.77233 C111.639,109.33933 55.29,118.81933 42.651,125.66533 C30.012,132.51133 16.32,123.43233 20.533,108.28733 C20.533,108.28733 20.785,106.87533 21.418,104.45333 C22.471,100.35633 24.598,93.3723303 28.38,85.3463303 C39.017,62.7963303 62.779,32.1053303 112.808,34.7693303 C181.796,38.4563303 197.458,90.0233303 192.739,119.34533" id="Fill-467" fill="#E9842D"></path>
                <path d="M174.56,136.32433 C168.799,136.40933 161.279,134.63933 151.473,130.02633 C150.009,129.34133 148.492,128.59333 146.923,127.77233 C111.639,109.33933 55.29,118.81933 42.651,125.66533 C30.012,132.51133 16.32,123.43233 20.533,108.28733 C20.533,108.28733 20.785,106.87533 21.418,104.45333 C22.471,100.35633 24.598,93.3723303 28.38,85.3463303 C42.335,71.4443303 63.147,60.5113303 93.849,62.1543303 C155.243,65.4403303 174.402,106.63233 174.56,136.32433" id="Fill-468" fill="#F1B12A"></path>
                <path d="M151.473,130.02633 C150.009,129.34133 148.492,128.59333 146.923,127.77233 C111.639,109.33933 55.29,118.81933 42.651,125.66533 C30.012,132.51133 16.32,123.43233 20.533,108.28733 C20.533,108.28733 20.785,106.87533 21.418,104.45333 C34.952,94.2153303 53.447,87.1483303 78.577,88.4853303 C118.906,90.6443303 141.014,109.16133 151.473,130.02633" id="Fill-469" fill="#ED9933"></path>
                <path d="M57.571,66.7073303 C57.571,66.7073303 57.652,61.9913303 63.119,61.9913303 C68.587,61.9913303 68.099,66.7073303 68.099,66.7073303 C68.099,66.7073303 68.274,71.2873303 62.846,71.2873303 C57.418,71.2873303 57.571,66.7073303 57.571,66.7073303" id="Fill-470" fill="#E9842D"></path>
                <path d="M149.181,109.24333 C149.181,109.24333 149.262,104.52633 154.729,104.52633 C160.197,104.52633 159.71,109.24333 159.71,109.24333 C159.71,109.24333 159.884,113.82333 154.456,113.82333 C149.028,113.82333 149.181,109.24333 149.181,109.24333" id="Fill-471" fill="#E9842D"></path>
                <path d="M80.344,79.7623303 C80.344,79.7623303 80.436,74.4353303 86.611,74.4353303 C92.786,74.4353303 92.236,79.7623303 92.236,79.7623303 C92.236,79.7623303 92.433,84.9363303 86.302,84.9363303 C80.172,84.9363303 80.344,79.7623303 80.344,79.7623303" id="Fill-472" fill="#E9842D"></path>
                <path d="M45.667,100.95333 C45.667,100.95333 45.758,95.6243303 51.933,95.6243303 C58.108,95.6243303 57.558,100.95333 57.558,100.95333 C57.558,100.95333 57.755,106.12533 51.624,106.12533 C45.494,106.12533 45.667,100.95333 45.667,100.95333" id="Fill-473" fill="#E9842D"></path>
                <path d="M106.635,94.2243303 C106.635,94.2243303 106.726,88.8973303 112.901,88.8973303 C119.076,88.8973303 118.526,94.2243303 118.526,94.2243303 C118.526,94.2243303 118.723,99.3983303 112.593,99.3983303 C106.462,99.3983303 106.635,94.2243303 106.635,94.2243303" id="Fill-474" fill="#E9842D"></path>
                <path d="M117.077,51.4433303 C117.077,51.4433303 117.169,46.1163303 123.343,46.1163303 C129.519,46.1163303 128.968,51.4433303 128.968,51.4433303 C128.968,51.4433303 129.166,56.6173303 123.035,56.6173303 C116.905,56.6173303 117.077,51.4433303 117.077,51.4433303" id="Fill-475" fill="#F1B12A"></path>
                <path d="M135.825,76.7113303 C135.825,76.7113303 135.903,71.3843303 141.2,71.3843303 C146.497,71.3843303 146.025,76.7113303 146.025,76.7113303 C146.025,76.7113303 146.194,81.8853303 140.935,81.8853303 C135.677,81.8853303 135.825,76.7113303 135.825,76.7113303" id="Fill-476" fill="#E9842D"></path>
            </g>
        </g>
    </g>
</svg>