<?xml version="1.0" encoding="UTF-8"?>
<svg width="17px" height="63px" viewBox="0 0 17 63" version="1.1" xmlns="http://www.w3.org/2000/svg" xmlns:xlink="http://www.w3.org/1999/xlink">
    <title>Fill 9712</title>
    <g id="Page-1" stroke="none" stroke-width="1" fill="none" fill-rule="evenodd">
        <path d="M11.803,14.226 C11.85,14.789 12.612,14.925 12.834,14.406 C15.283,8.64 18.201,-8.937 15.775,15.209 C15.388,19.048 12.824,19.511 10.916,20.195 C10.101,20.487 7.65,48.341 7.296,51.625 C6.041,63.269 2.482,63.873 1.337,61.801 C-1.535,56.607 4.112,38.58 7.971,19.786 C2.479,16.899 2.858,16.945 8.621,1.883 C10.674,-3.483 7.557,12.459 7.67,13.2 C8.264,17.104 11.601,4.876 13.083,2.061 C13.559,4.919 11.587,11.619 11.803,14.226" id="Fill-9712" fill="#1A1919"></path>
    </g>
</svg>