<?xml version="1.0" encoding="UTF-8"?>
<svg width="63px" height="44px" viewBox="0 0 63 44" version="1.1" xmlns="http://www.w3.org/2000/svg" xmlns:xlink="http://www.w3.org/1999/xlink">
    <title>Fill 17497</title>
    <g id="Page-1" stroke="none" stroke-width="1" fill="none" fill-rule="evenodd">
        <path d="M24.142,13.629 C23.876,13.305 23.558,12.722 23.072,12.355 C22.984,12.288 12.458,4.327 12.007,4.264 C11.607,4.207 11.029,4.141 10.817,4.357 C10.605,4.572 10.583,5.239 10.769,5.518 C11.852,7.144 11.323,6.704 22.231,14.185 C22.546,14.402 22.937,14.555 23.314,14.63 C23.812,14.73 24.2,14.341 24.142,13.629 Z M21.32,17.366 C21.019,16.976 20.672,16.364 20.176,15.915 C18.439,14.343 11.243,8.444 9.091,8.268 C8.707,8.236 8.207,8.373 7.925,8.621 C6.257,10.086 17.346,16.801 18.849,17.726 C19.337,18.026 19.942,18.176 20.514,18.296 C21.052,18.409 21.405,18.052 21.32,17.366 Z M5.56,11.903 C4.423,12 3.993,13.091 5.633,14.424 C9.032,17.188 12.591,19.735 16.381,21.953 C17.309,22.496 18.149,22.782 18.742,21.923 C19.97,20.145 10.397,14.871 6.798,12.376 C6.409,12.107 5.889,12.024 5.56,11.903 Z M26.435,18.634 C26.354,18.781 29.251,20.831 29.538,21.038 C33.404,23.812 38.184,25.989 42.366,28.249 C47.486,31.014 57.142,34.59 61.54,38.503 C62.934,39.743 62.442,44.106 58.149,43.234 C54.427,42.478 32.478,27.699 26.431,24.162 C24.618,23.102 23.726,22.751 22.247,24.249 C20.238,26.284 18.432,26.615 15.552,25.079 C10.179,22.212 2.375,16.196 0.853,14.49 C-0.441,13.041 -0.154,13.108 5.739,5.241 C9.351,0.423 9.503,0.351 11.308,1.291 C15.623,3.539 23.423,9.452 24.745,10.632 C27.018,12.659 28.759,14.28 27.467,16.746 C27.152,17.35 26.814,17.943 26.435,18.634 L26.435,18.634 Z" id="Fill-17497" fill="#000000"></path>
    </g>
</svg>