<?xml version="1.0" encoding="UTF-8"?>
<svg width="181px" height="43px" viewBox="0 0 181 43" version="1.1" xmlns="http://www.w3.org/2000/svg" xmlns:xlink="http://www.w3.org/1999/xlink">
    <title>Fill 17498</title>
    <g id="Page-1" stroke="none" stroke-width="1" fill="none" fill-rule="evenodd">
        <path d="M58.7539062,36.0585938 C59.5253906,35.9316406 59.9501953,35.3994141 60.0283203,34.4619141 C60.0869141,32.7822266 60.1162109,30.7998047 60.1162109,28.5146484 L60.1162109,28.5146484 L60.1015625,25.2773438 C60.1503906,25.2382812 60.2285156,25.1650391 60.3359375,25.0576172 L60.3359375,25.0576172 L64.2177734,25.1015625 C64.4130859,25.1015625 64.5766602,25.0380859 64.7084961,24.9111328 C64.840332,24.7841797 64.9111328,24.6181641 64.9208984,24.4130859 C64.9208984,24.2080078 64.8549805,24.0395508 64.7231445,23.9077148 C64.5913086,23.7758789 64.4277344,23.7050781 64.2324219,23.6953125 L64.2324219,23.6953125 L60.1015625,23.6513672 L60.101963,21.5819893 C60.1059685,19.4734154 60.1400146,17.8927002 60.2041016,16.8398438 L60.2041016,16.8398438 L60.21875,16.6787109 C60.21875,16.5224609 60.1943359,16.3662109 60.1455078,16.2099609 L60.1455078,16.2099609 L66.1220703,16.2685547 C66.3173828,16.2685547 66.4833984,16.2050781 66.6201172,16.078125 C66.7568359,15.9511719 66.8251953,15.7851562 66.8251953,15.5800781 C66.8251953,15.3847656 66.7592773,15.21875 66.6274414,15.0820312 C66.4956055,14.9453125 66.3320312,14.8769531 66.1367187,14.8769531 L66.1367187,14.8769531 L57.8896484,14.8769531 C56.6298828,14.8964844 56,15.5947266 56,16.9716797 C56.0097656,18.3486328 56.0341797,20.4921875 56.0732422,23.4023438 C56.1513672,27.5234375 56.1953125,31.2734375 56.2050781,34.6523438 C56.2246094,35.0527344 56.4125977,35.3847656 56.769043,35.6484375 C57.1254883,35.9121094 57.5771484,36.0488281 58.1240234,36.0585938 L58.1240234,36.0585938 L58.7539062,36.0585938 Z M74.4277344,36.0878906 L74.6035156,36.0732422 C77.4648437,35.8095703 79.3837891,33.7050781 80.3603516,29.7597656 C80.6533203,28.421875 80.7998047,27.0644531 80.7998047,25.6875 C80.7998047,24.5546875 80.7021484,23.4072266 80.5068359,22.2451172 C80.0771484,19.6572266 79.1591797,17.6210938 77.7529297,16.1367188 C77.7431641,16.1171875 77.7285156,16.1049805 77.7089844,16.1000977 C77.6894531,16.0952148 77.6796875,16.078125 77.6796875,16.0488281 C77.5820312,15.9511719 77.4990234,15.8779297 77.4306641,15.8291016 C76.6396484,15.1650391 75.7900391,14.8330078 74.8818359,14.8330078 C74.1005859,14.8330078 73.3388672,15.1064453 72.5966797,15.6533203 C70.0185547,17.7236328 68.7294922,21.3271484 68.7294922,26.4638672 C68.7294922,28.4951172 68.9541016,30.1162109 69.4033203,31.3271484 C70.0087891,32.9384766 70.6289062,34.0224609 71.2636719,34.5791016 C72.2988281,35.5849609 73.3535156,36.0878906 74.4277344,36.0878906 L74.4277344,36.0878906 Z M75.2041016,34.5205078 C74.9404297,34.5205078 74.6914062,34.4179688 74.4570312,34.2128906 C73.2753906,33.0507812 72.6845703,30.4287109 72.6845703,26.3466797 C72.6845703,23.8271484 73.0068359,21.5908203 73.6513672,19.6376953 C74.1982422,17.9775391 74.8232422,16.9765625 75.5263672,16.6347656 C75.5947266,16.5957031 75.6875,16.5761719 75.8046875,16.5761719 C76,16.5761719 76.2294922,16.6787109 76.4931641,16.8837891 C78.4267578,18.6318359 79.3935547,21.5419922 79.3935547,25.6142578 C79.3935547,28.2314453 78.890625,30.4775391 77.8847656,32.3525391 C77.328125,33.3876953 76.4980469,34.1054688 75.3945312,34.5058594 L75.3945312,34.5058594 L75.2041016,34.5205078 Z M88.4023437,36.0878906 L88.578125,36.0732422 C91.4394531,35.8095703 93.3583984,33.7050781 94.3349609,29.7597656 C94.6279297,28.421875 94.7744141,27.0644531 94.7744141,25.6875 C94.7744141,24.5546875 94.6767578,23.4072266 94.4814453,22.2451172 C94.0517578,19.6572266 93.1337891,17.6210938 91.7275391,16.1367188 C91.7177734,16.1171875 91.703125,16.1049805 91.6835937,16.1000977 C91.6640625,16.0952148 91.6542969,16.078125 91.6542969,16.0488281 C91.5566406,15.9511719 91.4736328,15.8779297 91.4052734,15.8291016 C90.6142578,15.1650391 89.7646484,14.8330078 88.8564453,14.8330078 C88.0751953,14.8330078 87.3134766,15.1064453 86.5712891,15.6533203 C83.9931641,17.7236328 82.7041016,21.3271484 82.7041016,26.4638672 C82.7041016,28.4951172 82.9287109,30.1162109 83.3779297,31.3271484 C83.9833984,32.9384766 84.6035156,34.0224609 85.2382812,34.5791016 C86.2734375,35.5849609 87.328125,36.0878906 88.4023437,36.0878906 L88.4023437,36.0878906 Z M89.1787109,34.5205078 C88.9150391,34.5205078 88.6660156,34.4179688 88.4316406,34.2128906 C87.25,33.0507812 86.6591797,30.4287109 86.6591797,26.3466797 C86.6591797,23.8271484 86.9814453,21.5908203 87.6259766,19.6376953 C88.1728516,17.9775391 88.7978516,16.9765625 89.5009766,16.6347656 C89.5693359,16.5957031 89.6621094,16.5761719 89.7792969,16.5761719 C89.9746094,16.5761719 90.2041016,16.6787109 90.4677734,16.8837891 C92.4013672,18.6318359 93.3681641,21.5419922 93.3681641,25.6142578 C93.3681641,28.2314453 92.8652344,30.4775391 91.859375,32.3525391 C91.3027344,33.3876953 90.4726562,34.1054688 89.3691406,34.5058594 L89.3691406,34.5058594 L89.1787109,34.5205078 Z M100.326172,36.2050781 C100.902344,36.2050781 101.549316,36.1293945 102.26709,35.9780273 C102.984863,35.8266602 103.700195,35.5336914 104.413086,35.0991211 C105.125977,34.6645508 105.785156,34.0419922 106.390625,33.2314453 C107.425781,31.7568359 108.128906,30.1455078 108.5,28.3974609 C108.871094,26.6494141 109.056641,25.1162109 109.056641,23.7978516 C109.056641,20.5849609 108.319336,18.1289062 106.844727,16.4296875 C105.916992,15.4824219 105.199219,14.9794922 104.691406,14.9208984 C104.183594,14.8623047 103.817383,14.8330078 103.592773,14.8330078 C102.557617,14.8330078 101.629883,15.3066406 100.80957,16.2539062 C100.692383,15.6289062 100.326172,15.1894531 99.7109375,14.9355469 C99.4570312,14.8183594 99.1494141,14.7597656 98.7880859,14.7597656 L98.7880859,14.7597656 L98.5244141,14.7744141 C97.9873047,14.7744141 97.5576172,14.9306641 97.2353516,15.2431641 C96.8642578,15.5947266 96.6787109,16.1318359 96.6787109,16.8544922 C96.6787109,18.0751953 96.703125,20.1503906 96.7519531,23.0800781 L96.7519531,23.0800781 L96.7666016,23.2998047 C96.8447266,27.7041016 96.8837891,31.4492188 96.8837891,34.5351562 C96.8837891,34.8769531 97.0229492,35.1748047 97.3012695,35.4287109 C97.5795898,35.6826172 97.9384766,35.84375 98.3779297,35.9121094 L98.3779297,35.9121094 L98.3632812,35.9853516 C98.3828125,35.9951172 98.5708008,36.0341797 98.9272461,36.1025391 C99.2836914,36.1708984 99.75,36.2050781 100.326172,36.2050781 Z M100.589844,34.8134766 C100.690552,34.4381104 100.744053,32.4362526 100.750347,28.8079033 L100.750977,28.0605469 L100.736328,25.1748047 L100.736328,20.296875 C100.755859,19.4082031 100.975586,18.5952148 101.395508,17.8579102 C101.81543,17.1206055 102.342773,16.6201172 102.977539,16.3564453 C103.241211,16.2685547 103.490234,16.2246094 103.724609,16.2246094 C104.027344,16.2246094 104.310547,16.2929688 104.574219,16.4296875 C105.0625,16.6835938 105.477539,17.0009766 105.819336,17.3818359 C107.030273,18.8759766 107.635742,20.9853516 107.635742,23.7099609 C107.635742,27.1083984 106.844727,30.0039062 105.262695,32.3964844 C104.041992,34.0078125 102.484375,34.8134766 100.589844,34.8134766 Z M116.893555,36.1757812 C117.381836,36.1757812 117.860352,36.0830078 118.329102,35.8974609 C120.233398,35.0673828 121.463867,33.4511719 122.020508,31.0488281 L122.020508,31.0488281 L122.035156,30.9316406 C122.035156,30.7753906 121.986328,30.6289062 121.888672,30.4921875 C121.751953,30.3066406 121.571289,30.2138672 121.34668,30.2138672 C121.180664,30.2138672 121.031738,30.2626953 120.899902,30.3603516 C120.768066,30.4580078 120.682617,30.5996094 120.643555,30.7851562 C120.399414,31.9082031 119.920898,32.8505859 119.208008,33.6123047 C118.602539,34.0908203 118.17041,34.3520508 117.911621,34.3959961 C117.652832,34.4399414 117.469727,34.4619141 117.362305,34.4619141 C117.157227,34.4619141 116.986328,34.4228516 116.849609,34.3447266 C116.634766,34.2177734 116.488281,34.0957031 116.410156,33.9785156 C115.599609,32.9335938 115.157715,31.6982422 115.084473,30.2724609 C115.01123,28.8466797 114.974609,27.8798828 114.974609,27.3720703 C114.974609,25.5263672 115.160156,23.6806641 115.53125,21.8349609 C115.990234,19.4912109 116.698242,17.8164062 117.655273,16.8105469 C117.870117,16.5859375 118.055664,16.4638672 118.211914,16.4443359 C118.368164,16.4248047 118.460937,16.4150391 118.490234,16.4150391 C118.763672,16.4150391 119.095703,16.5810547 119.486328,16.9130859 C119.701172,17.2451172 119.830566,17.5893555 119.874512,17.9458008 C119.918457,18.3022461 119.94043,18.5976562 119.94043,18.8320312 C119.94043,18.9980469 119.930664,19.1542969 119.911133,19.3007812 L119.911133,19.3007812 L119.911133,19.3447266 C119.911133,19.7353516 120.09668,19.9697266 120.467773,20.0478516 L120.467773,20.0478516 L120.614258,20.0625 C120.770508,20.0625 120.907227,20.0136719 121.024414,19.9160156 C121.19043,19.7988281 121.288086,19.6328125 121.317383,19.4179688 C121.327148,19.2519531 121.332031,19.0761719 121.332031,18.890625 C121.332031,18.5585938 121.3125,18.2021484 121.273437,17.8212891 C121.195312,17.2060547 120.980469,16.6347656 120.628906,16.1074219 C120.628906,16.0976562 120.624023,16.0878906 120.614258,16.078125 L120.614258,16.078125 L120.599609,16.0634766 L120.614258,16.0488281 L120.526367,15.9609375 C119.94043,15.2578125 119.095703,14.90625 117.992187,14.90625 C115.765625,14.90625 113.963867,16.3125 112.586914,19.125 C111.844727,20.7167969 111.388184,22.2182617 111.217285,23.6293945 C111.046387,25.0405273 110.960937,26.1367188 110.960937,26.9179688 C110.960937,30.4433594 111.751953,32.9970703 113.333984,34.5791016 C114.496094,35.6435547 115.682617,36.1757812 116.893555,36.1757812 Z M129.637695,36.0878906 L129.813477,36.0732422 C132.674805,35.8095703 134.59375,33.7050781 135.570312,29.7597656 C135.863281,28.421875 136.009766,27.0644531 136.009766,25.6875 C136.009766,24.5546875 135.912109,23.4072266 135.716797,22.2451172 C135.287109,19.6572266 134.369141,17.6210938 132.962891,16.1367188 C132.953125,16.1171875 132.938477,16.1049805 132.918945,16.1000977 C132.899414,16.0952148 132.889648,16.078125 132.889648,16.0488281 C132.791992,15.9511719 132.708984,15.8779297 132.640625,15.8291016 C131.849609,15.1650391 131,14.8330078 130.091797,14.8330078 C129.310547,14.8330078 128.548828,15.1064453 127.806641,15.6533203 C125.228516,17.7236328 123.939453,21.3271484 123.939453,26.4638672 C123.939453,28.4951172 124.164062,30.1162109 124.613281,31.3271484 C125.21875,32.9384766 125.838867,34.0224609 126.473633,34.5791016 C127.508789,35.5849609 128.563477,36.0878906 129.637695,36.0878906 L129.637695,36.0878906 Z M130.414062,34.5205078 C130.150391,34.5205078 129.901367,34.4179688 129.666992,34.2128906 C128.485352,33.0507812 127.894531,30.4287109 127.894531,26.3466797 C127.894531,23.8271484 128.216797,21.5908203 128.861328,19.6376953 C129.408203,17.9775391 130.033203,16.9765625 130.736328,16.6347656 C130.804687,16.5957031 130.897461,16.5761719 131.014648,16.5761719 C131.209961,16.5761719 131.439453,16.6787109 131.703125,16.8837891 C133.636719,18.6318359 134.603516,21.5419922 134.603516,25.6142578 C134.603516,28.2314453 134.100586,30.4775391 133.094727,32.3525391 C132.538086,33.3876953 131.708008,34.1054688 130.604492,34.5058594 L130.604492,34.5058594 L130.414062,34.5205078 Z M144.564453,36.4248047 C144.847656,36.4248047 145.160156,36.3710938 145.501953,36.2636719 C145.941406,36.1464844 146.356445,35.9609375 146.74707,35.7070312 C148.104492,34.7011719 149.063965,33.0629883 149.625488,30.7924805 C150.187012,28.5219727 150.499512,26.3759766 150.562988,24.3544922 C150.626465,22.3330078 150.658203,20.6923828 150.658203,19.4326172 C150.658203,18.4462891 150.643555,17.5234375 150.614258,16.6640625 L150.614258,16.6640625 L150.614258,16.2685547 C150.604492,16.0732422 150.533691,15.9121094 150.401855,15.7851562 C150.27002,15.6582031 150.101562,15.5898438 149.896484,15.5800781 C149.701172,15.5898438 149.537598,15.6630859 149.405762,15.7998047 C149.273926,15.9365234 149.208008,16.1025391 149.208008,16.2978516 L149.208008,16.2978516 L149.208008,16.6787109 C149.237305,17.4990234 149.251953,18.3876953 149.251953,19.3447266 C149.251953,20.4677734 149.232422,21.6933594 149.193359,23.0214844 C149.046875,29.1835938 147.972656,33.0214844 145.970703,34.5351562 C145.501953,34.8476562 144.959961,35.0039062 144.344727,35.0039062 C144.188477,34.9550781 144.066406,34.8964844 143.978516,34.828125 C143.246094,34.1933594 142.774902,32.9921875 142.564941,31.2246094 C142.35498,29.4570312 142.25,27.6601562 142.25,25.8339844 C142.25,23.7539062 142.328125,21.4199219 142.484375,18.8320312 C142.552734,17.5136719 142.586914,16.7128906 142.586914,16.4296875 C142.586914,16.0292969 142.408691,15.6679688 142.052246,15.3457031 C141.695801,15.0234375 141.341797,14.8623047 140.990234,14.8623047 L140.990234,14.8623047 L140.228516,14.8037109 C139.554687,14.8037109 139.046875,14.9355469 138.705078,15.1992188 C138.470703,15.4042969 138.348633,15.6679688 138.338867,15.9902344 C138.329102,16.4980469 138.285156,17.2646484 138.207031,18.2900391 C138.011719,20.5166016 137.914062,22.796875 137.914062,25.1308594 C137.914062,30.9414062 139.208008,34.4960938 141.795898,35.7949219 C142.772461,36.2148438 143.695312,36.4248047 144.564453,36.4248047 Z M155.272461,36.1171875 C156.03418,35.9902344 156.454102,35.453125 156.532227,34.5058594 C156.571289,33.5585938 156.595703,32.4208984 156.605469,31.0927734 C157.269531,31.9912109 158.102051,32.7797852 159.103027,33.4584961 C160.104004,34.137207 161.253906,34.4765625 162.552734,34.4765625 C163.060547,34.4765625 163.592773,34.4130859 164.149414,34.2861328 C164.491211,34.1787109 164.662109,33.9492188 164.662109,33.5976562 C164.662109,33.3144531 164.554687,33.1142578 164.339844,32.9970703 C164.203125,32.9384766 164.081055,32.9091797 163.973633,32.9091797 L163.973633,32.9091797 L163.797852,32.9238281 C163.348633,33.0117188 162.918945,33.0556641 162.508789,33.0556641 C161.327148,33.0556641 160.321289,32.7089844 159.491211,32.015625 C158.368164,31.0976562 157.567383,30.1845703 157.088867,29.2763672 C158.973633,29.2763672 160.506836,28.5195312 161.688477,27.0058594 C162.801758,25.4433594 163.402344,24.0859375 163.490234,22.9335938 C163.578125,21.78125 163.62207,21.0927734 163.62207,20.8681641 C163.62207,19.1103516 163.070312,17.5625 161.966797,16.2246094 C161.068359,15.2675781 160.101562,14.7890625 159.066406,14.7890625 C158.080078,14.7890625 157.235352,15.1308594 156.532227,15.8144531 C156.444336,15.6386719 156.32959,15.4750977 156.187988,15.3237305 C156.046387,15.1723633 155.846191,15.0405273 155.587402,14.9282227 C155.328613,14.815918 155.023437,14.7597656 154.671875,14.7597656 L154.671875,14.7597656 L154.378906,14.7744141 C153.851562,14.7744141 153.431641,14.9306641 153.119141,15.2431641 C152.748047,15.5947266 152.5625,16.1367188 152.5625,16.8691406 C152.5625,18.1386719 152.586914,20.3115234 152.635742,23.3876953 C152.713867,27.8212891 152.75293,31.5908203 152.75293,34.6962891 C152.75293,35.0869141 152.938477,35.4213867 153.30957,35.699707 C153.680664,35.9780273 154.129883,36.1171875 154.657227,36.1171875 L154.657227,36.1171875 L155.272461,36.1171875 Z M156.620117,27.5039062 L156.605469,22.3037109 C156.605469,20.9169922 156.615234,19.671875 156.634766,18.5683594 C156.644531,18.109375 156.795898,17.6772461 157.088867,17.2719727 C157.381836,16.8666992 157.75293,16.5615234 158.202148,16.3564453 L158.202148,16.3564453 L158.290039,16.3564453 C158.475586,16.3564453 158.641602,16.4101562 158.788086,16.5175781 C159.295898,16.9277344 159.652344,17.7919922 159.857422,19.1103516 C159.916016,19.5791016 159.945312,20.0478516 159.945312,20.5166016 C159.945312,21.7861328 159.71582,23.0703125 159.256836,24.3691406 C158.680664,25.9023438 157.801758,26.9472656 156.620117,27.5039062 L156.620117,27.5039062 Z M174.271484,36.0585938 C175.033203,35.9316406 175.453125,35.3994141 175.53125,34.4619141 C175.599609,32.6455078 175.633789,30.4677734 175.633789,27.9287109 L175.633789,27.9287109 L175.619141,21.4980469 L175.633789,17.7773438 C175.624023,16.7226562 175.599609,16.1269531 175.560547,15.9902344 C177.044922,16.0585938 178.485352,16.2978516 179.881836,16.7080078 C179.959961,16.7275391 180.033203,16.7373047 180.101562,16.7373047 C180.404297,16.7373047 180.614258,16.5859375 180.731445,16.2832031 C180.760742,16.1953125 180.775391,16.1074219 180.775391,16.0195312 C180.775391,15.921875 180.750977,15.8242188 180.702148,15.7265625 C180.614258,15.5507812 180.472656,15.4287109 180.277344,15.3603516 C178.138672,14.7841797 176.03418,14.4960938 173.963867,14.4960938 C173.504883,14.4960938 173.045898,14.5107422 172.586914,14.5400391 C168.905273,14.7646484 166.942383,15.0673828 166.698242,15.4482422 C166.610352,15.5849609 166.566406,15.7216797 166.566406,15.8583984 L166.566406,15.8583984 L166.581055,16.0341797 C166.678711,16.3955078 166.90332,16.5761719 167.254883,16.5761719 L167.254883,16.5761719 L167.386719,16.5615234 C168.285156,16.3662109 169.706055,16.1855469 171.649414,16.0195312 C171.59082,16.2539062 171.561523,17.6845703 171.561523,20.3115234 C171.561523,21.4150391 171.571289,22.4453125 171.59082,23.4023438 C171.65918,27.5234375 171.698242,31.2734375 171.708008,34.6523438 C171.708008,35.0429688 171.893555,35.3725586 172.264648,35.6411133 C172.635742,35.909668 173.089844,36.0488281 173.626953,36.0585938 L173.626953,36.0585938 L174.271484,36.0585938 Z" id="FOODCOURT" fill="#000000" fill-rule="nonzero"></path>
        <path d="M32.2145689,4.8799556 C39.2194526,-0.605283232 46.3162342,3.34898995 47.2119057,10.3611989 C47.6454241,13.7560936 46.7064673,16.8659716 40.5586313,25.3552061 C34.7970329,33.3110333 38.6767223,40.0934975 36.0682871,40.8200236 C24.8321046,43.9485476 16.407465,42.2124765 9.13088317,40.2306784 C6.92000628,39.6280147 8.39703187,39.9776262 7.51201519,30.5987135 C7.19370219,27.2291241 4.75041685,23.8542072 2.00013928,17.7323423 C-3.02893972,6.53345178 7.54997301,-1.54756962 14.9044683,5.30614874 C20.0587415,-2.34534989 29.0460893,0.494827798 32.2145689,4.8799556 L136.009766,78" id="Fill-17498" fill="#DD4A37"></path>
    </g>
</svg>