<?xml version="1.0" encoding="UTF-8"?>
<svg width="130px" height="112px" viewBox="0 0 130 112" version="1.1" xmlns="http://www.w3.org/2000/svg" xmlns:xlink="http://www.w3.org/1999/xlink">
    <title>logo2</title>
    <g id="Page-1" stroke="none" stroke-width="1" fill="none" fill-rule="evenodd">
        <g id="logo2" transform="translate(-0.000000, 0.000000)" fill-rule="nonzero">
            <path d="M107.522264,88.074229 C95.5932642,95.230229 91.7572642,98.229229 84.7042642,99.894229 C84.6522642,99.907229 84.6012642,99.926229 84.5502642,99.938229 C89.0982642,97.981229 93.5892642,95.566229 97.6302642,92.635229 C101.315264,90.319229 104.542264,87.373229 107.121264,83.520229 C108.734264,81.388229 110.108264,79.096229 111.167264,76.632229 C111.247264,76.444229 111.248264,76.267229 111.203264,76.112229 C111.251264,76.007229 111.291264,75.899229 111.338264,75.794229 C111.648264,75.347229 111.958264,74.902229 112.268264,74.455229 C112.515264,74.501229 112.772264,74.419229 112.913264,74.128229 C113.010264,73.931229 113.105264,73.733229 113.201264,73.536229 C113.056264,74.097229 112.911264,74.658229 112.765264,75.218229 C112.581264,75.932229 113.535264,76.430229 113.982264,75.905229 C112.357264,80.262229 110.386264,84.452229 107.522264,88.074229 Z M83.0182642,107.438229 C78.7082642,109.671229 74.3872642,110.919229 69.5062642,110.924229 C69.0092642,110.924229 68.5142642,110.911229 68.0182642,110.896229 C75.3672642,109.804229 82.2772642,107.264229 88.8612642,103.823229 C89.4912642,103.683229 90.1172642,103.536229 90.7292642,103.364229 C88.1742642,104.756229 85.5942642,106.103229 83.0182642,107.438229 Z M60.7712642,110.213229 C59.7022642,110.051229 58.6362642,109.866229 57.5722642,109.664229 C59.6872642,109.398229 61.4782642,108.976229 62.7292642,108.463229 C66.8892642,108.243229 71.0662642,107.552229 75.1592642,106.541229 C77.8312642,106.678229 81.2682642,105.408229 85.6692642,104.482229 C77.8212642,107.889229 69.2332642,110.003229 60.7712642,110.213229 Z M53.8982642,109.947229 C54.6672642,109.924229 55.4102642,109.877229 56.1322642,109.815229 C56.5572642,109.940229 56.9732642,110.078229 57.4012642,110.193229 C56.2282642,110.150229 55.0592642,110.068229 53.8982642,109.947229 Z M46.1422642,103.076229 C45.7302642,102.966229 45.3412642,102.837229 44.9402642,102.717229 C45.3502642,102.727229 45.7562642,102.748229 46.1682642,102.755229 C48.2842642,103.392229 50.4202642,103.914229 52.5422642,104.314229 C53.5742642,104.509229 54.6182642,104.680229 55.6712642,104.829229 C54.7472642,104.825229 53.8262642,104.791229 52.9052642,104.746229 C50.5672642,104.183229 48.2072642,103.624229 46.1422642,103.076229 Z M37.0872642,95.912229 C35.3952642,94.697229 33.7702642,93.356229 32.2002642,91.949229 C37.0812642,95.481229 42.5892642,97.852229 48.4612642,99.405229 C52.3762642,100.440229 56.3492642,100.820229 60.3472642,100.800229 C57.6582642,101.029229 54.9612642,101.167229 52.2752642,101.226229 C46.9392642,100.797229 41.7982642,99.299229 37.0872642,95.912229 Z M40.3482642,101.029229 C38.0222642,100.000229 35.9072642,98.796229 33.9942642,97.455229 C36.3402642,98.851229 38.8152642,100.066229 41.3712642,101.083229 C41.0282642,101.067229 40.6892642,101.046229 40.3482642,101.029229 Z M24.1022642,87.599229 C23.3032642,86.510229 22.5512642,85.427229 21.8842642,84.331229 C21.1032642,83.051229 20.4592642,81.689229 19.9122642,80.284229 C23.1972642,85.745229 27.9542642,90.328229 32.7592642,94.464229 C34.3292642,95.814229 35.9662642,97.089229 37.6922642,98.219229 C36.2272642,97.504229 34.7912642,96.739229 33.4102642,95.883229 C29.8362642,93.666229 26.6412642,90.868229 24.1022642,87.599229 Z M20.0762642,77.355229 C21.6872642,78.670229 22.5352642,81.083229 24.3442642,83.939229 C22.5162642,81.775229 20.8872642,79.465229 19.6092642,76.946229 C19.7642642,77.084229 19.9142642,77.224229 20.0762642,77.355229 Z M26.2142642,29.581229 C26.1852642,29.612229 26.1512642,29.634229 26.1282642,29.671229 C25.1542642,31.201229 24.2442642,32.763229 23.3922642,34.353229 C23.3642642,34.135229 23.2312642,33.954229 23.0592642,33.824229 C23.9882642,31.868229 25.0532642,29.936229 26.2322642,28.086229 C26.1572642,28.364229 26.0722642,28.636229 26.0092642,28.919229 C25.9542642,29.166229 26.0512642,29.408229 26.2142642,29.581229 Z M15.9152642,32.213229 C14.9752642,34.407229 14.2022642,36.513229 13.5722642,38.579229 C14.3802642,31.484229 17.2652642,24.611229 21.9242642,19.187229 C25.7412642,14.744229 30.6062642,11.268229 35.9442642,8.88622905 C36.7662642,8.51922905 37.5922642,8.19622905 38.4212642,7.89522905 C35.2302642,9.63122905 32.1722642,11.730229 29.2902642,14.265229 C23.5362642,19.328229 18.9342642,25.162229 15.9152642,32.213229 Z M36.6322642,21.022229 C34.5522642,22.784229 32.6272642,24.823229 30.6052642,27.208229 C29.6272642,28.362229 28.7342642,29.562229 27.8842642,30.785229 C27.9282642,30.709229 27.9662642,30.630229 28.0112642,30.555229 C30.2802642,26.757229 33.2482642,23.647229 36.6322642,21.022229 Z M30.6812642,24.093229 C29.8892642,24.826229 29.1132642,25.574229 28.3542642,26.339229 C29.0032642,24.819229 29.8442642,23.429229 30.8152642,22.141229 C30.9272642,22.020229 31.0362642,21.896229 31.1492642,21.776229 C33.4512642,19.987229 36.0252642,18.547229 38.7262642,17.368229 C35.7712642,19.278229 33.0312642,21.496229 30.6812642,24.093229 Z M45.6752642,12.009229 C47.1322642,11.475229 48.6172642,10.987229 50.1132642,10.521229 C50.0852642,10.657229 50.0782642,10.832229 50.0652642,11.121229 C50.0602642,11.217229 50.1042642,11.307229 50.1642642,11.386229 C48.0992642,12.249229 46.1002642,13.269229 44.1092642,14.315229 C43.8952642,14.428229 43.6812642,14.539229 43.4662642,14.650229 C40.0072642,15.824229 36.6862642,17.298229 33.6912642,19.258229 C34.4412642,18.570229 35.2082642,17.899229 35.9932642,17.248229 C36.5082642,16.821229 37.0222642,16.415229 37.5362642,16.022229 C40.0712642,14.371229 42.8532642,13.042229 45.6752642,12.009229 Z M78.3672642,1.81922905 C92.8922642,4.78922905 107.489264,13.663229 112.994264,27.686229 C111.556264,25.432229 109.915264,23.307229 108.123264,21.288229 C107.871264,21.005229 107.595264,20.742229 107.316264,20.480229 C103.416264,14.760229 97.3972642,10.174229 91.3972642,7.09322905 C87.1222642,4.89722905 82.5872642,3.43522905 77.9242642,2.70322905 C76.6782642,2.35522905 75.3602642,2.08422905 74.0682642,1.94222905 C64.3792642,0.874229049 54.9692642,1.52422905 46.3102642,4.45322905 C45.6782642,4.54922905 45.0442642,4.64922905 44.4142642,4.77822905 C55.1902642,0.807229049 66.7732642,-0.552770951 78.3672642,1.81922905 Z M103.857264,85.240229 C103.178264,86.056229 102.461264,86.836229 101.705264,87.579229 C100.799264,88.438229 99.8492642,89.259229 98.8652642,90.049229 C97.0912642,91.404229 95.1322642,92.590229 92.9542642,93.577229 C91.7132642,94.139229 90.4492642,94.643229 89.1752642,95.120229 C94.5262642,92.614229 99.4882642,89.373229 103.857264,85.240229 Z M102.684264,84.438229 C99.4912642,87.422229 95.9772642,89.922229 92.2222642,91.998229 C95.8492642,89.817229 99.3252642,87.278229 102.684264,84.438229 Z M103.668264,26.349229 C104.662264,27.983229 105.440264,29.728229 106.206264,31.480229 C100.820264,23.906229 96.3262642,21.008229 90.0052642,17.851229 C89.6802642,17.688229 89.3722642,17.540229 89.0662642,17.393229 C94.2892642,19.712229 99.2002642,22.725229 103.668264,26.349229 Z M82.5132642,5.39922905 C85.0032642,6.26122905 87.4302642,7.30322905 89.7482642,8.55822905 C89.8432642,8.61022905 89.9292642,8.67122905 90.0232642,8.72322905 C89.0282642,8.29122905 88.0082642,7.89222905 86.9592642,7.53622905 C84.3432642,6.64522905 81.6512642,6.04722905 78.9272642,5.66622905 C80.1002642,5.58722905 81.2952642,5.49922905 82.5132642,5.39922905 Z M102.051264,17.113229 C101.298264,16.309229 100.508264,15.537229 99.6752642,14.805229 C99.6612642,14.774229 99.6452642,14.743229 99.6202642,14.716229 C95.1972642,9.99722905 88.8572642,6.64422905 82.5612642,4.55922905 C82.4832642,4.51522905 82.4132642,4.47122905 82.3312642,4.42622905 C85.4192642,5.34822905 88.4192642,6.56022905 91.2582642,8.07622905 C95.8792642,10.543229 99.6452642,13.676229 103.064264,17.277229 C102.766264,17.149229 102.432264,17.080229 102.051264,17.113229 Z M88.6172642,10.809229 C88.5562642,10.699229 88.4662642,10.599229 88.3182642,10.529229 C85.5552642,9.23422905 82.6902642,8.27522905 79.7472642,7.61522905 C85.9102642,8.63622905 91.8322642,10.915229 96.8982642,14.671229 C97.9622642,15.459229 98.9502642,16.307229 99.8792642,17.199229 C96.4522642,14.567229 92.6382642,12.431229 88.6172642,10.809229 Z M104.217264,23.069229 C104.511264,23.708229 104.855264,24.499229 105.272264,25.499229 C105.157264,25.307229 105.057264,25.108229 104.935264,24.920229 C103.002264,21.943229 100.310264,19.595229 97.3432642,17.685229 C95.4212642,16.449229 93.3632642,15.286229 91.2302642,14.216229 C91.1082642,14.053229 90.9852642,13.892229 90.8472642,13.750229 C90.5842642,13.479229 90.3182642,13.244229 90.0542642,12.997229 C95.3742642,15.417229 100.236264,18.807229 104.217264,23.069229 Z M55.5112642,12.728229 C55.3552642,12.761229 55.1912642,12.786229 55.0372642,12.820229 C50.5632642,13.785229 47.0042642,14.931229 43.9742642,16.340229 C44.6742642,15.972229 45.3762642,15.605229 46.0912642,15.262229 C46.9872642,14.832229 47.8962642,14.424229 48.8152642,14.037229 C51.0302642,13.484229 53.2652642,13.054229 55.5112642,12.728229 Z M69.6422642,11.328229 C64.7742642,10.892229 59.9262642,11.085229 55.1422642,11.807229 C60.0102642,10.416229 65.0682642,9.71522905 70.1282642,9.95522905 C72.0502642,10.047229 73.9562642,10.303229 75.8422642,10.682229 C76.1262642,10.908229 76.6202642,10.939229 76.9732642,10.977229 C77.2282642,11.005229 77.4922642,11.048229 77.7562642,11.107229 C78.1902642,11.205229 78.6232642,11.321229 79.0512642,11.449229 C83.2282642,12.701229 88.0282642,16.292229 91.6322642,16.540229 C92.2202642,16.842229 92.8052642,17.146229 93.3832642,17.457229 C95.9232642,18.821229 98.3942642,20.418229 100.480264,22.410229 C91.4112642,16.125229 80.5912642,12.307229 69.6422642,11.328229 Z M74.3092642,12.922229 C76.8772642,13.358229 79.4022642,13.959229 81.8752642,14.710229 C79.7962642,14.168229 77.5502642,13.724229 74.3092642,12.922229 Z M72.3472642,105.607229 C68.7052642,106.379229 65.0152642,106.875229 61.3492642,106.981229 C60.4452642,106.689229 59.4222642,106.395229 58.3182642,106.099229 C60.5662642,106.024229 62.8152642,105.838229 65.0542642,105.529229 C67.3732642,105.556229 69.7092642,105.469229 72.0422642,105.279229 C72.1132642,105.392229 72.2132642,105.502229 72.3472642,105.607229 Z M65.7722642,104.085229 C61.3492642,104.139229 56.8952642,103.781229 52.5432642,102.993229 C54.1132642,103.085229 55.6872642,103.092229 57.2522642,103.023229 C66.9602642,102.597229 77.1142642,100.651229 86.3552642,97.695229 C82.2972642,99.602229 78.0982642,101.123229 74.1092642,102.267229 C71.3692642,103.052229 68.5812642,103.656229 65.7722642,104.085229 Z M117.394264,69.126229 C117.522264,68.622229 117.661264,68.119229 117.824264,67.614229 C117.989264,67.102229 117.557264,66.717229 117.099264,66.663229 C116.806264,66.628229 116.551264,66.671229 116.315264,66.752229 C116.233264,66.435229 115.929264,66.208229 115.620264,66.189229 C115.711264,65.940229 115.797264,65.690229 115.885264,65.440229 C116.100264,65.471229 116.327264,65.356229 116.308264,65.073229 C116.295264,64.854229 116.295264,64.634229 116.283264,64.414229 C116.881264,62.880229 117.407264,61.454229 117.911264,60.201229 C119.517264,56.201229 120.653264,45.455229 116.715264,35.044229 C116.298264,33.942229 115.823264,32.874229 115.312264,31.828229 C113.682264,25.065229 110.156264,19.076229 105.009264,14.211229 C92.1532642,2.06122905 72.8982642,-2.06777095 55.7912642,0.945229049 C49.9742642,1.96922905 44.3102642,3.78322905 38.9832642,6.30822905 C31.8072642,8.86722905 25.2062642,13.407229 20.6472642,18.996229 C15.1562642,25.728229 12.2182642,34.285229 12.4952642,42.800229 C10.7602642,51.276229 11.7422642,59.555229 15.5842642,70.863229 C15.9632642,71.977229 16.4742642,73.027229 17.0992642,74.005229 C17.0792642,74.090229 17.0742642,74.184229 17.0902642,74.288229 C17.2072642,75.039229 17.3602642,75.770229 17.5282642,76.492229 C15.1852642,71.836229 13.6852642,68.491229 12.0552642,68.510229 C12.0552642,75.014229 14.8292642,84.526229 20.4252642,92.763229 C22.2272642,95.415229 24.5762642,97.513229 26.8752642,99.699229 C30.5552642,103.196229 34.9462642,105.511229 39.4922642,107.532229 C41.1612642,108.274229 42.9832642,108.817229 44.8592642,109.204229 C49.9152642,110.793229 55.2572642,111.546229 60.5982642,111.490229 C61.4842642,111.481229 62.3632642,111.446229 63.2382642,111.394229 C69.5822642,112.282229 76.1122642,111.803229 81.8952642,109.021229 C86.3322642,106.888229 90.6152642,104.367229 94.9252642,101.990229 C95.4242642,101.715229 95.9202642,101.427229 96.4292642,101.158229 C97.8382642,100.414229 99.2112642,99.619229 100.538264,98.732229 C102.666264,97.311229 104.750264,95.830229 106.495264,93.986229 C106.664264,93.808229 106.577264,93.600229 106.416264,93.517229 C106.519264,93.405229 106.630264,93.303229 106.732264,93.188229 C107.728264,92.068229 108.446264,90.695229 109.183264,89.347229 C112.589264,85.351229 114.887264,80.541229 115.893264,75.319229 C116.155264,75.343229 116.416264,75.253229 116.551264,74.969229 C117.321264,73.336229 117.993264,71.699229 118.503264,69.964229 C118.702264,69.286229 117.904264,68.826229 117.394264,69.126229 L117.394264,69.126229 Z" id="Fill-3122" fill="#DD4A37"></path>
            <path d="M129.496264,12.946229 C129.457264,11.636229 127.613264,11.402229 127.245264,12.659229 C124.699264,21.343229 117.167264,49.128229 111.483264,71.279229 C112.607264,71.432229 113.713264,71.800229 114.831264,72.022229 C116.253264,72.304229 117.691264,72.501229 119.133264,72.679229 C120.869264,71.713229 124.974264,74.001229 125.523264,69.145229 C125.830264,66.435229 129.679264,19.041229 129.496264,12.946229" id="Fill-3123" fill="#1A1919"></path>
            <path d="M112.128264,84.378229 C110.765264,84.288229 110.768264,82.465229 111.346264,81.598229 C111.651264,81.138229 112.218264,80.858229 112.769264,81.022229 C113.104264,81.121229 113.300264,81.384229 113.411264,81.688229 C113.998264,82.571229 113.360264,84.459229 112.128264,84.378229 Z M111.269264,94.175229 C111.244264,94.374229 111.172264,94.636229 111.064264,94.906229 C110.970264,95.231229 110.810264,95.546229 110.578264,95.769229 C110.184264,96.258229 109.661264,96.497229 109.099264,95.908229 C109.039264,95.844229 109.011264,95.765229 108.967264,95.693229 C108.375264,94.988229 108.709264,93.510229 109.244264,92.873229 C109.647264,92.392229 110.349264,92.168229 110.863264,92.629229 C111.291264,93.013229 111.337264,93.640229 111.269264,94.175229 Z M111.295264,72.014229 C107.557264,86.604229 104.664264,98.603229 104.605264,100.808229 C104.515264,104.185229 113.644264,104.707229 114.938264,96.338229 C117.800264,77.831229 117.754264,75.032229 118.437264,73.515229 C116.018264,73.229229 113.677264,72.643229 111.295264,72.014229 L111.295264,72.014229 Z" id="Fill-3124" fill="#1A1919"></path>
            <path d="M19.7672642,98.535229 C19.5932642,98.689229 19.3832642,98.791229 19.1352642,98.816229 C18.6092642,98.868229 18.1072642,98.519229 17.8252642,98.072229 C17.5422642,97.624229 17.4372642,97.091229 17.3432642,96.571229 C17.2062642,95.822229 17.0812642,95.054229 17.2082642,94.304229 C17.3902642,93.226229 18.1932642,92.295229 19.3102642,92.845229 C20.5162642,93.439229 20.3372642,95.683229 20.3902642,96.752229 C20.4222642,97.393229 20.2162642,98.137229 19.7672642,98.535229 Z M13.5462642,47.711229 C16.1242642,45.676229 19.8242642,43.642229 18.4372642,37.547229 C9.71526422,-0.793770951 14.2972642,27.711229 13.5072642,37.829229 C13.4352642,38.741229 12.1932642,38.926229 11.8312642,38.085229 C10.1552642,34.192229 9.72826422,22.884229 7.52326422,18.739229 C6.70026422,23.828229 7.87926422,44.331229 4.95326422,38.640229 C4.39826422,37.560229 0.965264224,11.466229 0.578264224,20.766229 C-0.506735776,46.874229 -1.11273578,46.999229 8.81226422,48.601229 C12.5772642,79.458229 10.1202642,96.427229 17.2102642,102.925229 C20.0372642,105.516229 23.9422642,103.784229 24.1942642,97.854229 C24.4212642,92.507229 12.4452642,48.580229 13.5462642,47.711229 L13.5462642,47.711229 Z" id="Fill-3125" fill="#1A1919"></path>
            <path d="M105.977312,59.042229 C105.957264,81.642229 87.9212642,99.812229 65.5582642,99.7614427 C42.9412642,99.709229 24.2862642,81.087229 24.4692642,58.408229 C24.9072642,4.15822905 106.028264,4.76622905 105.977312,59.042229" id="Fill-3126" fill="#FFFFFE"></path>
            <path d="M35.6551356,59.9253517 C36.670288,59.6891053 37.1794931,58.8106313 37.1825731,57.2897914 C37.0800063,54.5685376 36.9059922,51.3585615 36.6598213,47.6593121 L36.2907784,42.4186976 C36.3542457,42.3555049 36.45468,42.2370411 36.5921508,42.0633601 L41.979794,42.1399813 C42.2506345,42.1402589 42.4719863,42.0387912 42.64397,41.8356719 C42.8161146,41.6326775 42.9003443,41.3670841 42.8965528,41.0388092 C42.8791967,40.7105028 42.7731947,40.4404675 42.5784215,40.2286061 C42.3834813,40.016615 42.1494502,39.902099 41.8764399,39.8851447 L36.1155038,39.7864504 L35.9386502,37.1304894 C35.6881075,33.3678778 35.5508758,30.578497 35.5275086,28.7627767 L35.5311245,28.5024663 C35.5143693,28.249586 35.462734,27.995875 35.3761635,27.7412906 L43.923933,28.0416603 C44.2030659,28.0483768 44.4354334,27.9528373 44.6211607,27.755139 C44.8070549,27.5575703 44.8923251,27.2954101 44.876846,26.9685612 C44.8621041,26.6572765 44.7550335,26.3901595 44.5555043,26.1671092 C44.3558018,25.9439243 44.1156659,25.828416 43.8352266,25.8206852 L31.9936777,25.4940353 C30.1872756,25.476257 29.3719517,26.5924239 29.5475285,28.8426125 C29.7369643,31.093061 30.0445866,34.5963907 30.4696728,39.3520403 C31.1011339,46.0849255 31.6362076,52.2100302 32.0769772,57.7289722 C32.1537866,58.3822783 32.4471581,58.9176509 32.9564704,59.3346079 C33.4648792,59.7508633 34.0841255,59.9559002 34.8148484,59.9503298 L35.6551356,59.9253517 Z M56.7996657,59.3226462 C60.6101658,58.7997815 63.1405991,55.4703678 64.413305,49.3517509 C64.8009486,47.2838223 64.9904633,45.1895852 64.9790232,43.0668454 C64.9696115,41.3204779 64.8238624,39.5507718 64.5401397,37.7564562 C63.907901,33.7547383 62.577955,30.5833681 60.5432691,28.236885 C60.528857,28.2062118 60.5076298,28.1867412 60.479588,28.1784739 C60.4515454,28.1702058 60.4371823,28.1433186 60.4364995,28.0978128 C60.2945082,27.9426527 60.1739796,27.8258859 60.0749583,27.7475471 C58.9240034,26.6850047 57.694515,26.1342145 56.3902805,26.098117 C55.2683584,26.0670654 54.186562,26.4659412 53.1478178,27.2970166 C49.5801268,30.4773821 47.9858704,36.1576445 48.3265658,44.3079226 C48.4612894,47.5308463 48.874862,50.0991028 49.5633615,52.0096469 C50.4818131,54.545392 51.3803719,56.2403767 52.2635245,57.0980849 C53.7012802,58.6455078 55.1328529,59.3950448 56.5657497,59.352525 L56.7996657,59.3226462 Z M57.5461641,56.8727507 C57.1924666,56.881645 56.8545565,56.729631 56.5320871,56.4164398 C54.8935663,54.6307751 53.972785,50.5258083 53.7796437,44.1092272 C53.6604321,40.1487537 54.0069453,36.6381304 54.8282594,33.5844048 C55.5345037,30.9960988 56.3855234,29.4481508 57.3765056,28.9368237 C57.4727799,28.8781027 57.6045799,28.8506973 57.7718864,28.8545926 C58.0507304,28.8610848 58.3814767,29.0285386 58.7637353,29.3566512 C61.5558947,32.1290119 62.9704692,36.6553626 63.0318283,42.9546257 C63.071263,47.0030729 62.4206876,50.4868627 61.0936999,53.4165534 C60.3670788,55.0400573 59.2698717,56.1826067 57.80111,56.8434493 L57.5461641,56.8727507 Z M75.4413337,58.7702668 C79.2695447,58.2611543 81.9413376,55.0415034 83.4790516,49.1286599 C83.9565619,47.1305109 84.2372552,45.1070721 84.3183055,43.0561493 C84.3849852,41.3688653 84.3163116,39.6590065 84.1106482,37.9253024 C83.6522391,34.0585597 82.459061,30.9933869 80.5240811,28.7243235 C80.510981,28.6946689 80.4905737,28.6758351 80.4628599,28.6678224 C80.4351452,28.659809 80.4219301,28.6338131 80.4232152,28.5898353 C80.2877835,28.4397687 80.1721745,28.3268219 80.0764331,28.2510298 C78.9700835,27.2231225 77.7628978,26.6896498 76.4586633,26.6535524 C75.3367411,26.6225008 74.2365779,27.007115 73.1610999,27.8096674 C69.4543452,30.8820528 67.6180393,36.3743687 67.6136777,44.256734 C67.611983,47.3737149 67.9166661,49.857421 68.5238264,51.7048068 C69.3340445,54.1565108 70.1597917,55.7949588 71.0055545,56.6236346 C72.3757462,58.1185954 73.7735369,58.8419014 75.2064337,58.7993817 L75.4413337,58.7702668 Z M76.2921299,56.4013565 C75.9384324,56.4102507 75.6074098,56.2635849 75.2987156,55.9610898 C73.7382542,54.2360365 72.9935983,50.2678275 73.0746487,44.0641506 C73.124675,40.2350869 73.6214032,36.8411024 74.5739095,33.8892448 C75.3916671,31.3875266 76.3099228,29.8917861 77.3238636,29.3982859 C77.4227618,29.3416021 77.5558737,29.3152154 77.7231801,29.3191108 C78.0020242,29.325603 78.3258829,29.4877087 78.6943663,29.8051252 C81.3691087,32.486314 82.5882068,36.8608813 82.3760303,42.9477496 C82.2396675,46.8596937 81.4382211,50.2263353 79.985289,53.0582326 C79.189136,54.6277465 78.0437158,55.7328594 76.5480597,56.372819 L76.2921299,56.4013565 Z M91.1015625,58.4995309 C91.8697917,58.4764728 92.7393414,58.339767 93.7109949,58.0900218 C94.6836929,57.8410875 95.6685839,57.3868637 96.6671184,56.7284767 C97.668631,56.0724021 98.6220118,55.148117 99.5285656,53.9566344 C101.100039,51.799946 102.25085,49.4637762 102.974668,46.9432112 C103.704723,44.4274884 104.156141,42.2247552 104.324246,40.3313802 C104.733926,35.7171552 103.999966,32.1696323 102.104302,29.674784 C100.885632,28.2719138 99.9119103,27.5155968 99.1892604,27.4105863 C98.4663244,27.3053536 97.9434729,27.2481904 97.6209202,27.239263 C96.1343734,27.1981197 94.7586048,27.8545867 93.4992172,29.2130144 C93.3862963,28.2918673 92.8993903,27.6329555 92.0379007,27.2358145 C91.6829367,27.0533213 91.2458393,26.9547614 90.7268231,26.9403013 L90.3469552,26.9513626 C89.5754825,26.9298971 88.9470168,27.1438306 88.4622843,27.5937267 C87.9058777,28.100443 87.6035688,28.8897837 87.5544172,29.9610185 L87.5340428,30.4196373 C87.4541996,32.2709394 87.3542185,35.1946838 87.2332589,39.1902177 L87.2386767,39.5159902 C87.0446154,46.0426391 86.8398779,51.5910504 86.6269451,56.1631503 C86.6033607,56.6695538 86.7690447,57.1058142 87.1234874,57.471536 C87.4772508,57.8367303 87.9447325,58.0611665 88.5262254,58.145072 L88.5010989,58.2537528 C88.526417,58.2674012 88.7742457,58.3176541 89.2444106,58.404376 C89.7143413,58.4909161 90.3333333,58.5225889 91.1015625,58.4995309 Z M91.5739363,56.4464417 C91.7438949,55.8847391 91.9953361,52.8744619 92.3281168,47.415499 L92.3813406,46.5332111 L92.6137922,42.2993527 L93.040702,35.1423893 C93.1460959,33.8389609 93.5288911,32.6518409 94.1911946,31.5826655 C94.8564745,30.5158012 95.6556401,29.8009363 96.5876659,29.4372746 C96.9731342,29.3181227 97.3334563,29.2626607 97.6684653,29.2707589 C98.1011851,29.281219 98.4988305,29.3903902 98.8611414,29.5980706 C99.5310941,29.9830031 100.088414,30.4566848 100.533055,31.0190809 C102.081233,33.2128165 102.684394,36.2683317 102.355584,40.1957556 C101.945456,45.094478 100.517757,49.2815942 98.0997782,52.778295 C96.2832037,55.1540774 94.1126502,56.3804635 91.5739363,56.4464417 Z" id="Food" fill="#000000"></path>
            <g id="COURT" transform="translate(32.000000, 59.000000)" fill="#000000" font-family="HashedBrowns, Hashed Browns" font-size="30" font-weight="normal">
                <text>
                    <tspan x="0" y="28">COURT</tspan>
                </text>
            </g>
        </g>
    </g>
</svg>