<?xml version="1.0" encoding="UTF-8"?>
<svg width="62px" height="42px" viewBox="0 0 62 42" version="1.1" xmlns="http://www.w3.org/2000/svg" xmlns:xlink="http://www.w3.org/1999/xlink">
    <title>Fill 17499</title>
    <g id="Page-1" stroke="none" stroke-width="1" fill="none" fill-rule="evenodd">
        <path d="M59.886,8.08 C59.012,8.9 59.194,10.24 55.394,12.698 C49.746,16.353 38.972,19.292 33.179,22.064 C34.707,22.11 42.811,21.406 47.314,20.101 C53.552,18.293 58.168,14.395 59.146,12.636 C59.913,11.256 60.445,9.793 59.886,8.08 Z M27.335,21.246 C27.941,21.751 28.24,21.351 28.511,21.128 C30.097,19.816 31.774,18.586 33.209,17.125 C48.199,1.86 51.717,4.307 54.963,3.326 C54.928,3.194 55.01,3.109 54.445,2.887 C51.432,1.704 48.448,1.632 45.489,3.088 C39.228,6.168 33.209,13.319 29.138,18.979 C28.587,19.744 27.963,20.46 27.335,21.246 Z M57.662,5.608 C56.746,4.494 56.243,4.239 54.808,4.239 C50.407,4.239 48.059,5.794 44.058,8.648 C39.667,11.779 33.98,17.522 33.057,18.795 C33.099,18.836 33.142,18.876 33.185,18.917 C41.34,14.483 49.495,10.048 57.662,5.608 Z M28.498,22.482 C28.529,22.564 28.561,22.645 28.592,22.726 C31.331,22.238 34.278,20.705 46.442,16.179 C50.468,14.681 56.748,12.218 58.643,8.642 C59.145,7.696 59.077,7.297 58.278,6.406 C48.195,11.067 38.85,17.128 28.889,22.052 C28.727,22.132 28.627,22.336 28.498,22.482 Z M59.193,4.625 C66.689,11.962 54.315,21.421 40.232,22.734 C37.548,22.984 27.501,24.049 25.531,25.88 C20.541,30.521 15.678,35.485 9.979,39.283 C8.471,40.288 6.825,41.222 5.014,41.364 C0.021,41.757 -0.188,37.036 2.686,34.364 C5.032,32.182 8.092,30.934 10.925,29.511 C15.943,26.99 20.895,24.439 25.638,21.428 C28.532,19.591 33.759,7.571 44.426,1.962 C48.697,-0.284 54.437,-0.029 59.193,4.625 L59.193,4.625 Z" id="Fill-17499" fill="#1A1919"></path>
    </g>
</svg>